<?xml version="1.0" encoding="UTF-8" standalone="no"?>
<!-- Created with Inkscape (http://www.inkscape.org/) -->

<svg
   xmlns:dc="http://purl.org/dc/elements/1.1/"
   xmlns:cc="http://creativecommons.org/ns#"
   xmlns:rdf="http://www.w3.org/1999/02/22-rdf-syntax-ns#"
   xmlns:svg="http://www.w3.org/2000/svg"
   xmlns="http://www.w3.org/2000/svg"
   xmlns:xlink="http://www.w3.org/1999/xlink"
   xmlns:sodipodi="http://sodipodi.sourceforge.net/DTD/sodipodi-0.dtd"
   xmlns:inkscape="http://www.inkscape.org/namespaces/inkscape"
   width="680"
   height="220"
   id="svg2"
   version="1.1"
   inkscape:version="0.48.2 r9819"
   sodipodi:docname="traffic_cone_undercontruction_generic_path.svg"
   inkscape:export-filename="/Users/stephenchen/Documents/Inkscape/traffic_cone_undercontruction.png"
   inkscape:export-xdpi="90"
   inkscape:export-ydpi="90">
  <defs
     id="defs4">
    <linearGradient
       id="linearGradient4125">
      <stop
         style="stop-color:#212121;stop-opacity:1;"
         offset="0"
         id="stop4127" />
      <stop
         id="stop4133"
         offset="0.5"
         style="stop-color:#747474;stop-opacity:1;" />
      <stop
         style="stop-color:#212121;stop-opacity:1;"
         offset="1"
         id="stop4129" />
    </linearGradient>
    <linearGradient
       id="linearGradient4054">
      <stop
         style="stop-color:#333333;stop-opacity:1;"
         offset="0"
         id="stop4056" />
      <stop
         style="stop-color:#5b5b5b;stop-opacity:1;"
         offset="1"
         id="stop4058" />
    </linearGradient>
    <linearGradient
       id="linearGradient4019">
      <stop
         style="stop-color:#bb4e30;stop-opacity:1;"
         offset="0"
         id="stop4021" />
      <stop
         id="stop4027"
         offset="0.5"
         style="stop-color:#ed6b28;stop-opacity:1;" />
      <stop
         style="stop-color:#bb4e30;stop-opacity:1;"
         offset="1"
         id="stop4023" />
    </linearGradient>
    <linearGradient
       id="linearGradient3933">
      <stop
         style="stop-color:#d9d9d9;stop-opacity:1;"
         offset="0"
         id="stop3935" />
      <stop
         id="stop3941"
         offset="0.5"
         style="stop-color:#ffffff;stop-opacity:1;" />
      <stop
         style="stop-color:#d9d9d9;stop-opacity:1;"
         offset="1"
         id="stop3937" />
    </linearGradient>
    <linearGradient
       id="linearGradient3923">
      <stop
         style="stop-color:#d9d9d9;stop-opacity:1;"
         offset="0"
         id="stop3925" />
      <stop
         id="stop3931"
         offset="0.5"
         style="stop-color:#ffffff;stop-opacity:1;" />
      <stop
         style="stop-color:#d9d9d9;stop-opacity:1;"
         offset="1"
         id="stop3927" />
    </linearGradient>
    <linearGradient
       id="linearGradient3913">
      <stop
         style="stop-color:#d43b28;stop-opacity:1;"
         offset="0"
         id="stop3915" />
      <stop
         id="stop3921"
         offset="0.5"
         style="stop-color:#fdc319;stop-opacity:1;" />
      <stop
         style="stop-color:#d43b28;stop-opacity:1;"
         offset="1"
         id="stop3917" />
    </linearGradient>
    <linearGradient
       id="linearGradient3903">
      <stop
         style="stop-color:#d43b28;stop-opacity:1;"
         offset="0"
         id="stop3905" />
      <stop
         id="stop3911"
         offset="0.5"
         style="stop-color:#fdc319;stop-opacity:1;" />
      <stop
         style="stop-color:#d43b28;stop-opacity:1;"
         offset="1"
         id="stop3907" />
    </linearGradient>
    <linearGradient
       id="linearGradient3893">
      <stop
         style="stop-color:#d43b28;stop-opacity:1;"
         offset="0"
         id="stop3895" />
      <stop
         id="stop3901"
         offset="0.5"
         style="stop-color:#fdc319;stop-opacity:1;" />
      <stop
         style="stop-color:#d43b28;stop-opacity:1;"
         offset="1"
         id="stop3897" />
    </linearGradient>
    <linearGradient
       inkscape:collect="always"
       xlink:href="#linearGradient4125"
       id="linearGradient4131"
       x1="228.21875"
       y1="815.30115"
       x2="507.9375"
       y2="815.30115"
       gradientUnits="userSpaceOnUse" />
    <linearGradient
       inkscape:collect="always"
       xlink:href="#linearGradient3913"
       id="linearGradient4265"
       gradientUnits="userSpaceOnUse"
       x1="321.65466"
       y1="477.75461"
       x2="402.34216"
       y2="477.75461"
       gradientTransform="translate(6.0975253,0)" />
    <linearGradient
       inkscape:collect="always"
       xlink:href="#linearGradient3923"
       id="linearGradient4268"
       gradientUnits="userSpaceOnUse"
       x1="296.02966"
       y1="517.75464"
       x2="427.96716"
       y2="517.75464"
       gradientTransform="translate(6.0975253,0)" />
    <linearGradient
       inkscape:collect="always"
       xlink:href="#linearGradient3903"
       id="linearGradient4271"
       gradientUnits="userSpaceOnUse"
       x1="270.87341"
       y1="557.75464"
       x2="453.09216"
       y2="557.75464"
       gradientTransform="translate(6.0975253,0)" />
    <linearGradient
       inkscape:collect="always"
       xlink:href="#linearGradient3933"
       id="linearGradient4274"
       gradientUnits="userSpaceOnUse"
       x1="246.24841"
       y1="597.75464"
       x2="477.71716"
       y2="597.75464"
       gradientTransform="translate(6.0975253,0)" />
    <linearGradient
       inkscape:collect="always"
       xlink:href="#linearGradient3893"
       id="linearGradient4277"
       gradientUnits="userSpaceOnUse"
       x1="222.13148"
       y1="637.74335"
       x2="501.85025"
       y2="637.74335"
       gradientTransform="translate(6.0975253,0)" />
    <linearGradient
       inkscape:collect="always"
       xlink:href="#linearGradient4054"
       id="linearGradient4279"
       gradientUnits="userSpaceOnUse"
       x1="-869.65997"
       y1="1151.2542"
       x2="-625.56744"
       y2="1151.2542" />
    <linearGradient
       inkscape:collect="always"
       xlink:href="#linearGradient3913"
       id="linearGradient4281"
       gradientUnits="userSpaceOnUse"
       x1="323.24881"
       y1="460.16025"
       x2="394.96964"
       y2="460.16025" />
    <linearGradient
       inkscape:collect="always"
       xlink:href="#linearGradient4019"
       id="linearGradient4283"
       gradientUnits="userSpaceOnUse"
       x1="323.24881"
       y1="460.16025"
       x2="394.96964"
       y2="460.16025" />
  </defs>
  <sodipodi:namedview
     id="base"
     pagecolor="#ffffff"
     bordercolor="#666666"
     borderopacity="1.0"
     inkscape:pageopacity="0.0"
     inkscape:pageshadow="2"
     inkscape:zoom="0.90509668"
     inkscape:cx="140.7725"
     inkscape:cy="29.326255"
     inkscape:document-units="px"
     inkscape:current-layer="text3253"
     showgrid="false"
     inkscape:window-width="1680"
     inkscape:window-height="923"
     inkscape:window-x="0"
     inkscape:window-y="0"
     inkscape:window-maximized="0"
     inkscape:snap-nodes="true"
     inkscape:snap-object-midpoints="false"
     inkscape:object-paths="false"
     fit-margin-top="0"
     fit-margin-left="0"
     fit-margin-right="0"
     fit-margin-bottom="0" />
  <metadata
     id="metadata7">
    <rdf:RDF>
      <cc:Work
         rdf:about="">
        <dc:format>image/svg+xml</dc:format>
        <dc:type
           rdf:resource="http://purl.org/dc/dcmitype/StillImage" />
        <dc:title></dc:title>
      </cc:Work>
    </rdf:RDF>
  </metadata>
  <g
     inkscape:label="Layer 1"
     inkscape:groupmode="layer"
     id="layer1"
     transform="translate(-168.08839,-651.22829)">
    <g
       id="g4304"
       transform="matrix(0.49999992,0,0,0.49999992,90.044207,427.61422)">
      <rect
         style="fill:#000000;fill-opacity:1;stroke:none"
         id="rect4066"
         width="244.09254"
         height="244.0925"
         x="-872.0968"
         y="1031.6448"
         rx="42.387329"
         ry="42.387329"
         transform="matrix(0.9119215,-0.41036468,0.9119215,0.41036468,0,0)" />
      <rect
         transform="matrix(0.9119215,-0.41036468,0.9119215,0.41036468,0,0)"
         ry="42.387329"
         rx="42.387329"
         y="1029.2079"
         x="-869.65997"
         height="244.0925"
         width="244.09254"
         id="rect4038"
         style="fill:url(#linearGradient4279);fill-opacity:1;stroke:none" />
      <path
         inkscape:connector-curvature="0"
         id="path4072"
         d="m 368.09375,761.375 c -50.52566,0 -98.13549,8.33991 -139.875,23.0625 l 12.5625,37.65625 L 329.4375,862 c 21.41427,9.63642 55.89823,9.63642 77.3125,0 l 88.625,-39.875 12.5625,-37.6875 C 466.19799,769.71491 418.61942,761.375 368.09375,761.375 z"
         style="fill:url(#linearGradient4131);fill-opacity:1;fill-rule:evenodd;stroke:none" />
      <path
         style="fill:url(#linearGradient4277);fill-opacity:1;fill-rule:evenodd;stroke:none"
         d="m 333.60402,468.0402 -40.34375,121.125 -65.03125,195.21875 c 41.73951,14.72259 89.34934,23.0625 139.875,23.0625 50.52567,0 98.10424,-8.33991 139.84375,-23.0625 L 442.91652,589.1652 402.60402,468.0402 c -11.07754,1.74137 -22.62343,2.6875 -34.5,2.6875 -11.87438,0 -23.42433,-0.94675 -34.5,-2.6875 z"
         id="path3096"
         inkscape:connector-curvature="0" />
      <path
         inkscape:connector-curvature="0"
         id="path3094"
         d="M 333.59595,468.0515 293.2522,589.1765 252.34595,711.989 c 35.60983,9.95636 74.70902,15.46875 115.75,15.46875 41.02987,0 80.12442,-5.5175 115.71875,-15.46875 l -40.90625,-122.8125 -40.3125,-121.125 c -11.07754,1.74137 -22.62343,2.6875 -34.5,2.6875 -11.87438,0 -23.42433,-0.94675 -34.5,-2.6875 z"
         style="fill:url(#linearGradient4274);fill-opacity:1;fill-rule:evenodd;stroke:none" />
      <path
         inkscape:connector-curvature="0"
         id="path3092"
         d="m 333.59595,468.0515 -40.34375,121.125 -16.28125,48.84375 c 28.73491,6.11062 59.34849,9.4375 91.125,9.4375 31.76301,0 62.37863,-3.30062 91.09375,-9.40625 l -16.28125,-48.875 -40.3125,-121.125 c -11.07754,1.74137 -22.62343,2.6875 -34.5,2.6875 -11.87438,0 -23.42433,-0.94675 -34.5,-2.6875 z"
         style="fill:url(#linearGradient4271);fill-opacity:1;fill-rule:evenodd;stroke:none" />
      <path
         inkscape:connector-curvature="0"
         id="path3090"
         d="m 333.59595,468.0515 -31.46875,94.53125 c 21.23245,3.18219 43.29488,4.875 65.96875,4.875 22.67387,0 44.74324,-1.69281 65.96875,-4.875 L 402.59595,468.0515 c -11.07754,1.74137 -22.62343,2.6875 -34.5,2.6875 -11.87438,0 -23.42433,-0.94675 -34.5,-2.6875 z"
         style="fill:url(#linearGradient4268);fill-opacity:1;fill-rule:evenodd;stroke:none" />
      <path
         inkscape:connector-curvature="0"
         id="path3088"
         d="m 333.59595,468.0515 -5.84375,17.59375 c 13.20387,1.18575 26.65292,1.8125 40.34375,1.8125 13.68012,0 27.15313,-0.62857 40.34375,-1.8125 l -5.84375,-17.59375 c -11.07754,1.74137 -22.62343,2.6875 -34.5,2.6875 -11.87438,0 -23.42433,-0.94675 -34.5,-2.6875 z"
         style="fill:url(#linearGradient4265);fill-opacity:1;fill-rule:evenodd;stroke:none" />
      <path
         inkscape:connector-curvature="0"
         id="path4143"
         d="m 360.78125,461.53125 c -7.54866,0.31264 -14.17187,1.09384 -19,2.1875 l -80.625,330.625 c 27.00913,6.88213 55.91592,11.20959 86.03125,12.59375 l 13.59375,-345.40625 z"
         style="fill:#ffffff;fill-opacity:0.0745098;stroke:none" />
      <path
         transform="matrix(0.96251379,0,0,0.71490345,22.440811,139.07161)"
         d="m 394.96964,460.16025 c 0,5.1605 -16.05526,9.34391 -35.86042,9.34391 -19.80516,0 -35.86041,-4.18341 -35.86041,-9.34391 0,-5.1605 16.05525,-9.34391 35.86041,-9.34391 19.80516,0 35.86042,4.18341 35.86042,9.34391 z"
         sodipodi:ry="9.3439112"
         sodipodi:rx="35.860416"
         sodipodi:cy="460.16025"
         sodipodi:cx="359.10922"
         id="path3943"
         style="fill:url(#linearGradient4281);fill-opacity:1;stroke:none"
         sodipodi:type="arc" />
      <path
         sodipodi:type="arc"
         style="fill:url(#linearGradient4283);fill-opacity:1;stroke:none"
         id="path3963"
         sodipodi:cx="359.10922"
         sodipodi:cy="460.16025"
         sodipodi:rx="35.860416"
         sodipodi:ry="9.3439112"
         d="m 394.96964,460.16025 c 0,5.1605 -16.05526,9.34391 -35.86042,9.34391 -19.80516,0 -35.86041,-4.18341 -35.86041,-9.34391 0,-5.1605 16.05525,-9.34391 35.86041,-9.34391 19.80516,0 35.86042,4.18341 35.86042,9.34391 z"
         transform="matrix(0.67995089,0,0,0.50503092,123.91176,235.6466)" />
    </g>
    <text
       xml:space="preserve"
       style="font-size:40px;font-style:normal;font-variant:normal;font-weight:normal;font-stretch:normal;line-height:125%;letter-spacing:0px;word-spacing:0px;fill:#000000;fill-opacity:1;stroke:none;font-family:Sans;-inkscape-font-specification:Helvetica"
       x="435.37576"
       y="51.262394"
       id="text4317"
       sodipodi:linespacing="125%"
       transform="translate(168.08839,461.36176)"><tspan
         sodipodi:role="line"
         id="tspan4319"
         x="435.37576"
         y="51.262394" /></text>
    <g
       style="font-size:40px;font-style:normal;font-variant:normal;font-weight:normal;font-stretch:normal;line-height:125%;letter-spacing:0px;word-spacing:0px;fill:#4d4d4d;fill-opacity:1;stroke:none;font-family:Titillium;-inkscape-font-specification:Titillium"
       id="text3253">
      <path
         d="m 427.28636,743.58875 c 1.24798,10e-6 2.35998,-0.20799 3.336,-0.624 0.99198,-0.41599 1.82398,-0.99999 2.496,-1.752 0.68798,-0.75199 1.20798,-1.66399 1.56,-2.736 0.36798,-1.07199 0.55198,-2.27198 0.552,-3.6 l 0,-20.784 6.456,0 0,20.784 c -3e-5,2.06401 -0.33603,3.97601 -1.008,5.736 -0.65603,1.74401 -1.60803,3.25601 -2.856,4.536 -1.24803,1.26401 -2.76002,2.256 -4.536,2.976 -1.77602,0.704 -3.77602,1.056 -6,1.056 -2.22401,0 -4.22401,-0.352 -6,-1.056 -1.77601,-0.72 -3.28801,-1.71199 -4.536,-2.976 -1.232,-1.27999 -2.184,-2.79199 -2.856,-4.536 -0.656,-1.75999 -0.984,-3.67199 -0.984,-5.736 l 0,-20.784 6.456,0 0,20.76 c -10e-6,1.32802 0.17599,2.52801 0.528,3.6 0.36799,1.07201 0.88799,1.99201 1.56,2.76 0.67199,0.75201 1.49599,1.33601 2.472,1.752 0.99199,0.41601 2.11199,0.62401 3.36,0.624"
         style="font-size:48px;font-weight:bold;fill:#4d4d4d;font-family:Lato;-inkscape-font-specification:Lato Bold"
         id="path3339" />
      <path
         d="m 447.95111,748.79675 0,-24.624 3.624,0 c 0.76799,3e-5 1.27199,0.36003 1.512,1.08 l 0.408,1.944 c 0.49599,-0.51197 1.01599,-0.97597 1.56,-1.392 0.55999,-0.41597 1.14399,-0.77597 1.752,-1.08 0.62399,-0.30397 1.28799,-0.53597 1.992,-0.696 0.70399,-0.15997 1.47199,-0.23997 2.304,-0.24 1.34398,3e-5 2.53598,0.23203 3.576,0.696 1.03998,0.44803 1.90398,1.08803 2.592,1.92 0.70398,0.81602 1.23198,1.80002 1.584,2.952 0.36798,1.13602 0.55198,2.39202 0.552,3.768 l 0,15.672 -5.928,0 0,-15.672 c -2e-5,-1.50398 -0.35202,-2.66398 -1.056,-3.48 -0.68802,-0.83198 -1.72801,-1.24798 -3.12,-1.248 -1.02401,2e-5 -1.98401,0.23202 -2.88,0.696 -0.89601,0.46402 -1.74401,1.09602 -2.544,1.896 l 0,17.808 -5.928,0"
         style="font-size:48px;font-weight:bold;fill:#4d4d4d;font-family:Lato;-inkscape-font-specification:Lato Bold"
         id="path3341" />
      <path
         d="m 492.56036,748.79675 c -0.76802,0 -1.27202,-0.36 -1.512,-1.08 l -0.48,-2.376 c -0.51202,0.57601 -1.04802,1.09601 -1.608,1.56 -0.56001,0.464 -1.16801,0.864 -1.824,1.2 -0.64001,0.336 -1.33601,0.592 -2.088,0.768 -0.73601,0.192 -1.53601,0.288 -2.4,0.288 -1.34401,0 -2.57601,-0.28 -3.696,-0.84 -1.12,-0.56 -2.088,-1.368 -2.904,-2.424 -0.8,-1.07199 -1.424,-2.39199 -1.872,-3.96 -0.432,-1.56799 -0.648,-3.35999 -0.648,-5.376 0,-1.82398 0.248,-3.51998 0.744,-5.088 0.496,-1.56798 1.208,-2.92798 2.136,-4.08 0.928,-1.15197 2.04,-2.04797 3.336,-2.688 1.29599,-0.65597 2.75199,-0.98397 4.368,-0.984 1.37599,3e-5 2.55199,0.22403 3.528,0.672 0.97599,0.43203 1.84798,1.01603 2.616,1.752 l 0,-13.008 5.928,0 0,35.664 -3.624,0 m -7.896,-4.344 c 1.23199,10e-6 2.27999,-0.25599 3.144,-0.768 0.86398,-0.51199 1.67998,-1.23999 2.448,-2.184 l 0,-11.04 c -0.67202,-0.81598 -1.40802,-1.39198 -2.208,-1.728 -0.78401,-0.33598 -1.63201,-0.50398 -2.544,-0.504 -0.89601,2e-5 -1.71201,0.16802 -2.448,0.504 -0.72001,0.33602 -1.33601,0.84802 -1.848,1.536 -0.49601,0.67202 -0.88001,1.53602 -1.152,2.592 -0.27201,1.04002 -0.40801,2.27202 -0.408,3.696 -1e-5,1.44001 0.11199,2.66401 0.336,3.672 0.23999,0.99201 0.57599,1.80801 1.008,2.448 0.43199,0.62401 0.95999,1.08001 1.584,1.368 0.62399,0.27201 1.31999,0.40801 2.088,0.408"
         style="font-size:48px;font-weight:bold;fill:#4d4d4d;font-family:Lato;-inkscape-font-specification:Lato Bold"
         id="path3343" />
      <path
         d="m 512.78336,723.78875 c 1.55199,3e-5 2.97599,0.24803 4.272,0.744 1.31198,0.49603 2.43998,1.22403 3.384,2.184 0.94398,0.94402 1.67998,2.11202 2.208,3.504 0.52798,1.37602 0.79198,2.95202 0.792,4.728 -2e-5,0.44802 -0.024,0.82402 -0.072,1.128 -0.032,0.28802 -0.10402,0.52002 -0.216,0.696 -0.096,0.16001 -0.23202,0.28001 -0.408,0.36 -0.17602,0.064 -0.40002,0.096 -0.672,0.096 l -15.216,0 c 0.17599,2.52801 0.85599,4.38401 2.04,5.568 1.18399,1.18401 2.75199,1.77601 4.704,1.776 0.95999,10e-6 1.78399,-0.11199 2.472,-0.336 0.70398,-0.22399 1.31198,-0.47199 1.824,-0.744 0.52798,-0.27199 0.98398,-0.51999 1.368,-0.744 0.39998,-0.22399 0.78398,-0.33599 1.152,-0.336 0.23998,1e-5 0.44798,0.048 0.624,0.144 0.17598,0.096 0.32798,0.23201 0.456,0.408 l 1.728,2.16 c -0.65602,0.76801 -1.39202,1.41601 -2.208,1.944 -0.81602,0.512 -1.67202,0.928 -2.568,1.248 -0.88002,0.304 -1.78402,0.52 -2.712,0.648 -0.91201,0.128 -1.80001,0.192 -2.664,0.192 -1.71201,0 -3.30401,-0.28 -4.776,-0.84 -1.47201,-0.576 -2.752,-1.416 -3.84,-2.52 -1.088,-1.11999 -1.944,-2.49599 -2.568,-4.128 -0.624,-1.64799 -0.936,-3.55199 -0.936,-5.712 0,-1.67998 0.272,-3.25598 0.816,-4.728 0.544,-1.48798 1.32,-2.77598 2.328,-3.864 1.024,-1.10397 2.26399,-1.97597 3.72,-2.616 1.47199,-0.63997 3.12799,-0.95997 4.968,-0.96 m 0.12,4.248 c -1.72801,2e-5 -3.08001,0.48802 -4.056,1.464 -0.97601,0.97602 -1.60001,2.36002 -1.872,4.152 l 11.136,0 c -2e-5,-0.76798 -0.10402,-1.48798 -0.312,-2.16 -0.20802,-0.68798 -0.52802,-1.28798 -0.96,-1.8 -0.43202,-0.51198 -0.97601,-0.91198 -1.632,-1.2 -0.65601,-0.30398 -1.42401,-0.45598 -2.304,-0.456"
         style="font-size:48px;font-weight:bold;fill:#4d4d4d;font-family:Lato;-inkscape-font-specification:Lato Bold"
         id="path3345" />
      <path
         d="m 528.29486,748.79675 0,-24.624 3.48,0 c 0.60799,3e-5 1.03199,0.11203 1.272,0.336 0.23999,0.22403 0.39999,0.60803 0.48,1.152 l 0.36,2.976 c 0.87999,-1.51998 1.91199,-2.71997 3.096,-3.6 1.18399,-0.87997 2.51199,-1.31997 3.984,-1.32 1.21598,3e-5 2.22398,0.28003 3.024,0.84 l -0.768,4.44 c -0.048,0.28802 -0.15202,0.49602 -0.312,0.624 -0.16002,0.11202 -0.37602,0.16802 -0.648,0.168 -0.24002,2e-5 -0.56801,-0.056 -0.984,-0.168 -0.41601,-0.11198 -0.96801,-0.16798 -1.656,-0.168 -1.23201,2e-5 -2.28801,0.34402 -3.168,1.032 -0.88001,0.67202 -1.62401,1.66402 -2.232,2.976 l 0,15.336 -5.928,0"
         style="font-size:48px;font-weight:bold;fill:#4d4d4d;font-family:Lato;-inkscape-font-specification:Lato Bold"
         id="path3347" />
      <path
         d="m 581.36186,740.61275 c 0.35197,10e-6 0.65597,0.13601 0.912,0.408 l 2.544,2.76 c -1.40803,1.74401 -3.14403,3.08 -5.208,4.008 -2.04802,0.928 -4.51202,1.392 -7.392,1.392 -2.57601,0 -4.89601,-0.44 -6.96,-1.32 -2.04801,-0.88 -3.80001,-2.10399 -5.256,-3.672 -1.456,-1.56799 -2.576,-3.43999 -3.36,-5.616 -0.768,-2.17598 -1.152,-4.55198 -1.152,-7.128 0,-2.60798 0.432,-4.99197 1.296,-7.152 0.864,-2.17597 2.08,-4.04797 3.648,-5.616 1.56799,-1.56797 3.43999,-2.78396 5.616,-3.648 2.19199,-0.87996 4.60798,-1.31996 7.248,-1.32 2.57598,4e-5 4.82398,0.41604 6.744,1.248 1.93597,0.81604 3.59197,1.90403 4.968,3.264 l -2.16,3 c -0.12803,0.19203 -0.29603,0.36003 -0.504,0.504 -0.19203,0.14403 -0.46403,0.21603 -0.816,0.216 -0.36803,3e-5 -0.74403,-0.14397 -1.128,-0.432 -0.38402,-0.28797 -0.87202,-0.59997 -1.464,-0.936 -0.59202,-0.33597 -1.34402,-0.64797 -2.256,-0.936 -0.89602,-0.28797 -2.04002,-0.43197 -3.432,-0.432 -1.63202,3e-5 -3.13601,0.28803 -4.512,0.864 -1.36001,0.56003 -2.53601,1.36803 -3.528,2.424 -0.97601,1.05603 -1.74401,2.34403 -2.304,3.864 -0.54401,1.50402 -0.81601,3.20002 -0.816,5.088 -1e-5,1.95202 0.27199,3.68802 0.816,5.208 0.55999,1.52001 1.31199,2.80001 2.256,3.84 0.94399,1.04001 2.05599,1.84001 3.336,2.4 1.27999,0.54401 2.65598,0.81601 4.128,0.816 0.87998,10e-6 1.67198,-0.048 2.376,-0.144 0.71998,-0.096 1.37598,-0.24799 1.968,-0.456 0.60798,-0.20799 1.17598,-0.47199 1.704,-0.792 0.54398,-0.33599 1.07998,-0.74399 1.608,-1.224 0.15998,-0.14399 0.32797,-0.25599 0.504,-0.336 0.17597,-0.096 0.36797,-0.14399 0.576,-0.144"
         style="font-size:48px;font-weight:bold;fill:#4d4d4d;font-family:Lato;-inkscape-font-specification:Lato Bold"
         id="path3349" />
      <path
         d="m 599.83811,723.78875 c 1.83999,3e-5 3.50398,0.29603 4.992,0.888 1.50398,0.59203 2.78398,1.43203 3.84,2.52 1.05598,1.08802 1.87198,2.41602 2.448,3.984 0.57598,1.56802 0.86398,3.32002 0.864,5.256 -2e-5,1.95201 -0.28802,3.71201 -0.864,5.28 -0.57602,1.56801 -1.39202,2.90401 -2.448,4.008 -1.05602,1.104 -2.33602,1.952 -3.84,2.544 -1.48802,0.592 -3.15201,0.888 -4.992,0.888 -1.84001,0 -3.51201,-0.296 -5.016,-0.888 -1.50401,-0.592 -2.792,-1.44 -3.864,-2.544 -1.056,-1.10399 -1.88,-2.43999 -2.472,-4.008 -0.576,-1.56799 -0.864,-3.32799 -0.864,-5.28 0,-1.93598 0.288,-3.68798 0.864,-5.256 0.592,-1.56798 1.416,-2.89598 2.472,-3.984 1.072,-1.08797 2.35999,-1.92797 3.864,-2.52 1.50399,-0.59197 3.17599,-0.88797 5.016,-0.888 m 0,20.808 c 2.04799,10e-6 3.55998,-0.68799 4.536,-2.064 0.99198,-1.37599 1.48798,-3.39199 1.488,-6.048 -2e-5,-2.65598 -0.49602,-4.67998 -1.488,-6.072 -0.97602,-1.39198 -2.48801,-2.08798 -4.536,-2.088 -2.08001,2e-5 -3.61601,0.70402 -4.608,2.112 -0.99201,1.39202 -1.48801,3.40802 -1.488,6.048 -10e-6,2.64001 0.49599,4.65601 1.488,6.048 0.99199,1.37601 2.52799,2.06401 4.608,2.064"
         style="font-size:48px;font-weight:bold;fill:#4d4d4d;font-family:Lato;-inkscape-font-specification:Lato Bold"
         id="path3351" />
      <path
         d="m 616.60736,748.79675 0,-24.624 3.624,0 c 0.76799,3e-5 1.27199,0.36003 1.512,1.08 l 0.408,1.944 c 0.49599,-0.51197 1.01599,-0.97597 1.56,-1.392 0.55999,-0.41597 1.14399,-0.77597 1.752,-1.08 0.62399,-0.30397 1.28799,-0.53597 1.992,-0.696 0.70399,-0.15997 1.47199,-0.23997 2.304,-0.24 1.34398,3e-5 2.53598,0.23203 3.576,0.696 1.03998,0.44803 1.90398,1.08803 2.592,1.92 0.70398,0.81602 1.23198,1.80002 1.584,2.952 0.36798,1.13602 0.55198,2.39202 0.552,3.768 l 0,15.672 -5.928,0 0,-15.672 c -2e-5,-1.50398 -0.35202,-2.66398 -1.056,-3.48 -0.68802,-0.83198 -1.72801,-1.24798 -3.12,-1.248 -1.02401,2e-5 -1.98401,0.23202 -2.88,0.696 -0.89601,0.46402 -1.74401,1.09602 -2.544,1.896 l 0,17.808 -5.928,0"
         style="font-size:48px;font-weight:bold;fill:#4d4d4d;font-family:Lato;-inkscape-font-specification:Lato Bold"
         id="path3353" />
      <path
         d="m 658.50461,728.97275 c -0.16002,0.25602 -0.32802,0.44002 -0.504,0.552 -0.17602,0.096 -0.40002,0.14402 -0.672,0.144 -0.28801,2e-5 -0.60001,-0.08 -0.936,-0.24 -0.32001,-0.15998 -0.69601,-0.33598 -1.128,-0.528 -0.43201,-0.20798 -0.92801,-0.39198 -1.488,-0.552 -0.54401,-0.15998 -1.19201,-0.23998 -1.944,-0.24 -1.16801,2e-5 -2.08801,0.24802 -2.76,0.744 -0.67201,0.49602 -1.00801,1.14402 -1.008,1.944 -10e-6,0.52802 0.16799,0.97602 0.504,1.344 0.35199,0.35202 0.80799,0.66402 1.368,0.936 0.57599,0.27202 1.22399,0.52002 1.944,0.744 0.71999,0.20802 1.45599,0.44002 2.208,0.696 0.75199,0.25602 1.48799,0.55202 2.208,0.888 0.71999,0.32002 1.35998,0.73602 1.92,1.248 0.57598,0.49601 1.03198,1.09601 1.368,1.8 0.35198,0.70401 0.52798,1.55201 0.528,2.544 -2e-5,1.18401 -0.21602,2.28001 -0.648,3.288 -0.43202,0.99201 -1.06402,1.85601 -1.896,2.592 -0.83201,0.72 -1.86401,1.288 -3.096,1.704 -1.21601,0.4 -2.61601,0.6 -4.2,0.6 -0.84801,0 -1.68001,-0.08 -2.496,-0.24 -0.8,-0.144 -1.576,-0.352 -2.328,-0.624 -0.736,-0.272 -1.424,-0.592 -2.064,-0.96 -0.624,-0.368 -1.176,-0.76799 -1.656,-1.2 l 1.368,-2.256 c 0.176,-0.27199 0.384,-0.47999 0.624,-0.624 0.24,-0.14399 0.544,-0.21599 0.912,-0.216 0.368,10e-6 0.712,0.10401 1.032,0.312 0.336,0.20801 0.72,0.43201 1.152,0.672 0.432,0.24001 0.93599,0.46401 1.512,0.672 0.59199,0.20801 1.33599,0.31201 2.232,0.312 0.70399,1e-5 1.30399,-0.08 1.8,-0.24 0.51199,-0.17599 0.92799,-0.39999 1.248,-0.672 0.33599,-0.27199 0.57599,-0.58399 0.72,-0.936 0.15999,-0.36799 0.23999,-0.74399 0.24,-1.128 -1e-5,-0.57599 -0.17601,-1.04799 -0.528,-1.416 -0.33601,-0.36799 -0.79201,-0.68799 -1.368,-0.96 -0.56001,-0.27199 -1.20801,-0.51199 -1.944,-0.72 -0.72001,-0.22399 -1.46401,-0.46399 -2.232,-0.72 -0.75201,-0.25599 -1.496,-0.55199 -2.232,-0.888 -0.72,-0.35199 -1.368,-0.79198 -1.944,-1.32 -0.56,-0.52798 -1.016,-1.17598 -1.368,-1.944 -0.336,-0.76798 -0.504,-1.69598 -0.504,-2.784 0,-1.00798 0.2,-1.96798 0.6,-2.88 0.4,-0.91198 0.984,-1.70397 1.752,-2.376 0.784,-0.68797 1.752,-1.23197 2.904,-1.632 1.16799,-0.41597 2.51199,-0.62397 4.032,-0.624 1.69599,3e-5 3.23999,0.28003 4.632,0.84 1.39198,0.56003 2.55198,1.29603 3.48,2.208 l -1.344,2.136"
         style="font-size:48px;font-weight:bold;fill:#4d4d4d;font-family:Lato;-inkscape-font-specification:Lato Bold"
         id="path3355" />
      <path
         d="m 672.97661,749.18075 c -2.12801,0 -3.76801,-0.6 -4.92,-1.8 -1.152,-1.21599 -1.728,-2.88799 -1.728,-5.016 l 0,-13.752 -2.496,0 c -0.32,2e-5 -0.6,-0.10398 -0.84,-0.312 -0.224,-0.20798 -0.336,-0.51998 -0.336,-0.936 l 0,-2.352 3.96,-0.648 1.248,-6.72 c 0.064,-0.31997 0.208,-0.56797 0.432,-0.744 0.23999,-0.17596 0.53599,-0.26396 0.888,-0.264 l 3.072,0 0,7.752 6.48,0 0,4.224 -6.48,0 0,13.344 c -10e-6,0.76801 0.19199,1.36801 0.576,1.8 0.38399,0.43201 0.89599,0.64801 1.536,0.648 0.36799,10e-6 0.67199,-0.04 0.912,-0.12 0.25599,-0.096 0.47199,-0.19199 0.648,-0.288 0.19199,-0.096 0.35999,-0.18399 0.504,-0.264 0.14399,-0.096 0.28799,-0.14399 0.432,-0.144 0.17599,10e-6 0.31999,0.048 0.432,0.144 0.11199,0.08 0.23199,0.20801 0.36,0.384 l 1.776,2.88 c -0.86402,0.72 -1.85601,1.264 -2.976,1.632 -1.12001,0.368 -2.28001,0.552 -3.48,0.552"
         style="font-size:48px;font-weight:bold;fill:#4d4d4d;font-family:Lato;-inkscape-font-specification:Lato Bold"
         id="path3357" />
      <path
         d="m 683.45111,748.79675 0,-24.624 3.48,0 c 0.60799,3e-5 1.03199,0.11203 1.272,0.336 0.23999,0.22403 0.39999,0.60803 0.48,1.152 l 0.36,2.976 c 0.87999,-1.51998 1.91199,-2.71997 3.096,-3.6 1.18399,-0.87997 2.51199,-1.31997 3.984,-1.32 1.21598,3e-5 2.22398,0.28003 3.024,0.84 l -0.768,4.44 c -0.048,0.28802 -0.15202,0.49602 -0.312,0.624 -0.16002,0.11202 -0.37602,0.16802 -0.648,0.168 -0.24002,2e-5 -0.56801,-0.056 -0.984,-0.168 -0.41601,-0.11198 -0.96801,-0.16798 -1.656,-0.168 -1.23201,2e-5 -2.28801,0.34402 -3.168,1.032 -0.88001,0.67202 -1.62401,1.66402 -2.232,2.976 l 0,15.336 -5.928,0"
         style="font-size:48px;font-weight:bold;fill:#4d4d4d;font-family:Lato;-inkscape-font-specification:Lato Bold"
         id="path3359" />
      <path
         d="m 708.46886,724.17275 0,15.648 c -10e-6,1.50401 0.34399,2.67201 1.032,3.504 0.70399,0.81601 1.75199,1.22401 3.144,1.224 1.02399,10e-6 1.98399,-0.22399 2.88,-0.672 0.89599,-0.46399 1.74398,-1.09599 2.544,-1.896 l 0,-17.808 5.928,0 0,24.624 -3.624,0 c -0.76802,0 -1.27202,-0.36 -1.512,-1.08 l -0.408,-1.968 c -0.51202,0.51201 -1.04002,0.984 -1.584,1.416 -0.54401,0.416 -1.12801,0.776 -1.752,1.08 -0.60801,0.288 -1.27201,0.512 -1.992,0.672 -0.70401,0.176 -1.46401,0.264 -2.28,0.264 -1.34401,0 -2.53601,-0.224 -3.576,-0.672 -1.024,-0.464 -1.888,-1.112 -2.592,-1.944 -0.704,-0.83199 -1.24,-1.81599 -1.608,-2.952 -0.352,-1.15199 -0.528,-2.41599 -0.528,-3.792 l 0,-15.648 5.928,0"
         style="font-size:48px;font-weight:bold;fill:#4d4d4d;font-family:Lato;-inkscape-font-specification:Lato Bold"
         id="path3361" />
      <path
         d="m 747.63011,729.38075 c -0.17602,0.22402 -0.35202,0.40002 -0.528,0.528 -0.16002,0.12802 -0.40002,0.19202 -0.72,0.192 -0.30402,2e-5 -0.60002,-0.088 -0.888,-0.264 -0.28802,-0.19198 -0.63202,-0.39998 -1.032,-0.624 -0.40002,-0.23998 -0.88001,-0.44798 -1.44,-0.624 -0.54401,-0.19198 -1.22401,-0.28798 -2.04,-0.288 -1.04001,2e-5 -1.95201,0.19202 -2.736,0.576 -0.78401,0.36802 -1.44001,0.90402 -1.968,1.608 -0.51201,0.70402 -0.89601,1.56002 -1.152,2.568 -0.25601,0.99202 -0.38401,2.12002 -0.384,3.384 -10e-6,1.31201 0.13599,2.48001 0.408,3.504 0.28799,1.02401 0.69599,1.88801 1.224,2.592 0.52799,0.68801 1.16799,1.21601 1.92,1.584 0.75199,0.35201 1.59999,0.52801 2.544,0.528 0.94399,10e-6 1.70399,-0.11199 2.28,-0.336 0.59199,-0.23999 1.08798,-0.49599 1.488,-0.768 0.39998,-0.28799 0.74398,-0.54399 1.032,-0.768 0.30398,-0.23999 0.63998,-0.35999 1.008,-0.36 0.47998,1e-5 0.83998,0.18401 1.08,0.552 l 1.704,2.16 c -0.65602,0.76801 -1.36802,1.41601 -2.136,1.944 -0.76802,0.512 -1.56802,0.928 -2.4,1.248 -0.81602,0.304 -1.66401,0.52 -2.544,0.648 -0.88001,0.128 -1.75201,0.192 -2.616,0.192 -1.52001,0 -2.95201,-0.28 -4.296,-0.84 -1.34401,-0.576 -2.52,-1.408 -3.528,-2.496 -0.992,-1.08799 -1.784,-2.41599 -2.376,-3.984 -0.576,-1.58399 -0.864,-3.38399 -0.864,-5.4 0,-1.80798 0.256,-3.47998 0.768,-5.016 0.528,-1.55198 1.296,-2.88798 2.304,-4.008 1.008,-1.13597 2.25599,-2.02397 3.744,-2.664 1.48799,-0.63997 3.19999,-0.95997 5.136,-0.96 1.83999,3e-5 3.44798,0.29603 4.824,0.888 1.39198,0.59203 2.63998,1.44003 3.744,2.544 l -1.56,2.16"
         style="font-size:48px;font-weight:bold;fill:#4d4d4d;font-family:Lato;-inkscape-font-specification:Lato Bold"
         id="path3363" />
      <path
         d="m 761.28911,749.18075 c -2.12801,0 -3.76801,-0.6 -4.92,-1.8 -1.152,-1.21599 -1.728,-2.88799 -1.728,-5.016 l 0,-13.752 -2.496,0 c -0.32,2e-5 -0.6,-0.10398 -0.84,-0.312 -0.224,-0.20798 -0.336,-0.51998 -0.336,-0.936 l 0,-2.352 3.96,-0.648 1.248,-6.72 c 0.064,-0.31997 0.208,-0.56797 0.432,-0.744 0.23999,-0.17596 0.53599,-0.26396 0.888,-0.264 l 3.072,0 0,7.752 6.48,0 0,4.224 -6.48,0 0,13.344 c -10e-6,0.76801 0.19199,1.36801 0.576,1.8 0.38399,0.43201 0.89599,0.64801 1.536,0.648 0.36799,10e-6 0.67199,-0.04 0.912,-0.12 0.25599,-0.096 0.47199,-0.19199 0.648,-0.288 0.19199,-0.096 0.35999,-0.18399 0.504,-0.264 0.14399,-0.096 0.28799,-0.14399 0.432,-0.144 0.17599,10e-6 0.31999,0.048 0.432,0.144 0.11199,0.08 0.23199,0.20801 0.36,0.384 l 1.776,2.88 c -0.86402,0.72 -1.85601,1.264 -2.976,1.632 -1.12001,0.368 -2.28001,0.552 -3.48,0.552"
         style="font-size:48px;font-weight:bold;fill:#4d4d4d;font-family:Lato;-inkscape-font-specification:Lato Bold"
         id="path3365" />
      <path
         d="m 778.07561,724.17275 0,24.624 -5.928,0 0,-24.624 5.928,0 m 0.888,-7.176 c -10e-6,0.51203 -0.10401,0.99203 -0.312,1.44 -0.20801,0.44803 -0.48801,0.84003 -0.84,1.176 -0.33601,0.33603 -0.73601,0.60803 -1.2,0.816 -0.46401,0.19203 -0.96001,0.28803 -1.488,0.288 -0.512,3e-5 -1,-0.096 -1.464,-0.288 -0.448,-0.20797 -0.84,-0.47997 -1.176,-0.816 -0.336,-0.33597 -0.608,-0.72797 -0.816,-1.176 -0.192,-0.44797 -0.288,-0.92797 -0.288,-1.44 0,-0.52796 0.096,-1.02396 0.288,-1.488 0.208,-0.46396 0.48,-0.86396 0.816,-1.2 0.336,-0.33596 0.728,-0.59996 1.176,-0.792 0.464,-0.20796 0.952,-0.31196 1.464,-0.312 0.52799,4e-5 1.02399,0.10404 1.488,0.312 0.46399,0.19204 0.86399,0.45604 1.2,0.792 0.35199,0.33604 0.63199,0.73604 0.84,1.2 0.20799,0.46404 0.31199,0.96004 0.312,1.488"
         style="font-size:48px;font-weight:bold;fill:#4d4d4d;font-family:Lato;-inkscape-font-specification:Lato Bold"
         id="path3367" />
      <path
         d="m 795.30686,723.78875 c 1.83999,3e-5 3.50398,0.29603 4.992,0.888 1.50398,0.59203 2.78398,1.43203 3.84,2.52 1.05598,1.08802 1.87198,2.41602 2.448,3.984 0.57598,1.56802 0.86398,3.32002 0.864,5.256 -2e-5,1.95201 -0.28802,3.71201 -0.864,5.28 -0.57602,1.56801 -1.39202,2.90401 -2.448,4.008 -1.05602,1.104 -2.33602,1.952 -3.84,2.544 -1.48802,0.592 -3.15201,0.888 -4.992,0.888 -1.84001,0 -3.51201,-0.296 -5.016,-0.888 -1.50401,-0.592 -2.792,-1.44 -3.864,-2.544 -1.056,-1.10399 -1.88,-2.43999 -2.472,-4.008 -0.576,-1.56799 -0.864,-3.32799 -0.864,-5.28 0,-1.93598 0.288,-3.68798 0.864,-5.256 0.592,-1.56798 1.416,-2.89598 2.472,-3.984 1.072,-1.08797 2.35999,-1.92797 3.864,-2.52 1.50399,-0.59197 3.17599,-0.88797 5.016,-0.888 m 0,20.808 c 2.04799,10e-6 3.55998,-0.68799 4.536,-2.064 0.99198,-1.37599 1.48798,-3.39199 1.488,-6.048 -2e-5,-2.65598 -0.49602,-4.67998 -1.488,-6.072 -0.97602,-1.39198 -2.48801,-2.08798 -4.536,-2.088 -2.08001,2e-5 -3.61601,0.70402 -4.608,2.112 -0.99201,1.39202 -1.48801,3.40802 -1.488,6.048 -10e-6,2.64001 0.49599,4.65601 1.488,6.048 0.99199,1.37601 2.52799,2.06401 4.608,2.064"
         style="font-size:48px;font-weight:bold;fill:#4d4d4d;font-family:Lato;-inkscape-font-specification:Lato Bold"
         id="path3369" />
      <path
         d="m 812.07611,748.79675 0,-24.624 3.624,0 c 0.76799,3e-5 1.27199,0.36003 1.512,1.08 l 0.408,1.944 c 0.49599,-0.51197 1.01599,-0.97597 1.56,-1.392 0.55999,-0.41597 1.14399,-0.77597 1.752,-1.08 0.62399,-0.30397 1.28799,-0.53597 1.992,-0.696 0.70399,-0.15997 1.47199,-0.23997 2.304,-0.24 1.34398,3e-5 2.53598,0.23203 3.576,0.696 1.03998,0.44803 1.90398,1.08803 2.592,1.92 0.70398,0.81602 1.23198,1.80002 1.584,2.952 0.36798,1.13602 0.55198,2.39202 0.552,3.768 l 0,15.672 -5.928,0 0,-15.672 c -2e-5,-1.50398 -0.35202,-2.66398 -1.056,-3.48 -0.68802,-0.83198 -1.72801,-1.24798 -3.12,-1.248 -1.02401,2e-5 -1.98401,0.23202 -2.88,0.696 -0.89601,0.46402 -1.74401,1.09602 -2.544,1.896 l 0,17.808 -5.928,0"
         style="font-size:48px;font-weight:bold;fill:#4d4d4d;font-family:Lato;-inkscape-font-specification:Lato Bold"
         id="path3371" />
    </g>
    <g
       style="font-size:40px;font-style:normal;font-variant:normal;font-weight:normal;font-stretch:normal;line-height:125%;letter-spacing:0px;word-spacing:0px;fill:#4d4d4d;fill-opacity:1;stroke:none;font-family:Titillium;-inkscape-font-specification:Titillium"
       id="text3257">
      <path
         d="m 526.29498,790.43303 c -0.55468,0.608 -1.08268,1.11467 -1.584,1.52 -0.49068,0.40534 -0.98668,0.73067 -1.488,0.976 -0.50134,0.23467 -1.02401,0.4 -1.568,0.496 -0.53334,0.096 -1.10934,0.144 -1.728,0.144 -0.93867,0 -1.77067,-0.16 -2.496,-0.48 -0.71467,-0.32 -1.31734,-0.768 -1.808,-1.344 -0.48,-0.58666 -0.848,-1.28533 -1.104,-2.096 -0.24534,-0.82133 -0.368,-1.72266 -0.368,-2.704 0,-1.31199 0.20266,-2.57066 0.608,-3.776 0.416,-1.20532 0.992,-2.27199 1.728,-3.2 0.73599,-0.92798 1.61066,-1.66932 2.624,-2.224 1.01333,-0.55465 2.12799,-0.83198 3.344,-0.832 1.06666,2e-5 1.96265,0.19202 2.688,0.576 0.72532,0.37335 1.35999,0.92268 1.904,1.648 l -0.896,1.072 c -0.064,0.0854 -0.14401,0.15468 -0.24,0.208 -0.096,0.0534 -0.20268,0.08 -0.32,0.08 -0.14935,10e-6 -0.29868,-0.064 -0.448,-0.192 -0.13868,-0.13865 -0.32535,-0.28798 -0.56,-0.448 -0.22401,-0.17065 -0.51201,-0.31998 -0.864,-0.448 -0.34134,-0.13865 -0.78401,-0.20798 -1.328,-0.208 -0.73601,2e-5 -1.43468,0.20268 -2.096,0.608 -0.65067,0.39468 -1.22134,0.93868 -1.712,1.632 -0.49067,0.69335 -0.88001,1.51468 -1.168,2.464 -0.27734,0.94934 -0.416,1.96801 -0.416,3.056 0,0.66134 0.0747,1.26401 0.224,1.808 0.14933,0.53334 0.37333,0.99201 0.672,1.376 0.29866,0.37334 0.66133,0.66667 1.088,0.88 0.43733,0.20267 0.94399,0.304 1.52,0.304 0.47999,0 0.90666,-0.048 1.28,-0.144 0.37332,-0.10666 0.70399,-0.23466 0.992,-0.384 0.28799,-0.14933 0.53866,-0.30933 0.752,-0.48 0.22399,-0.18133 0.42132,-0.34666 0.592,-0.496 0.18132,-0.14933 0.34132,-0.27199 0.48,-0.368 0.14932,-0.10666 0.29865,-0.15999 0.448,-0.16 0.21332,1e-5 0.39465,0.0907 0.544,0.272 l 0.704,0.864 0,0"
         style="font-size:32px;font-style:italic;fill:#4d4d4d;font-family:Lato;-inkscape-font-specification:Lato Italic"
         id="path3310" />
      <path
         d="m 528.32998,793.34503 2.848,-23.568 2.848,0 -1.328,10.944 c 0.84266,-1.25865 1.77599,-2.20798 2.8,-2.848 1.03466,-0.65065 2.09066,-0.97598 3.168,-0.976 1.22665,2e-5 2.17065,0.40535 2.832,1.216 0.66132,0.81068 0.99198,1.98935 0.992,3.536 -2e-5,0.21335 -0.005,0.43735 -0.016,0.672 -0.0107,0.22401 -0.032,0.45868 -0.064,0.704 l -1.216,10.32 -2.848,0 1.216,-10.32 c 0.0213,-0.21332 0.0373,-0.41599 0.048,-0.608 0.0213,-0.20265 0.032,-0.39465 0.032,-0.576 -10e-6,-0.87465 -0.16535,-1.52532 -0.496,-1.952 -0.32001,-0.42665 -0.83201,-0.63998 -1.536,-0.64 -0.48001,2e-5 -0.97601,0.13335 -1.488,0.4 -0.50134,0.25602 -0.99201,0.62401 -1.472,1.104 -0.48001,0.48001 -0.92801,1.06135 -1.344,1.744 -0.41601,0.67201 -0.77867,1.42401 -1.088,2.256 l -1.04,8.592 -2.848,0"
         style="font-size:32px;font-style:italic;fill:#4d4d4d;font-family:Lato;-inkscape-font-specification:Lato Italic"
         id="path3312" />
      <path
         d="m 558.09948,780.60903 c -2e-5,0.70401 -0.14401,1.35468 -0.432,1.952 -0.28801,0.58668 -0.81601,1.12001 -1.584,1.6 -0.76801,0.46934 -1.82401,0.88001 -3.168,1.232 -1.34401,0.35201 -3.07201,0.63468 -5.184,0.848 -0.0107,0.11734 -0.016,0.23468 -0.016,0.352 0,0.10668 0,0.21867 0,0.336 0,1.42934 0.30933,2.52267 0.928,3.28 0.62933,0.74667 1.57333,1.12 2.832,1.12 0.51199,0 0.96532,-0.0533 1.36,-0.16 0.40532,-0.10666 0.76266,-0.23466 1.072,-0.384 0.31999,-0.16 0.59732,-0.33066 0.832,-0.512 0.24532,-0.19199 0.46932,-0.36266 0.672,-0.512 0.20265,-0.15999 0.38932,-0.29333 0.56,-0.4 0.17065,-0.10666 0.34132,-0.15999 0.512,-0.16 0.19199,1e-5 0.36799,0.0907 0.528,0.272 l 0.704,0.88 c -0.54401,0.56534 -1.07735,1.05067 -1.6,1.456 -0.51201,0.39467 -1.04001,0.72534 -1.584,0.992 -0.54401,0.26667 -1.11468,0.45867 -1.712,0.576 -0.58668,0.128 -1.22134,0.192 -1.904,0.192 -0.92801,0 -1.76001,-0.15466 -2.496,-0.464 -0.736,-0.30933 -1.36,-0.74666 -1.872,-1.312 -0.512,-0.576 -0.90667,-1.26933 -1.184,-2.08 -0.27734,-0.81066 -0.416,-1.71733 -0.416,-2.72 0,-0.83199 0.0853,-1.65866 0.256,-2.48 0.18133,-0.83199 0.43733,-1.62132 0.768,-2.368 0.34133,-0.74665 0.752,-1.43999 1.232,-2.08 0.49066,-0.63998 1.04533,-1.18932 1.664,-1.648 0.62933,-0.46932 1.31733,-0.83732 2.064,-1.104 0.75732,-0.26665 1.56799,-0.39998 2.432,-0.4 0.82132,2e-5 1.53065,0.11735 2.128,0.352 0.59732,0.23468 1.08799,0.53335 1.472,0.896 0.38399,0.36268 0.66665,0.76268 0.848,1.2 0.19199,0.43735 0.28798,0.85335 0.288,1.248 m -4.896,-1.648 c -0.67201,2e-5 -1.29068,0.13868 -1.856,0.416 -0.56534,0.27735 -1.06667,0.66135 -1.504,1.152 -0.43734,0.48001 -0.81067,1.05068 -1.12,1.712 -0.30934,0.65068 -0.54934,1.35468 -0.72,2.112 1.64266,-0.20266 2.95999,-0.43199 3.952,-0.688 0.99199,-0.26665 1.75466,-0.54932 2.288,-0.848 0.53332,-0.30932 0.88532,-0.63999 1.056,-0.992 0.17065,-0.35199 0.25599,-0.71999 0.256,-1.104 -10e-6,-0.19199 -0.0427,-0.38932 -0.128,-0.592 -0.0853,-0.21332 -0.22401,-0.40532 -0.416,-0.576 -0.18135,-0.17065 -0.42134,-0.30932 -0.72,-0.416 -0.29868,-0.11732 -0.66134,-0.17598 -1.088,-0.176"
         style="font-size:32px;font-style:italic;fill:#4d4d4d;font-family:Lato;-inkscape-font-specification:Lato Italic"
         id="path3314" />
      <path
         d="m 571.85748,790.43303 c -0.55468,0.608 -1.08268,1.11467 -1.584,1.52 -0.49068,0.40534 -0.98668,0.73067 -1.488,0.976 -0.50134,0.23467 -1.02401,0.4 -1.568,0.496 -0.53334,0.096 -1.10934,0.144 -1.728,0.144 -0.93867,0 -1.77067,-0.16 -2.496,-0.48 -0.71467,-0.32 -1.31734,-0.768 -1.808,-1.344 -0.48,-0.58666 -0.848,-1.28533 -1.104,-2.096 -0.24534,-0.82133 -0.368,-1.72266 -0.368,-2.704 0,-1.31199 0.20266,-2.57066 0.608,-3.776 0.416,-1.20532 0.992,-2.27199 1.728,-3.2 0.73599,-0.92798 1.61066,-1.66932 2.624,-2.224 1.01333,-0.55465 2.12799,-0.83198 3.344,-0.832 1.06666,2e-5 1.96265,0.19202 2.688,0.576 0.72532,0.37335 1.35999,0.92268 1.904,1.648 l -0.896,1.072 c -0.064,0.0854 -0.14401,0.15468 -0.24,0.208 -0.096,0.0534 -0.20268,0.08 -0.32,0.08 -0.14935,10e-6 -0.29868,-0.064 -0.448,-0.192 -0.13868,-0.13865 -0.32535,-0.28798 -0.56,-0.448 -0.22401,-0.17065 -0.51201,-0.31998 -0.864,-0.448 -0.34134,-0.13865 -0.78401,-0.20798 -1.328,-0.208 -0.73601,2e-5 -1.43468,0.20268 -2.096,0.608 -0.65067,0.39468 -1.22134,0.93868 -1.712,1.632 -0.49067,0.69335 -0.88001,1.51468 -1.168,2.464 -0.27734,0.94934 -0.416,1.96801 -0.416,3.056 0,0.66134 0.0747,1.26401 0.224,1.808 0.14933,0.53334 0.37333,0.99201 0.672,1.376 0.29866,0.37334 0.66133,0.66667 1.088,0.88 0.43733,0.20267 0.94399,0.304 1.52,0.304 0.47999,0 0.90666,-0.048 1.28,-0.144 0.37332,-0.10666 0.70399,-0.23466 0.992,-0.384 0.28799,-0.14933 0.53866,-0.30933 0.752,-0.48 0.22399,-0.18133 0.42132,-0.34666 0.592,-0.496 0.18132,-0.14933 0.34132,-0.27199 0.48,-0.368 0.14932,-0.10666 0.29865,-0.15999 0.448,-0.16 0.21332,1e-5 0.39465,0.0907 0.544,0.272 l 0.704,0.864 0,0"
         style="font-size:32px;font-style:italic;fill:#4d4d4d;font-family:Lato;-inkscape-font-specification:Lato Italic"
         id="path3316" />
      <path
         d="m 579.57248,769.77703 -1.696,13.872 0.496,0 c 0.21333,10e-6 0.38933,-0.0267 0.528,-0.08 0.13866,-0.064 0.29333,-0.18665 0.464,-0.368 l 5.36,-5.488 c 0.17065,-0.17065 0.33599,-0.30932 0.496,-0.416 0.15999,-0.10665 0.36799,-0.15998 0.624,-0.16 l 2.512,0 -6.256,6.352 c -0.16001,0.17068 -0.32001,0.33068 -0.48,0.48 -0.14934,0.13868 -0.31468,0.26134 -0.496,0.368 0.17066,0.12801 0.31466,0.27734 0.432,0.448 0.11732,0.17068 0.23466,0.35734 0.352,0.56 l 4.864,8 -2.448,0 c -0.23468,0 -0.42668,-0.0427 -0.576,-0.128 -0.13868,-0.0853 -0.26668,-0.22933 -0.384,-0.432 l -4.128,-6.64 c -0.13867,-0.21332 -0.27734,-0.35732 -0.416,-0.432 -0.12801,-0.0747 -0.34134,-0.11199 -0.64,-0.112 l -0.544,0 -0.944,7.744 -2.816,0 2.896,-23.568 2.8,0"
         style="font-size:32px;font-style:italic;fill:#4d4d4d;font-family:Lato;-inkscape-font-specification:Lato Italic"
         id="path3318" />
      <path
         d="m 595.45498,793.34503 2.848,-23.568 2.8,0 -1.408,11.456 c 0.40533,-0.65065 0.84266,-1.24265 1.312,-1.776 0.46933,-0.54398 0.95999,-1.00265 1.472,-1.376 0.51199,-0.37332 1.04532,-0.66132 1.6,-0.864 0.55466,-0.21332 1.11999,-0.31998 1.696,-0.32 1.37599,2e-5 2.44798,0.50135 3.216,1.504 0.76798,1.00268 1.15198,2.46935 1.152,4.4 -2e-5,0.87468 -0.0907,1.74934 -0.272,2.624 -0.18135,0.87468 -0.44268,1.71201 -0.784,2.512 -0.33068,0.78934 -0.73602,1.53067 -1.216,2.224 -0.46935,0.68267 -0.99735,1.28 -1.584,1.792 -0.57601,0.50134 -1.20535,0.896 -1.888,1.184 -0.68268,0.288 -1.39734,0.432 -2.144,0.432 -0.86401,0 -1.64801,-0.18133 -2.352,-0.544 -0.69334,-0.36266 -1.26401,-0.88 -1.712,-1.552 l -0.208,1.04 c -0.0853,0.27734 -0.19734,0.48534 -0.336,0.624 -0.128,0.13867 -0.352,0.208 -0.672,0.208 l -1.52,0 m 9.248,-14.16 c -0.51201,2e-5 -1.02934,0.16002 -1.552,0.48 -0.52268,0.32002 -1.02934,0.76268 -1.52,1.328 -0.48001,0.56535 -0.93334,1.23735 -1.36,2.016 -0.42667,0.77868 -0.79467,1.63201 -1.104,2.56 l -0.512,4.208 c 0.40533,0.576 0.89066,0.98667 1.456,1.232 0.56533,0.23467 1.14133,0.352 1.728,0.352 0.55466,0 1.07732,-0.11733 1.568,-0.352 0.49066,-0.23466 0.93866,-0.54933 1.344,-0.944 0.40532,-0.40533 0.76799,-0.87466 1.088,-1.408 0.31999,-0.54399 0.58665,-1.11999 0.8,-1.728 0.22399,-0.61866 0.39465,-1.25332 0.512,-1.904 0.11732,-0.66132 0.17599,-1.31199 0.176,-1.952 -1e-5,-1.26932 -0.22935,-2.23465 -0.688,-2.896 -0.45868,-0.66132 -1.10401,-0.99198 -1.936,-0.992"
         style="font-size:32px;font-style:italic;fill:#4d4d4d;font-family:Lato;-inkscape-font-specification:Lato Italic"
         id="path3320" />
      <path
         d="m 624.05948,793.34503 -1.472,0 c -0.37335,0 -0.62935,-0.096 -0.768,-0.288 -0.12801,-0.192 -0.19201,-0.42666 -0.192,-0.704 l 0.288,-3.28 c -0.38401,0.68267 -0.80001,1.30134 -1.248,1.856 -0.43734,0.55467 -0.90668,1.02934 -1.408,1.424 -0.49068,0.384 -1.00801,0.68267 -1.552,0.896 -0.54401,0.21333 -1.10934,0.32 -1.696,0.32 -0.64001,0 -1.22134,-0.12267 -1.744,-0.368 -0.52267,-0.256 -0.97067,-0.624 -1.344,-1.104 -0.36267,-0.49066 -0.64534,-1.088 -0.848,-1.792 -0.20267,-0.71466 -0.304,-1.53066 -0.304,-2.448 0,-0.95999 0.11733,-1.89332 0.352,-2.8 0.24533,-0.91732 0.58666,-1.78132 1.024,-2.592 0.448,-0.81065 0.98133,-1.55199 1.6,-2.224 0.61866,-0.68265 1.30666,-1.26932 2.064,-1.76 0.76799,-0.50132 1.58932,-0.88532 2.464,-1.152 0.87466,-0.27732 1.79199,-0.41598 2.752,-0.416 0.69332,2e-5 1.36532,0.0587 2.016,0.176 0.66132,0.10668 1.31198,0.29868 1.952,0.576 l -1.936,15.68 m -6.976,-2.144 c 0.52266,0 1.03466,-0.16 1.536,-0.48 0.50132,-0.33066 0.97599,-0.78399 1.424,-1.36 0.44799,-0.57599 0.86399,-1.25866 1.248,-2.048 0.39465,-0.79999 0.74132,-1.67466 1.04,-2.624 l 0.688,-5.568 c -0.23468,-0.0533 -0.46935,-0.0853 -0.704,-0.096 -0.22401,-0.0213 -0.44801,-0.032 -0.672,-0.032 -0.64001,2e-5 -1.25868,0.10668 -1.856,0.32 -0.59734,0.20268 -1.15734,0.49068 -1.68,0.864 -0.52267,0.37335 -0.99734,0.82135 -1.424,1.344 -0.42667,0.51201 -0.79467,1.07735 -1.104,1.696 -0.29867,0.61868 -0.53334,1.28001 -0.704,1.984 -0.17067,0.69334 -0.256,1.40801 -0.256,2.144 0,2.57067 0.82133,3.856 2.464,3.856"
         style="font-size:32px;font-style:italic;fill:#4d4d4d;font-family:Lato;-inkscape-font-specification:Lato Italic"
         id="path3322" />
      <path
         d="m 640.29498,790.43303 c -0.55468,0.608 -1.08268,1.11467 -1.584,1.52 -0.49068,0.40534 -0.98668,0.73067 -1.488,0.976 -0.50134,0.23467 -1.02401,0.4 -1.568,0.496 -0.53334,0.096 -1.10934,0.144 -1.728,0.144 -0.93867,0 -1.77067,-0.16 -2.496,-0.48 -0.71467,-0.32 -1.31734,-0.768 -1.808,-1.344 -0.48,-0.58666 -0.848,-1.28533 -1.104,-2.096 -0.24534,-0.82133 -0.368,-1.72266 -0.368,-2.704 0,-1.31199 0.20266,-2.57066 0.608,-3.776 0.416,-1.20532 0.992,-2.27199 1.728,-3.2 0.73599,-0.92798 1.61066,-1.66932 2.624,-2.224 1.01333,-0.55465 2.12799,-0.83198 3.344,-0.832 1.06666,2e-5 1.96265,0.19202 2.688,0.576 0.72532,0.37335 1.35999,0.92268 1.904,1.648 l -0.896,1.072 c -0.064,0.0854 -0.14401,0.15468 -0.24,0.208 -0.096,0.0534 -0.20268,0.08 -0.32,0.08 -0.14935,10e-6 -0.29868,-0.064 -0.448,-0.192 -0.13868,-0.13865 -0.32535,-0.28798 -0.56,-0.448 -0.22401,-0.17065 -0.51201,-0.31998 -0.864,-0.448 -0.34134,-0.13865 -0.78401,-0.20798 -1.328,-0.208 -0.73601,2e-5 -1.43468,0.20268 -2.096,0.608 -0.65067,0.39468 -1.22134,0.93868 -1.712,1.632 -0.49067,0.69335 -0.88001,1.51468 -1.168,2.464 -0.27734,0.94934 -0.416,1.96801 -0.416,3.056 0,0.66134 0.0747,1.26401 0.224,1.808 0.14933,0.53334 0.37333,0.99201 0.672,1.376 0.29866,0.37334 0.66133,0.66667 1.088,0.88 0.43733,0.20267 0.94399,0.304 1.52,0.304 0.47999,0 0.90666,-0.048 1.28,-0.144 0.37332,-0.10666 0.70399,-0.23466 0.992,-0.384 0.28799,-0.14933 0.53866,-0.30933 0.752,-0.48 0.22399,-0.18133 0.42132,-0.34666 0.592,-0.496 0.18132,-0.14933 0.34132,-0.27199 0.48,-0.368 0.14932,-0.10666 0.29865,-0.15999 0.448,-0.16 0.21332,1e-5 0.39465,0.0907 0.544,0.272 l 0.704,0.864 0,0"
         style="font-size:32px;font-style:italic;fill:#4d4d4d;font-family:Lato;-inkscape-font-specification:Lato Italic"
         id="path3324" />
      <path
         d="m 648.00998,769.77703 -1.696,13.872 0.496,0 c 0.21333,10e-6 0.38933,-0.0267 0.528,-0.08 0.13866,-0.064 0.29333,-0.18665 0.464,-0.368 l 5.36,-5.488 c 0.17065,-0.17065 0.33599,-0.30932 0.496,-0.416 0.15999,-0.10665 0.36799,-0.15998 0.624,-0.16 l 2.512,0 -6.256,6.352 c -0.16001,0.17068 -0.32001,0.33068 -0.48,0.48 -0.14934,0.13868 -0.31468,0.26134 -0.496,0.368 0.17066,0.12801 0.31466,0.27734 0.432,0.448 0.11732,0.17068 0.23466,0.35734 0.352,0.56 l 4.864,8 -2.448,0 c -0.23468,0 -0.42668,-0.0427 -0.576,-0.128 -0.13868,-0.0853 -0.26668,-0.22933 -0.384,-0.432 l -4.128,-6.64 c -0.13867,-0.21332 -0.27734,-0.35732 -0.416,-0.432 -0.12801,-0.0747 -0.34134,-0.11199 -0.64,-0.112 l -0.544,0 -0.944,7.744 -2.816,0 2.896,-23.568 2.8,0"
         style="font-size:32px;font-style:italic;fill:#4d4d4d;font-family:Lato;-inkscape-font-specification:Lato Italic"
         id="path3326" />
      <path
         d="m 674.19648,779.72903 c -0.0853,0.12802 -0.17068,0.22402 -0.256,0.288 -0.0853,0.0534 -0.19201,0.08 -0.32,0.08 -0.14935,10e-6 -0.31468,-0.0587 -0.496,-0.176 -0.17068,-0.11732 -0.38401,-0.24532 -0.64,-0.384 -0.24534,-0.14932 -0.54934,-0.28265 -0.912,-0.4 -0.36268,-0.12798 -0.80001,-0.19198 -1.312,-0.192 -0.48001,2e-5 -0.91734,0.0693 -1.312,0.208 -0.39467,0.12802 -0.73601,0.30935 -1.024,0.544 -0.28801,0.23468 -0.51201,0.51201 -0.672,0.832 -0.14934,0.30935 -0.22401,0.64001 -0.224,0.992 -10e-6,0.50135 0.16533,0.90135 0.496,1.2 0.33066,0.29868 0.74666,0.56001 1.248,0.784 0.50133,0.21334 1.03999,0.42134 1.616,0.624 0.58666,0.20268 1.13066,0.45868 1.632,0.768 0.50132,0.30934 0.91732,0.70401 1.248,1.184 0.33065,0.48001 0.49599,1.10401 0.496,1.872 -1e-5,0.74667 -0.14935,1.46134 -0.448,2.144 -0.28801,0.68267 -0.70934,1.28534 -1.264,1.808 -0.54401,0.512 -1.20534,0.92267 -1.984,1.232 -0.76801,0.30933 -1.63201,0.464 -2.592,0.464 -1.03467,0 -1.952,-0.18133 -2.752,-0.544 -0.78934,-0.37333 -1.43467,-0.848 -1.936,-1.424 l 0.704,-1.088 c 0.0853,-0.13866 0.18666,-0.24533 0.304,-0.32 0.11733,-0.0747 0.26666,-0.112 0.448,-0.112 0.17066,0 0.34133,0.0747 0.512,0.224 0.17066,0.14934 0.384,0.32 0.64,0.512 0.256,0.18134 0.576,0.34667 0.96,0.496 0.39466,0.14934 0.89066,0.224 1.488,0.224 0.52266,0 0.99199,-0.08 1.408,-0.24 0.42666,-0.16 0.78399,-0.37333 1.072,-0.64 0.29866,-0.26666 0.52266,-0.576 0.672,-0.928 0.15999,-0.36266 0.23999,-0.74666 0.24,-1.152 -10e-6,-0.54399 -0.16534,-0.97599 -0.496,-1.296 -0.33068,-0.31999 -0.74668,-0.58666 -1.248,-0.8 -0.50134,-0.21332 -1.04001,-0.41066 -1.616,-0.592 -0.57601,-0.19199 -1.11467,-0.43199 -1.616,-0.72 -0.50134,-0.29866 -0.91734,-0.68266 -1.248,-1.152 -0.33067,-0.46932 -0.496,-1.09332 -0.496,-1.872 0,-0.68265 0.13333,-1.33865 0.4,-1.968 0.27733,-0.63998 0.672,-1.20532 1.184,-1.696 0.512,-0.49065 1.13066,-0.87998 1.856,-1.168 0.73599,-0.29865 1.56266,-0.44798 2.48,-0.448 0.97066,2e-5 1.82399,0.16535 2.56,0.496 0.74665,0.32002 1.38665,0.75735 1.92,1.312 l -0.72,1.024"
         style="font-size:32px;font-style:italic;fill:#4d4d4d;font-family:Lato;-inkscape-font-specification:Lato Italic"
         id="path3328" />
      <path
         d="m 682.23398,791.34503 c 0.77866,0 1.48799,-0.21333 2.128,-0.64 0.63999,-0.42666 1.18399,-0.99199 1.632,-1.696 0.44799,-0.71466 0.79465,-1.53599 1.04,-2.464 0.24532,-0.92799 0.36799,-1.89866 0.368,-2.912 -10e-6,-1.49332 -0.29335,-2.61865 -0.88,-3.376 -0.58668,-0.75732 -1.43468,-1.13598 -2.544,-1.136 -0.78934,2e-5 -1.50401,0.21335 -2.144,0.64 -0.62934,0.41601 -1.16801,0.98135 -1.616,1.696 -0.44801,0.70401 -0.79467,1.52001 -1.04,2.448 -0.24534,0.92801 -0.368,1.89868 -0.368,2.912 0,1.49334 0.28799,2.62401 0.864,3.392 0.58666,0.75734 1.43999,1.136 2.56,1.136 m -0.256,2.224 c -0.88534,0 -1.69601,-0.14933 -2.432,-0.448 -0.736,-0.30933 -1.37067,-0.752 -1.904,-1.328 -0.53334,-0.576 -0.94934,-1.28 -1.248,-2.112 -0.29867,-0.83199 -0.448,-1.78133 -0.448,-2.848 0,-1.36532 0.21333,-2.65066 0.64,-3.856 0.42666,-1.20532 1.008,-2.26132 1.744,-3.168 0.74666,-0.90665 1.62133,-1.62132 2.624,-2.144 1.01333,-0.52265 2.10666,-0.78398 3.28,-0.784 0.88532,2e-5 1.69599,0.15468 2.432,0.464 0.73599,0.29868 1.37065,0.73602 1.904,1.312 0.53332,0.57602 0.94932,1.28535 1.248,2.128 0.29865,0.83201 0.44798,1.77601 0.448,2.832 -2e-5,1.35468 -0.21335,2.63468 -0.64,3.84 -0.42668,1.20534 -1.01335,2.26134 -1.76,3.168 -0.73601,0.90667 -1.61068,1.62667 -2.624,2.16 -1.01334,0.52267 -2.10134,0.784 -3.264,0.784"
         style="font-size:32px;font-style:italic;fill:#4d4d4d;font-family:Lato;-inkscape-font-specification:Lato Italic"
         id="path3330" />
      <path
         d="m 698.29648,791.34503 c 0.77866,0 1.48799,-0.21333 2.128,-0.64 0.63999,-0.42666 1.18399,-0.99199 1.632,-1.696 0.44799,-0.71466 0.79465,-1.53599 1.04,-2.464 0.24532,-0.92799 0.36799,-1.89866 0.368,-2.912 -10e-6,-1.49332 -0.29335,-2.61865 -0.88,-3.376 -0.58668,-0.75732 -1.43468,-1.13598 -2.544,-1.136 -0.78934,2e-5 -1.50401,0.21335 -2.144,0.64 -0.62934,0.41601 -1.16801,0.98135 -1.616,1.696 -0.44801,0.70401 -0.79467,1.52001 -1.04,2.448 -0.24534,0.92801 -0.368,1.89868 -0.368,2.912 0,1.49334 0.28799,2.62401 0.864,3.392 0.58666,0.75734 1.43999,1.136 2.56,1.136 m -0.256,2.224 c -0.88534,0 -1.69601,-0.14933 -2.432,-0.448 -0.736,-0.30933 -1.37067,-0.752 -1.904,-1.328 -0.53334,-0.576 -0.94934,-1.28 -1.248,-2.112 -0.29867,-0.83199 -0.448,-1.78133 -0.448,-2.848 0,-1.36532 0.21333,-2.65066 0.64,-3.856 0.42666,-1.20532 1.008,-2.26132 1.744,-3.168 0.74666,-0.90665 1.62133,-1.62132 2.624,-2.144 1.01333,-0.52265 2.10666,-0.78398 3.28,-0.784 0.88532,2e-5 1.69599,0.15468 2.432,0.464 0.73599,0.29868 1.37065,0.73602 1.904,1.312 0.53332,0.57602 0.94932,1.28535 1.248,2.128 0.29865,0.83201 0.44798,1.77601 0.448,2.832 -2e-5,1.35468 -0.21335,2.63468 -0.64,3.84 -0.42668,1.20534 -1.01335,2.26134 -1.76,3.168 -0.73601,0.90667 -1.61068,1.62667 -2.624,2.16 -1.01334,0.52267 -2.10134,0.784 -3.264,0.784"
         style="font-size:32px;font-style:italic;fill:#4d4d4d;font-family:Lato;-inkscape-font-specification:Lato Italic"
         id="path3332" />
      <path
         d="m 708.32698,793.34503 1.936,-16.224 1.424,0 c 0.63999,2e-5 0.95999,0.32002 0.96,0.96 l -0.24,3.136 c 0.86399,-1.42932 1.83466,-2.50665 2.912,-3.232 1.08799,-0.72532 2.21332,-1.08798 3.376,-1.088 1.20532,2e-5 2.13865,0.40535 2.8,1.216 0.67198,0.81068 1.00798,1.99468 1.008,3.552 -2e-5,0.21335 -0.005,0.43201 -0.016,0.656 -0.0107,0.22401 -0.032,0.45868 -0.064,0.704 l -1.216,10.32 -2.848,0 1.216,-10.32 c 0.0213,-0.21332 0.0373,-0.41599 0.048,-0.608 0.0213,-0.20265 0.032,-0.39465 0.032,-0.576 -10e-6,-0.87465 -0.16535,-1.51999 -0.496,-1.936 -0.32001,-0.42665 -0.82668,-0.63998 -1.52,-0.64 -0.51201,2e-5 -1.03468,0.13868 -1.568,0.416 -0.52268,0.27735 -1.02934,0.67201 -1.52,1.184 -0.49067,0.50135 -0.94934,1.11468 -1.376,1.84 -0.41601,0.71468 -0.77334,1.51468 -1.072,2.4 l -0.928,8.24 -2.848,0"
         style="font-size:32px;font-style:italic;fill:#4d4d4d;font-family:Lato;-inkscape-font-specification:Lato Italic"
         id="path3334" />
      <path
         d="m 732.29148,770.41703 -1.12,9.184 c -0.064,0.48002 -0.13334,0.94935 -0.208,1.408 -0.0747,0.44801 -0.15467,0.90135 -0.24,1.36 -0.0853,0.45868 -0.18134,0.93335 -0.288,1.424 -0.10667,0.49068 -0.22401,1.01334 -0.352,1.568 l -1.872,0 c 0.0107,-0.55466 0.0213,-1.07732 0.032,-1.568 0.0213,-0.49065 0.0427,-0.96532 0.064,-1.424 0.032,-0.45865 0.064,-0.91199 0.096,-1.36 0.0427,-0.45865 0.096,-0.92798 0.16,-1.408 l 1.12,-9.184 2.608,0 m -5.744,21.168 c 0,-0.27733 0.048,-0.53866 0.144,-0.784 0.10666,-0.24533 0.24533,-0.45866 0.416,-0.64 0.18133,-0.18133 0.38933,-0.32533 0.624,-0.432 0.24533,-0.10666 0.51199,-0.15999 0.8,-0.16 0.27733,10e-6 0.53866,0.0533 0.784,0.16 0.24533,0.10667 0.45866,0.25067 0.64,0.432 0.18133,0.18134 0.31999,0.39467 0.416,0.64 0.10666,0.24534 0.15999,0.50667 0.16,0.784 -10e-6,0.288 -0.0533,0.55467 -0.16,0.8 -0.096,0.23467 -0.23467,0.44267 -0.416,0.624 -0.18134,0.18134 -0.39467,0.32 -0.64,0.416 -0.24534,0.10667 -0.50667,0.16 -0.784,0.16 -0.28801,0 -0.55467,-0.0533 -0.8,-0.16 -0.23467,-0.096 -0.44267,-0.23466 -0.624,-0.416 -0.17067,-0.18133 -0.30934,-0.38933 -0.416,-0.624 -0.096,-0.24533 -0.144,-0.512 -0.144,-0.8"
         style="font-size:32px;font-style:italic;fill:#4d4d4d;font-family:Lato;-inkscape-font-specification:Lato Italic"
         id="path3336" />
    </g>
  </g>
</svg>
