<?xml version="1.0" encoding="UTF-8" standalone="no"?>
<!-- Created with Inkscape (http://www.inkscape.org/) -->

<svg
   xmlns:dc="http://purl.org/dc/elements/1.1/"
   xmlns:cc="http://creativecommons.org/ns#"
   xmlns:rdf="http://www.w3.org/1999/02/22-rdf-syntax-ns#"
   xmlns:svg="http://www.w3.org/2000/svg"
   xmlns="http://www.w3.org/2000/svg"
   xmlns:sodipodi="http://sodipodi.sourceforge.net/DTD/sodipodi-0.dtd"
   xmlns:inkscape="http://www.inkscape.org/namespaces/inkscape"
   width="3503.0774"
   height="2283.0164"
   id="svg2"
   version="1.1"
   inkscape:version="0.48.2 r9819"
   sodipodi:docname="New document 1">
  <defs
     id="defs4" />
  <sodipodi:namedview
     id="base"
     pagecolor="#ffffff"
     bordercolor="#666666"
     borderopacity="1.0"
     inkscape:pageopacity="0.0"
     inkscape:pageshadow="2"
     inkscape:zoom="0.24748737"
     inkscape:cx="1701.5459"
     inkscape:cy="1012.8428"
     inkscape:document-units="px"
     inkscape:current-layer="layer1"
     showgrid="false"
     fit-margin-top="0"
     fit-margin-left="0"
     fit-margin-right="0"
     fit-margin-bottom="0"
     inkscape:window-width="1680"
     inkscape:window-height="936"
     inkscape:window-x="0"
     inkscape:window-y="0"
     inkscape:window-maximized="1" />
  <metadata
     id="metadata7">
    <rdf:RDF>
      <cc:Work
         rdf:about="">
        <dc:format>image/svg+xml</dc:format>
        <dc:type
           rdf:resource="http://purl.org/dc/dcmitype/StillImage" />
        <dc:title></dc:title>
      </cc:Work>
    </rdf:RDF>
  </metadata>
  <g
     inkscape:label="Layer 1"
     inkscape:groupmode="layer"
     id="layer1"
     transform="translate(1079.5887,-817.00668)">
    <rect
       style="fill:#ffffff;fill-opacity:1;stroke:#808080;stroke-width:2.76675725;stroke-linecap:square;stroke-miterlimit:4.5;stroke-opacity:1;stroke-dasharray:none;stroke-dashoffset:0.39999998"
       id="rect2989"
       width="357.23325"
       height="637.23322"
       x="997.00293"
       y="2059.4768" />
    <rect
       y="2458.8474"
       x="-458.20544"
       height="637.23322"
       width="357.23325"
       id="rect2991"
       style="fill:#ffffff;fill-opacity:1;stroke:#808080;stroke-width:2.76675725;stroke-linecap:square;stroke-miterlimit:4.5;stroke-opacity:1;stroke-dasharray:none;stroke-dashoffset:0.39999998" />
    <rect
       style="fill:#ffffff;fill-opacity:1;stroke:#808080;stroke-width:2.76675725;stroke-linecap:square;stroke-miterlimit:4.5;stroke-opacity:1;stroke-dasharray:none;stroke-dashoffset:0.39999998"
       id="rect2993"
       width="357.23325"
       height="637.23322"
       x="141.79456"
       y="1618.8474" />
    <rect
       y="1618.8474"
       x="-1078.2053"
       height="637.23322"
       width="357.23325"
       id="rect2995"
       style="fill:#ffffff;fill-opacity:1;stroke:#808080;stroke-width:2.76675725;stroke-linecap:square;stroke-miterlimit:4.5;stroke-opacity:1;stroke-dasharray:none;stroke-dashoffset:0.39999998" />
    <rect
       y="1219.4768"
       x="997.00293"
       height="637.23322"
       width="357.23325"
       id="rect2997"
       style="fill:#ffffff;fill-opacity:1;stroke:#808080;stroke-width:2.76675725;stroke-linecap:square;stroke-miterlimit:4.5;stroke-opacity:1;stroke-dasharray:none;stroke-dashoffset:0.39999998" />
    <text
       xml:space="preserve"
       style="font-size:144px;font-style:normal;font-variant:normal;font-weight:normal;font-stretch:normal;line-height:125%;letter-spacing:0px;word-spacing:0px;fill:#000000;fill-opacity:1;stroke:none;font-family:Lato;-inkscape-font-specification:Lato"
       x="-1072.7717"
       y="1585.7228"
       id="text2999"
       sodipodi:linespacing="125%"><tspan
         sodipodi:role="line"
         id="tspan3001"
         x="-1072.7717"
         y="1585.7228">Login</tspan></text>
    <text
       xml:space="preserve"
       style="font-size:144px;font-style:normal;font-variant:normal;font-weight:normal;font-stretch:normal;line-height:125%;letter-spacing:0px;word-spacing:0px;fill:#000000;fill-opacity:1;stroke:none;font-family:Lato;-inkscape-font-specification:Lato"
       x="137.38075"
       y="1593.804"
       id="text3003"
       sodipodi:linespacing="125%"><tspan
         sodipodi:role="line"
         id="tspan3005"
         x="137.38075"
         y="1593.804">Menu</tspan></text>
    <text
       xml:space="preserve"
       style="font-size:144px;font-style:normal;font-variant:normal;font-weight:normal;font-stretch:normal;line-height:125%;letter-spacing:0px;word-spacing:0px;fill:#000000;fill-opacity:1;stroke:none;font-family:Lato;-inkscape-font-specification:Lato"
       x="-722.70068"
       y="2431.2051"
       id="text3007"
       sodipodi:linespacing="125%"><tspan
         sodipodi:role="line"
         id="tspan3009"
         x="-722.70068"
         y="2431.2051">New Account</tspan></text>
    <rect
       style="fill:#ffffff;fill-opacity:1;stroke:#808080;stroke-width:2.76675725;stroke-linecap:square;stroke-miterlimit:4.5;stroke-opacity:1;stroke-dasharray:none;stroke-dashoffset:0.39999998"
       id="rect3027"
       width="357.23325"
       height="637.23322"
       x="1557.0029"
       y="1219.4768" />
    <text
       xml:space="preserve"
       style="font-size:144px;font-style:normal;font-variant:normal;font-weight:normal;font-stretch:normal;line-height:125%;letter-spacing:0px;word-spacing:0px;fill:#000000;fill-opacity:1;stroke:none;font-family:Lato;-inkscape-font-specification:Lato"
       x="721.03577"
       y="1177.621"
       id="text3011"
       sodipodi:linespacing="125%"><tspan
         sodipodi:role="line"
         id="tspan3013"
         x="721.03577"
         y="1177.621">Question(s)</tspan></text>
    <rect
       y="2059.4768"
       x="1557.0029"
       height="637.23322"
       width="357.23325"
       id="rect3029"
       style="fill:#ffffff;fill-opacity:1;stroke:#808080;stroke-width:2.76675725;stroke-linecap:square;stroke-miterlimit:4.5;stroke-opacity:1;stroke-dasharray:none;stroke-dashoffset:0.39999998" />
    <text
       xml:space="preserve"
       style="font-size:144px;font-style:normal;font-variant:normal;font-weight:normal;font-stretch:normal;line-height:125%;letter-spacing:0px;word-spacing:0px;fill:#000000;fill-opacity:1;stroke:none;font-family:Lato;-inkscape-font-specification:Lato"
       x="582.84265"
       y="2009.9868"
       id="text3015"
       sodipodi:linespacing="125%"><tspan
         sodipodi:role="line"
         id="tspan3017"
         x="582.84265"
         y="2009.9868">View Coupons</tspan></text>
    <text
       xml:space="preserve"
       style="font-size:144px;font-style:normal;font-variant:normal;font-weight:normal;font-stretch:normal;line-height:125%;letter-spacing:0px;word-spacing:0px;fill:#000000;fill-opacity:1;stroke:none;font-family:Lato;-inkscape-font-specification:Lato"
       x="1528.5485"
       y="1181.6616"
       id="text3019"
       sodipodi:linespacing="125%"><tspan
         sodipodi:role="line"
         id="tspan3021"
         x="1528.5485"
         y="1181.6616">Results</tspan></text>
    <text
       xml:space="preserve"
       style="font-size:144px;font-style:normal;font-variant:normal;font-weight:normal;font-stretch:normal;line-height:125%;letter-spacing:0px;word-spacing:0px;fill:#000000;fill-opacity:1;stroke:none;font-family:Lato;-inkscape-font-specification:Lato"
       x="1536.4268"
       y="2014.0273"
       id="text3023"
       sodipodi:linespacing="125%"><tspan
         sodipodi:role="line"
         id="tspan3025"
         x="1536.4268"
         y="2014.0273">Coupon(s)</tspan></text>
    <path
       style="fill:#ffffff;fill-opacity:1;stroke:#808080;stroke-width:2;stroke-linecap:square;stroke-miterlimit:4.5;stroke-opacity:1;stroke-dasharray:none;stroke-dashoffset:0.39999998"
       id="path3037"
       d="m 526.23719,1766.5403 c 27.37815,-19.3122 55.30944,-37.7502 82.21603,-57.7246 31.67479,-24.9795 61.13601,-52.5988 90.74992,-79.9473 23.06569,-21.7969 46.16307,-43.4554 70.5472,-63.7766 21.0333,-17.3045 42.34068,-34.2324 64.54794,-50.0078 33.33744,-22.5353 68.82861,-41.6036 103.79685,-61.4611 -20.80903,12.0059 -41.61805,24.0117 -62.42708,36.0176 0.43752,-0.062 0.99707,-0.4947 1.31256,-0.1853 0.75623,0.7416 1.06732,1.8461 1.40485,2.8501 0.22989,0.6837 0.71237,1.5729 0.27504,2.1466 -0.41223,0.5407 -4.97789,0.3263 -6.03498,0.3159 -12.65719,-0.2543 -25.31558,-0.1411 -37.97337,-0.024 -15.14897,0.1992 -30.29047,0.076 -45.41147,-0.8619 -31.29761,-2.9735 -62.45183,-7.2297 -93.55614,-11.7657 -20.61416,-2.9868 -41.26517,-5.9201 -62.06779,-7.1884 -14.27737,-0.5694 -28.53835,2.0759 -42.50698,4.8211 -1.41611,0.4411 -5.48189,2.1468 -4.24835,1.3232 21.20216,-14.1562 42.56407,-28.0888 64.29671,-41.4163 1.49776,-0.9185 10.9265,1.3295 11.31024,1.4006 15.21239,2.8193 9.16946,1.712 26.19885,4.7258 43.53619,8.359 86.69134,18.5496 130.24962,26.7812 34.23484,6.1897 68.91167,9.1016 103.6447,10.2637 9.10492,0.126 9.14874,-0.1296 17.40812,0.8223 8.75095,1.0087 10.41893,3.0176 11.17462,11.7286 -0.65923,1.7808 -1.18756,3.6157 -1.97769,5.3424 -3.86941,8.4561 -9.03438,16.2787 -12.89343,24.7651 -2.29052,5.0371 -7.54267,18.4525 -9.50537,23.3939 -10.42824,25.0175 -17.21103,51.2624 -24.95047,77.1706 -3.96494,14.169 -7.84279,28.1625 -13.81846,41.611 -4.20076,10.4418 -7.22508,21.3209 -10.55027,32.067 -1.96572,26.2426 0.10203,7.5118 -68.16128,28.3533 -2.0944,0.6394 1.53042,-4.1048 2.37624,-6.1247 3.15826,-7.5423 7.30658,-14.5561 11.22834,-21.7163 12.41287,-24.2041 22.70571,-49.3672 33.05649,-74.494 6.40295,-16.4419 11.94403,-33.2634 16.62194,-50.2814 1.37488,-5.6066 0.80915,-2.9016 1.74216,-8.1054 0,0 68.28723,-33.3668 68.28723,-33.3668 l 0,0 c -0.91472,5.7358 -0.39628,2.7384 -1.57889,8.9882 -5.28295,17.4501 -11.35866,34.687 -17.74907,51.7524 -10.56088,24.9539 -20.62452,50.1176 -32.0784,74.6825 -3.40312,7.1375 -7.68427,13.6604 -10.96113,20.8313 -0.84307,1.8449 -0.55824,4.6298 -2.32698,5.6229 -23.13736,12.9904 -47.59381,23.4836 -71.17703,35.6459 -0.49274,0.2541 1.0999,0.1403 1.64986,0.2104 4.95552,-10.2829 7.1269,-21.614 10.83006,-32.3485 2.02598,-5.259 5.09397,-9.9816 7.11875,-15.2016 3.32077,-8.5612 4.68079,-17.8807 8.23317,-26.3742 8.37286,-25.8782 14.63571,-52.4338 24.83682,-77.7133 6.80397,-17.5225 12.73621,-35.7545 23.10422,-51.5776 0.72672,-0.2617 3.07248,-0.2548 2.31482,-0.1047 -3.74654,0.7423 -19.53481,-4.4798 -22.59355,-2.1618 -34.40417,-2.0137 -68.67606,-5.8566 -102.54765,-12.3401 -43.80274,-8.6142 -87.31081,-18.7554 -131.43456,-25.6952 -10.59099,-1.5862 -26.08921,-2.7268 -36.33368,-5.8434 -33.31796,-10.1364 32.91255,-45.01 59.46525,-48.0253 14.43759,-2.2408 29.02714,-4.851 43.68341,-3.3065 20.35402,2.0101 40.48771,5.7562 60.7111,8.7404 31.19797,4.5112 62.48866,8.6396 93.97159,10.539 15.35999,0.3348 30.70837,-0.073 46.07054,-0.038 12.82975,0.021 25.66194,-0.101 38.48928,0.1262 1.95868,0.156 5.93646,0.1621 7.82389,1.3849 1.60882,1.0422 8.04153,7.9096 4.48074,10.0846 -22.24642,13.5889 -45.02272,26.2906 -67.53408,39.4359 -22.3768,12.4262 -53.33275,30.3704 49.81824,-29.1562 2.38978,-1.3791 -4.72226,2.8553 -7.07355,4.299 -4.119,2.5292 -14.57297,9.0393 -18.39881,11.4185 -22.47796,15.436 -43.88617,32.2313 -64.96344,49.5207 -24.73054,20.3321 -48.52675,41.5965 -71.63068,63.7681 -29.63693,27.623 -59.5164,55.0516 -90.81847,80.792 -25.89143,19.661 -52.80556,37.7448 -79.29704,56.5677 0,0 -70.46725,28.0238 -70.46725,28.0238 z"
       inkscape:connector-curvature="0" />
    <path
       style="fill:#ffffff;fill-opacity:1;stroke:#808080;stroke-width:2;stroke-linecap:square;stroke-miterlimit:4.5;stroke-opacity:1;stroke-dasharray:none;stroke-dashoffset:0.39999998"
       id="path3039"
       d="m 606.45123,2126.3922 c 33.26391,25.87 65.88069,52.5229 98.1197,79.6658 35.77812,31.1182 71.86639,61.7667 105.96843,94.731 24.99186,27.0906 49.63864,54.397 76.27056,79.9057 16.66856,15.8482 34.15518,30.9737 53.3358,43.7131 11.12191,8.756 24.53435,15.6044 32.34188,27.7834 0.33327,1.1472 2.64971,7.4423 0.84878,8.6032 -68.61046,44.2264 -49.14178,39.6757 -99.92725,39.653 -52.80928,0.088 -105.56936,-2.1471 -158.31552,-4.4475 -23.83658,-0.9867 -47.67766,-1.8912 -71.52756,-2.491 -11.64389,-0.2928 -23.3483,0.071 -34.92927,-1.2233 -1.09806,-2.138 -5.25863,-5.0292 -3.29417,-6.414 22.27368,-15.7012 46.33941,-28.8321 70.67968,-41.0875 3.62909,-1.8273 8.1134,-0.4641 12.17319,-0.6293 6.12883,-0.2495 12.25989,-0.4448 18.39143,-0.6148 20.19399,-0.5598 29.37589,-0.636 50.10578,-0.9605 46.55045,-2.9287 92.79779,3.028 139.15011,5.7503 8.18033,-0.5781 12.05612,0.1606 19.12136,-3.555 1.87038,-0.9836 6.81758,-4.9573 4.96204,-3.946 -20.42795,11.134 -39.94965,23.9428 -60.75472,34.3551 -1.81268,0.9072 2.22432,-3.4445 2.84651,-5.3737 0.88854,-2.755 1.09147,-5.6857 1.6372,-8.5285 2.50338,-29.2961 1.55561,-58.7606 -0.055,-88.0764 -2.4229,-20.7642 -0.51069,-42.2744 -5.24407,-62.7348 -4.4815,-14.7502 -6.20939,-30.0926 -8.81582,-45.2296 -0.524,-2.3784 -0.99155,-4.77 -1.572,-7.1353 -0.40156,-1.6363 -0.81857,-3.2735 -1.37283,-4.8646 -0.22445,-0.6443 -1.1875,-2.4523 -0.95281,-1.8116 13.30826,36.3288 71.80235,-61.9247 65.90302,-29.8564 1.19971,15.8441 3.70192,31.6612 6.306,47.3485 5.20415,26.3942 10.16563,52.9014 18.4429,78.5304 4.61908,13.8391 2.36312,7.2534 6.74066,19.7663 0,0 -65.65436,36.1158 -65.65436,36.1158 l 0,0 c -3.9215,-12.8058 -1.84781,-6.0907 -6.23096,-20.1422 -8.0052,-25.9908 -13.2179,-52.6939 -19.20698,-79.2038 -3.04022,-15.8366 -5.65683,-31.7751 -8.00504,-47.7187 -4.86109,-30.1119 -3.17318,-9.9798 64.72504,-46.4842 2.98329,-1.604 5.64359,12.3704 5.7263,12.7885 0.49165,2.4851 0.92385,4.9816 1.38577,7.4724 2.61944,14.9764 4.69433,30.0549 9.12917,44.6488 4.60323,21.1587 1.79399,43.2366 4.23506,64.6752 1.5318,29.5455 2.40131,59.1267 1.77459,88.7149 -0.006,0.079 -0.87064,16.6476 -2.04614,17.5091 -6.65719,4.8787 -53.15415,44.6343 -81.91639,45.9221 -3.72692,0.1669 -7.45938,-0.1696 -11.18907,-0.2544 -45.49462,-4.5464 -91.00832,-9.5123 -136.83334,-6.5004 -23.44482,0.7646 -47.08437,1.0377 -70.41719,3.7491 -4.21488,0.4898 -15.8896,4.6874 -12.56309,2.0531 55.13355,-43.6607 74.99504,-21.4922 54.40208,-41.9371 10.67869,1.5506 21.52538,1.7676 32.29081,2.3108 23.392,1.1802 46.78701,2.3021 70.17734,3.5159 53.40351,2.4496 106.87908,4.4062 160.33673,2.3884 5.74375,-0.2465 18.84457,-0.563 25.2899,-1.6165 2.17025,-0.3548 8.20731,-2.962 6.35215,-1.7813 -20.24646,12.8864 -41.57827,24.0212 -61.74255,37.0358 -0.8622,0.5565 1.91421,0.9788 2.93859,0.9178 0.44087,-0.026 0.45712,-0.7558 0.68568,-1.1337 -5.91771,-11.6117 -20.44539,-17.1136 -29.72645,-25.4948 -19.08052,-13.3858 -36.29281,-29.2038 -52.90221,-45.5139 -26.06609,-25.9631 -50.67778,-53.1975 -75.42603,-80.4028 -33.70738,-32.9366 -69.20132,-63.8879 -104.70119,-94.8695 -32.70765,-26.9875 -65.53455,-53.9814 -101.25605,-76.9544 0,0 63.78386,-40.636 63.78386,-40.636 z"
       inkscape:connector-curvature="0" />
    <path
       style="fill:#ffffff;fill-opacity:1;stroke:#808080;stroke-width:2;stroke-linecap:square;stroke-miterlimit:4.5;stroke-opacity:1;stroke-dasharray:none;stroke-dashoffset:0.39999998"
       id="path3041"
       d="m 1433.1149,1510.8799 c 24.0059,0.7038 48.0282,0.5251 72.0416,0.4932 24.0802,1.1698 48.1482,2.5144 72.2477,3.2325 6.707,-1.5042 24.6623,4.7833 29.6126,0.5779 0.5403,-0.4591 0.5666,-1.2999 0.85,-1.9498 -21.2696,13.1426 -42.332,26.6267 -63.8089,39.4278 -0.3549,0.2116 -0.1059,-0.852 -0.3409,-1.1918 -0.7194,-1.04 -1.5541,-2.008 -2.4732,-2.8765 -1.6248,-1.5354 -3.3542,-2.9625 -5.1355,-4.3132 -2.9702,-2.2523 -15.7333,-10.9303 -17.9533,-12.4511 -23.2499,-15.5361 -47.629,-29.1966 -72.223,-42.4538 -34.3367,-19.7505 -20.6083,-10.2699 51.7023,-48.8786 1.4958,-0.7986 2.7397,2.0005 4.0641,3.0592 2.3326,1.8647 4.6028,3.8061 6.9042,5.7092 24.5097,21.0861 48.3536,42.8035 70.9763,65.9014 10.0023,10.6382 18.9452,22.1848 27.6848,33.8593 5.1395,6.8656 9.2315,12.6627 11.9161,20.7802 0.7864,8.0528 -3.4558,12.1236 -10.2258,15.9349 -53.1336,29.9124 -57.4501,35.6244 -98.2062,49.2937 -20.3264,7.0241 -41.5803,13.0646 -60.1214,24.2305 -1.7563,1.0442 -3.5126,2.0884 -5.2689,3.1325 0,0 58.7772,-47.5506 58.7772,-47.5506 l 0,0 c 1.7352,-0.9496 3.4705,-1.8993 5.2057,-2.8489 19.2834,-9.233 39.7229,-15.733 59.9418,-22.5646 4.1811,-1.5101 8.388,-2.9506 12.5434,-4.5304 29.0331,-11.0377 24.453,-13.664 -43.0776,27.8209 -2.1897,1.3452 4.6158,-2.2699 6.9939,-3.2439 1.5441,-0.6324 3.2842,-0.7775 4.7538,-1.5677 0.859,-0.4619 1.3653,-1.3932 2.048,-2.0898 -1.0161,-7.4748 -5.0132,-12.7236 -9.2817,-18.9013 -8.0736,-11.6846 -16.5797,-23.1069 -26.3141,-33.4796 -22.386,-23.0237 -46.1988,-44.5889 -71.777,-64.0459 -2.4131,-1.6239 -4.7722,-3.3311 -7.2392,-4.8718 -1.4256,-0.8904 -5.7651,-1.3969 -4.427,-2.4141 69.0237,-52.4689 42.8008,-53.8458 74.9632,-33.45 24.206,14.1737 48.6192,27.9888 72.2932,43.0549 9.8015,6.2738 22.409,12.3651 29.2805,22.2231 0.877,1.258 3.3411,3.1492 2.1233,4.0812 -20.3955,15.609 -42.5564,28.765 -63.8347,43.1475 -10.5051,-1.3906 -21.1265,-2.2851 -31.7119,-2.7657 -23.8404,-1.1923 -47.6651,-2.8237 -71.5318,-3.3842 -24.4662,-0.033 -48.94,-0.1948 -73.3993,0.4932 0,0 61.4277,-44.6298 61.4277,-44.6298 z"
       inkscape:connector-curvature="0" />
    <path
       style="fill:#ffffff;fill-opacity:1;stroke:#808080;stroke-width:2;stroke-linecap:square;stroke-miterlimit:4.5;stroke-opacity:1;stroke-dasharray:none;stroke-dashoffset:0.39999998"
       id="path3043"
       d="m 1400.3446,2407.8678 c 23.392,0.8543 46.7263,0.6421 70.0623,-1.1663 26.8608,-1.6982 53.3502,-6.3719 79.7922,-11.1353 10.2738,-2.6866 23.2073,-3.2127 32.6824,-8.2729 -21.1392,12.033 -42.2784,24.066 -63.4176,36.099 1.2464,-1.308 2.2327,2.0026 1.4049,2.0534 -2.6531,0.1627 -17.2554,-8.2976 -19.2285,-9.2828 -24.5919,-10.8589 -48.959,-22.2079 -73.4281,-33.3392 -9.5298,-4.5099 -19.015,-9.1589 -28.7366,-13.2515 -4.6036,-1.9379 -8.9483,-3.2006 -12.8984,-6.2647 -13.0085,-30.2453 -6.958,-10.0485 67.0645,-41.867 1.9662,-0.8452 3.9089,1.7439 5.8734,2.5927 11.4424,4.9436 22.2488,10.4702 33.187,16.4706 25.3787,14.896 50.8347,29.6611 75.9975,44.9222 8.6558,5.8077 24.7097,11.0118 24.8954,23.87 0.038,2.6569 -0.995,5.2204 -1.4925,7.8306 -1.7259,3.1365 -3.2436,6.397 -5.1777,9.4095 -5.5599,8.6602 -11.9526,16.7568 -18.0112,25.0757 -11.09,15.2275 -22.3809,30.3063 -33.7249,45.3448 -13.7019,17.3361 -27.3812,34.652 -42.4952,50.7809 -1.3233,1.3958 -2.6466,2.7916 -3.9699,4.1875 0,0 -69.9127,28.9005 -69.9127,28.9005 l 0,0 c 1.4231,-1.3117 2.8461,-2.6235 4.2692,-3.9352 5.4912,-6.011 11.4866,-11.5084 16.8966,-17.5963 9.6491,-10.8581 18.4007,-22.504 27.9831,-33.4194 19.2464,-25.1001 37.7875,-50.7085 55.7622,-76.7277 0.6561,-1.0664 4.0318,-5.1834 3.173,-7.4738 -2.2439,-5.9847 -16.4042,-11.9798 -20.8278,-15.8533 -24.6363,-15.6246 -49.5544,-30.8286 -75.1642,-44.8158 -11.124,-5.5372 -22.0664,-10.947 -33.9752,-14.6169 -1.9155,-0.5902 -7.5092,-0.3713 -5.8312,-1.4674 63.4651,-41.4551 77.5317,-15.5503 60.0069,-42.4219 3.3859,2.3754 7.3251,3.8419 11.0271,5.6228 9.3377,4.4922 18.5281,9.2921 27.8861,13.7434 24.527,11.3682 49.1054,22.6303 74.0608,33.0351 5.5473,2.504 17.0432,6.2734 21.6534,10.5302 23.305,21.5181 -42.6571,73.7794 -62.8281,48.7206 -10.8067,2.3392 -21.5295,5.1309 -32.5326,6.458 -26.29,4.2831 -52.6647,8.1226 -79.2698,9.8434 -24.0694,1.6369 -48.1448,1.7932 -72.2593,2.1014 0,0 61.5035,-44.6849 61.5035,-44.6849 z"
       inkscape:connector-curvature="0" />
    <path
       style="fill:#ffffff;fill-opacity:1;stroke:#808080;stroke-width:2;stroke-linecap:square;stroke-miterlimit:4.5;stroke-opacity:1;stroke-dasharray:none;stroke-dashoffset:0.39999998"
       id="path3045"
       d="m -879.3931,2324.8953 c -0.78813,19.2684 -2.04174,38.5119 -2.90107,57.7776 0,0 -66.63525,33.5043 -66.63525,33.5043 l 0,0 c 1.18153,-18.9116 2.78943,-37.9032 1.96672,-56.8535 0,0 67.5696,-34.4284 67.5696,-34.4284 z"
       inkscape:connector-curvature="0" />
    <path
       style="fill:#ffffff;fill-opacity:1;stroke:#808080;stroke-width:2;stroke-linecap:square;stroke-miterlimit:4.5;stroke-opacity:1;stroke-dasharray:none;stroke-dashoffset:0.39999998"
       id="path3047"
       d="m -899.51271,2465.3075 c -0.7411,15.194 -0.7816,30.4076 -0.86586,45.6155 0,0 -66.00476,33.6311 -66.00476,33.6311 l 0,0 c -0.0831,-14.9137 -0.11195,-29.834 -0.86586,-44.7332 0,0 67.73648,-34.5134 67.73648,-34.5134 z"
       inkscape:connector-curvature="0" />
    <path
       style="fill:#ffffff;fill-opacity:1;stroke:#808080;stroke-width:2;stroke-linecap:square;stroke-miterlimit:4.5;stroke-opacity:1;stroke-dasharray:none;stroke-dashoffset:0.39999998"
       id="path3049"
       d="m -890.04923,2605.3779 c 9.65407,6.2803 19.48057,12.1983 27.9326,20.0713 6.32369,7.1644 6.54751,16.7866 7.09146,25.8409 -0.15065,3.4058 0.26282,6.5681 1.23877,9.7965 0,0 -66.61814,36.7986 -66.61814,36.7986 l 0,0 c -1.47549,-3.9111 -2.62345,-7.5859 -2.13668,-11.8521 -0.13467,-6.9539 0.46662,-15.0588 -4.25295,-20.6897 -7.92781,-7.5869 -17.44496,-13.2185 -26.98949,-18.5356 0,0 63.73443,-41.4299 63.73443,-41.4299 z"
       inkscape:connector-curvature="0" />
    <path
       style="fill:#ffffff;fill-opacity:1;stroke:#808080;stroke-width:2;stroke-linecap:square;stroke-miterlimit:4.5;stroke-opacity:1;stroke-dasharray:none;stroke-dashoffset:0.39999998"
       id="path3051"
       d="m -801.02749,2749.8607 c 14.20688,4.3032 26.93162,11.9172 39.04984,20.3209 6.34497,4.0898 3.33554,1.9487 9.05193,6.3901 0,0 -64.11129,40.4301 -64.11129,40.4301 l 0,0 c -5.33524,-4.0791 -2.47955,-1.996 -8.59846,-6.2062 -11.86571,-8.1521 -24.35111,-14.9391 -38.41643,-18.5133 0,0 63.02441,-42.4216 63.02441,-42.4216 z"
       inkscape:connector-curvature="0" />
    <path
       style="fill:#ffffff;fill-opacity:1;stroke:#808080;stroke-width:2;stroke-linecap:square;stroke-miterlimit:4.5;stroke-opacity:1;stroke-dasharray:none;stroke-dashoffset:0.39999998"
       id="path3053"
       d="m -664.40723,2828.0913 c 8.65357,0.1965 4.07494,0.117 13.7362,0.2203 0,0 -60.897,44.2442 -60.897,44.2442 l 0,0 c -10.01295,0.104 -5.23215,0.026 -14.34263,0.2203 0,0 61.50343,-44.6848 61.50343,-44.6848 z"
       inkscape:connector-curvature="0" />
    <path
       style="fill:#ffffff;fill-opacity:1;stroke:#808080;stroke-width:2;stroke-linecap:square;stroke-miterlimit:4.5;stroke-opacity:1;stroke-dasharray:none;stroke-dashoffset:0.39999998"
       id="path3055"
       d="m -531.0671,2860.4162 c 12.35206,0.3725 24.70995,0.096 37.06436,0.072 8.52238,-0.075 17.04711,0.098 25.56734,-0.1518 0.37774,-0.027 1.45326,-0.2843 1.13323,-0.082 -22.01352,13.9309 -43.19594,29.3521 -66.32609,41.338 -2.08956,1.0828 -3.93978,-2.577 -5.86658,-3.9283 -11.76033,-8.2481 -22.83663,-17.1103 -33.86185,-26.3138 -29.23599,-23.3489 -56.14968,-49.3851 -84.84167,-73.358 -34.25528,-26.948 -30.20002,-15.4335 49.83013,-53.3105 2.35657,-1.1153 4.29085,2.9741 6.29842,4.6375 3.05127,2.5283 5.90782,5.2827 8.86173,7.9241 24.04019,22.1904 46.58526,45.9049 69.70013,69.0385 10.71589,10.3626 21.13589,21.0202 31.67259,31.5609 7.35791,7.3606 12.28326,11.5941 17.44891,20.6219 0.2663,2.3738 1.09044,4.7506 0.79889,7.1214 -1.79289,14.5795 -25.81902,35.2803 -36.11022,44.6202 -20.0945,16.8241 -42.98881,29.6282 -65.21266,43.3176 -15.66056,9.7196 -30.79486,20.3662 -44.09016,33.167 -5.84633,6.0674 -3.08695,3.0536 -8.30477,9.0169 0,0 -69.56161,29.6611 -69.56161,29.6611 l 0,0 c 5.03497,-6.6637 2.31176,-3.3832 8.21035,-9.8074 13.11276,-13.7201 28.30015,-25.075 44.37514,-35.1552 22.15717,-13.8507 45.20783,-26.3071 65.95725,-42.3049 9.9535,-8.4015 19.03959,-16.9357 27.54642,-26.8184 3.27045,-3.7994 6.98933,-7.2994 9.58936,-11.5855 0.67848,-1.1185 0.8162,-2.4858 1.22429,-3.7287 -3.658,-7.8881 -9.28031,-13.1664 -15.22382,-19.498 -10.1344,-10.7962 -20.46004,-21.388 -31.01071,-31.782 -22.96459,-23.0524 -45.18763,-46.9487 -70.17161,-67.8739 -3.00075,-2.237 -5.86558,-4.669 -9.00226,-6.7111 -2.06106,-1.3418 -8.441,-1.8453 -6.54308,-3.4094 66.57917,-54.8678 44.83452,-55.159 76.29241,-27.6899 27.86575,24.7537 54.80374,50.5802 84.39741,73.3267 11.36987,8.7383 22.66288,17.1351 35.0533,24.3852 2.02162,1.1829 7.90941,1.7616 6.18102,3.3424 -50.5117,46.1987 -34.62589,47.4236 -60.16826,45.1228 -8.38038,-0.2673 -16.7668,-0.065 -25.14961,-0.1518 -12.42006,-0.025 -24.84324,-0.2985 -37.26115,0.072 0,0 61.50343,-44.6848 61.50343,-44.6848 z"
       inkscape:connector-curvature="0" />
    <path
       style="fill:#ffffff;fill-opacity:1;stroke:#808080;stroke-width:2;stroke-linecap:square;stroke-miterlimit:4.5;stroke-opacity:1;stroke-dasharray:none;stroke-dashoffset:0.39999998"
       id="path3057"
       d="m -632.08235,1914.9134 c 13.06839,0.2714 26.14145,0.1912 39.21169,0.1291 7.4049,-0.038 3.77722,-0.02 10.88304,-0.054 0,0 -61.29718,44.535 -61.29718,44.535 l 0,0 c -7.00974,-0.034 -3.43178,-0.016 -10.73389,-0.054 -13.18875,-0.063 -26.38008,-0.1375 -39.56709,0.1291 0,0 61.50343,-44.6848 61.50343,-44.6848 z"
       inkscape:connector-curvature="0" />
    <path
       style="fill:#ffffff;fill-opacity:1;stroke:#808080;stroke-width:2;stroke-linecap:square;stroke-miterlimit:4.5;stroke-opacity:1;stroke-dasharray:none;stroke-dashoffset:0.39999998"
       id="path3059"
       d="m -510.86405,1918.954 c 17.70496,2.3503 35.58565,3.0839 53.4211,3.7112 6.57614,0.2212 13.15493,0.3058 19.73408,0.3543 0,0 -61.37456,44.3681 -61.37456,44.3681 l 0,0 c -6.44106,-0.2632 -12.88329,-0.5027 -19.32092,-0.8433 -17.98702,-0.967 -35.96,-2.4101 -53.96313,-2.9054 0,0 61.50343,-44.6849 61.50343,-44.6849 z"
       inkscape:connector-curvature="0" />
    <path
       style="fill:#ffffff;fill-opacity:1;stroke:#808080;stroke-width:2;stroke-linecap:square;stroke-miterlimit:4.5;stroke-opacity:1;stroke-dasharray:none;stroke-dashoffset:0.39999998"
       id="path3061"
       d="m -345.19903,1906.8322 c 11.84349,0.2458 23.69143,0.12 35.53681,0.098 7.98582,-0.054 15.97125,-0.075 23.95724,-0.038 0,0 -61.33611,44.5633 -61.33611,44.5633 l 0,0 c -7.95157,0.037 -15.90258,0.017 -23.85397,-0.038 -11.93561,-0.022 -23.87357,-0.1451 -35.8074,0.098 0,0 61.50343,-44.6848 61.50343,-44.6848 z"
       inkscape:connector-curvature="0" />
    <path
       style="fill:#ffffff;fill-opacity:1;stroke:#808080;stroke-width:2;stroke-linecap:square;stroke-miterlimit:4.5;stroke-opacity:1;stroke-dasharray:none;stroke-dashoffset:0.39999998"
       id="path3063"
       d="m -199.73706,1910.8728 c 10.51447,0.2361 21.03308,0.066 31.54919,0.032 9.15517,0.011 18.31032,0.018 27.46556,0 1.40843,0.277 2.81685,0.554 4.22527,0.831 0,0 -62.03728,43.9167 -62.03728,43.9167 l 0,0 c -1.19709,-0.045 -2.39418,-0.09 -3.59127,-0.1356 -9.15911,-0.014 -18.31813,-0.01 -27.47716,0 -10.54567,-0.035 -21.0936,-0.2029 -31.63774,0.032 0,0 61.50343,-44.6848 61.50343,-44.6848 z"
       inkscape:connector-curvature="0" />
    <path
       style="fill:#ffffff;fill-opacity:1;stroke:#808080;stroke-width:2;stroke-linecap:square;stroke-miterlimit:4.5;stroke-opacity:1;stroke-dasharray:none;stroke-dashoffset:0.39999998"
       id="path3065"
       d="m -25.302448,1911.7264 c 18.0416768,2.1165 35.883926,5.5984 53.847561,8.2778 11.23362,1.39 5.815618,0.7764 16.251308,1.8647 0,0 -61.462402,43.5351 -61.462402,43.5351 l 0,0 c -10.286505,-1.4176 -4.915303,-0.6579 -16.112079,-2.2899 -18.068985,-2.984 -36.138342,-6.2386 -54.437919,-7.4434 0,0 61.913531,-43.9443 61.913531,-43.9443 z"
       inkscape:connector-curvature="0" />
    <path
       style="fill:#ffffff;fill-opacity:1;stroke:#808080;stroke-width:2;stroke-linecap:square;stroke-miterlimit:4.5;stroke-opacity:1;stroke-dasharray:none;stroke-dashoffset:0.39999998"
       id="path3067"
       d="m 127.55236,1922.9946 c 11.99148,-0.6784 23.54787,-3.9403 35.26814,-6.2879 -3.46181,2.8354 9.73259,-4.4202 7.41229,-3.0863 -21.14626,12.1565 -42.63222,23.7319 -63.52536,36.3185 -0.49738,0.2997 1.34006,1.7554 1.2838,1.1775 -0.0706,-0.7251 -0.84076,-1.1955 -1.33744,-1.7284 -1.5481,-1.6609 -3.19244,-3.2295 -4.78866,-4.8442 -26.797796,-19.9799 -53.504194,-40.0404 -79.763005,-60.7427 -22.47815926,-17.7631 -45.015047,-35.5729 -69.514463,-50.4917 -12.510496,-7.67 -24.771248,-15.702 -37.30302,-23.3451 -1.610023,-1.0869 -6.158279,-3.8584 -7.57331,-5.7585 -15.673072,-21.0452 41.501073,-32.6241 64.794702,-44.7052 1.976881,-1.0253 3.712954,2.4605 5.542675,3.7299 2.599417,1.8034 5.162532,3.6586 7.743798,5.4879 21.6903605,17.2399 38.152214,39.9706 55.561447,61.2626 11.72103,14.3351 26.258349,31.5408 38.145662,45.6901 6.309464,7.3158 12.616815,14.6333 18.928393,21.9473 15.403331,17.8495 16.510261,19.5971 31.976311,35.7981 9.48097,9.9315 19.3097,19.2503 28.16464,29.748 7.1193,10.6074 5.1308,18.1453 -6.08103,24.8004 -24.60214,14.6032 -49.63495,28.4684 -74.411494,42.7737 -16.888104,9.7507 33.830744,-19.4067 50.746114,-29.11 -28.03449,15.6283 -51.469297,37.2095 -73.935253,59.7941 -15.140861,16.795 -31.039074,32.9518 -45.4940379,50.352 -5.8365718,8.5815 -13.4283574,15.1979 -21.5233061,21.5014 -0.05452,-3.3417 -3.55646,4.4901 -4.665458,3.0087 -5.660851,-7.5616 1.818174,-9.1905 7.1671814,-11.867 3.1435036,-1.5728 6.2093617,-3.2964 9.31404255,-4.9445 -17.30772395,9.8244 -34.31328995,20.2014 -51.92317195,29.4734 -4.86987,2.5641 9.174969,-6.0867 13.63366,-9.3132 19.432042,-14.0618 37.0927775,-29.9547 54.131946,-46.7795 15.786155,-15.4653 31.159407,-31.3244 47.005926,-46.7263 1.393694,-1.3785 2.787387,-2.7571 4.181081,-4.1356 0,0 69.95307,-28.7324 69.95307,-28.7324 l 0,0 c -1.48019,1.3295 -2.96037,2.659 -4.44056,3.9885 -5.8157,6.0095 -12.15288,11.3473 -18.1441,17.1811 -10.3197,10.0486 -20.101254,20.6544 -30.779335,30.3388 -41.67401,42.4545 -87.4427671,75.2762 -141.901444,101.3665 -2.394909,1.1539 -14.045757,7.134 -17.793212,7.7729 -8.643047,1.4737 -14.626899,-8.1821 -6.250089,-12.7512 8.446142,-5.5976 16.846896,-11.518 22.661377,-19.9852 3.643714,-4.1965 6.993797,-8.6462 10.719877,-12.7697 11.796463,-13.0545 24.742675,-25.1134 35.990218,-38.69 22.3423651,-22.8723 45.251357,-45.3268 73.126224,-61.5125 182.842814,-106.1168 39.052878,-22.7473 22.660744,-12.9782 -2.371809,1.4136 4.891053,-2.5673 7.389428,-3.7427 1.055068,-0.4964 6.836408,-1.7018 6.618858,-4.7144 -0.13626,-1.887 -1.494995,-3.4758 -2.242493,-5.2137 -8.006659,-10.7926 -17.060883,-20.4724 -25.910447,-30.5849 -20.435012,-23.3515 -9.277668,-10.828 -30.902622,-36.641 -6.205573,-7.4074 -12.503142,-14.7372 -18.754713,-22.1058 -32.529649,-38.3507 -6.501834,-7.7275 -38.695626,-45.4377 -17.510194,-20.5106 -34.575082,-42.2798 -57.254136,-57.4037 -2.594557,-1.3722 -5.038962,-3.0767 -7.783671,-4.1165 -1.183793,-0.4485 -4.824595,0.4597 -3.788254,-0.2673 80.3074302,-56.3335 42.66031,-53.4865 67.482554,-35.8841 12.3410724,7.8936 24.9535524,15.3648 37.026083,23.6739 23.5984,16.2606 45.818881,34.3542 68.327243,52.0711 14.706346,11.666 29.360576,23.3484 44.661906,34.2353 36.58439,26.03 -5.96448,-4.6775 27.73923,18.9097 3.25933,2.281 6.39762,4.7303 9.59643,7.0955 0.88648,0.8316 14.74103,13.7091 11.34637,16.0282 -33.888,23.151 -45.75179,35.1941 -74.98329,41.3603 -11.99801,2.4548 -24.048276,4.9325 -36.341849,5.1966 0,0 61.503429,-44.6849 61.503429,-44.6849 z"
       inkscape:connector-curvature="0" />
    <path
       style="fill:#ffffff;fill-opacity:1;stroke:#808080;stroke-width:2;stroke-linecap:square;stroke-miterlimit:4.5;stroke-opacity:1;stroke-dasharray:none;stroke-dashoffset:0.39999998"
       id="path3069"
       d="m 2007.327,1514.948 c 21.682,1.7147 42.3521,-4.6654 62.8904,-10.6056 30.6965,-8.6096 96.9794,-49.7117 -19.4996,17.03 0,0 70.4676,-27.1216 70.4676,-27.1216 l 0,0 c -36.8736,21.2241 -69.4429,44.472 -110.0442,55.5334 -21.3667,5.8134 -42.839,10.5931 -65.1661,9.7386 0,0 61.3519,-44.5748 61.3519,-44.5748 z"
       inkscape:connector-curvature="0" />
    <path
       style="fill:#ffffff;fill-opacity:1;stroke:#808080;stroke-width:2;stroke-linecap:square;stroke-miterlimit:4.5;stroke-opacity:1;stroke-dasharray:none;stroke-dashoffset:0.39999998"
       id="path3071"
       d="m 2111.9697,1449.1865 c 4.2295,-20.4692 10.7204,-40.3478 15.133,-60.7938 2.5478,-14.4269 7.8666,-28.0609 12.1084,-42.0093 0,0 68.2072,-32.3364 68.2072,-32.3364 l 0,0 c -3.9834,14.0755 -9.6203,27.5993 -13.0239,41.8581 -4.3935,19.9748 -10.5308,39.5352 -14.2695,59.6155 0,0 -68.1552,33.6659 -68.1552,33.6659 z"
       inkscape:connector-curvature="0" />
    <path
       style="fill:#ffffff;fill-opacity:1;stroke:#808080;stroke-width:2;stroke-linecap:square;stroke-miterlimit:4.5;stroke-opacity:1;stroke-dasharray:none;stroke-dashoffset:0.39999998"
       id="path3073"
       d="m 2130.3301,1191.542 c -11.2616,-9.4043 -20.4088,-20.8011 -29.5327,-32.1796 -8.7961,-12.3352 -16.9274,-25.136 -25.3331,-37.7429 0,0 64.1347,-37.602 64.1347,-37.602 l 0,0 c 8.3542,12.4011 16.5653,24.9576 25.8248,36.7039 8.732,10.8645 17.4938,21.9693 29.0137,30.0643 0,0 -64.1074,40.7563 -64.1074,40.7563 z"
       inkscape:connector-curvature="0" />
    <path
       style="fill:#ffffff;fill-opacity:1;stroke:#808080;stroke-width:2;stroke-linecap:square;stroke-miterlimit:4.5;stroke-opacity:1;stroke-dasharray:none;stroke-dashoffset:0.39999998"
       id="path3075"
       d="m 1951.2953,1031.1823 c -26.9992,-11.1608 -53.4409,-23.5898 -80.4974,-34.63977 -27.8066,-11.93932 -56.9993,-19.74001 -86.1538,-27.5324 0,0 61.2905,-42.04437 61.2905,-42.04437 l 0,0 c 29.0306,8.352 58.0877,16.6403 85.8305,28.79454 27.3705,11.16774 54.1726,23.81104 82.2668,33.10295 0,0 -62.7366,42.31905 -62.7366,42.31905 z"
       inkscape:connector-curvature="0" />
    <path
       style="fill:#ffffff;fill-opacity:1;stroke:#808080;stroke-width:2;stroke-linecap:square;stroke-miterlimit:4.5;stroke-opacity:1;stroke-dasharray:none;stroke-dashoffset:0.39999998"
       id="path3077"
       d="m 1585.6664,949.4457 c -23.254,-0.51626 -46.5185,-0.6135 -69.7781,-0.65342 -22.4349,0.0698 -44.8018,0.85948 -67.1718,-1.00055 -6.9093,-1.05697 -13.7592,-2.44576 -20.6046,-3.84664 0,0 62.1188,-43.19951 62.1188,-43.19951 l 0,0 c 6.4861,1.39375 12.9877,2.75518 19.6068,3.36822 21.8802,1.62127 43.8298,1.09337 65.7555,1.30046 23.8593,-0.0408 47.7227,-0.1486 71.5768,-0.65342 0,0 -61.5034,44.68486 -61.5034,44.68486 z"
       inkscape:connector-curvature="0" />
    <path
       style="fill:#ffffff;fill-opacity:1;stroke:#808080;stroke-width:2;stroke-linecap:square;stroke-miterlimit:4.5;stroke-opacity:1;stroke-dasharray:none;stroke-dashoffset:0.39999998"
       id="path3079"
       d="m 1290.7018,913.0802 c -22.8144,-0.58639 -45.6411,-0.53655 -68.4616,-0.59373 -24.9657,-0.14734 -49.9316,-0.11913 -74.8968,0.0737 0,0 60.0719,-43.64481 60.0719,-43.64481 l 0,0 c 24.8976,0.19649 49.7959,0.21821 74.6939,0.0737 23.3655,-0.0581 46.7363,-0.0197 70.096,-0.59373 0,0 -61.5034,44.68485 -61.5034,44.68485 z"
       inkscape:connector-curvature="0" />
    <path
       style="fill:#ffffff;fill-opacity:1;stroke:#808080;stroke-width:2;stroke-linecap:square;stroke-miterlimit:4.5;stroke-opacity:1;stroke-dasharray:none;stroke-dashoffset:0.39999998"
       id="path3081"
       d="m 974.64332,917.06577 c -30.47492,-0.82384 -60.96929,-0.73572 -91.4535,-0.81208 -35.35196,0.19361 -70.53852,3.6505 -105.76515,6.20521 -10.54913,0.96277 -20.9429,2.38136 -31.24734,4.78781 0,0 59.95708,-45.32415 59.95708,-45.32415 l 0,0 c 10.23005,-1.53966 20.4963,-2.69041 30.82755,-3.34024 35.09087,-2.2208 70.15621,-5.15995 105.3443,-5.27924 31.22956,-0.0777 62.46804,-0.006 93.68894,-0.81208 0,0 -61.35188,44.57477 -61.35188,44.57477 z"
       inkscape:connector-curvature="0" />
    <path
       style="fill:#ffffff;fill-opacity:1;stroke:#808080;stroke-width:2;stroke-linecap:square;stroke-miterlimit:4.5;stroke-opacity:1;stroke-dasharray:none;stroke-dashoffset:0.39999998"
       id="path3083"
       d="m 559.35137,957.52692 c -22.71009,-1.35005 -45.26586,0.34593 -67.78834,3.16333 -24.57941,2.71135 -49.00066,6.90079 -73.10743,12.3844 0,0 59.20698,-44.93912 59.20698,-44.93912 l 0,0 c 24.20194,-4.77228 48.55246,-8.81591 73.079,-11.52955 23.31451,-2.67741 46.64125,-3.91627 70.11322,-3.76392 0,0 -61.50343,44.68486 -61.50343,44.68486 z"
       inkscape:connector-curvature="0" />
    <path
       style="fill:#ffffff;fill-opacity:1;stroke:#808080;stroke-width:2;stroke-linecap:square;stroke-miterlimit:4.5;stroke-opacity:1;stroke-dasharray:none;stroke-dashoffset:0.39999998"
       id="path3085"
       d="m 380.79621,1051.9337 c -4.45605,13.8908 -9.14368,27.6596 -12.2717,41.923 -2.18045,11.7018 -3.73181,23.5233 -5.28543,35.325 -1.71639,20.4287 -2.75486,40.9075 -4.21101,61.3622 0,0 -66.97353,33.4496 -66.97353,33.4496 l 0,0 c 1.83345,-20.4221 3.05006,-40.8469 3.67308,-61.3423 1.07935,-12.0719 2.68761,-24.1305 4.90431,-36.0339 3.12971,-14.1771 7.00953,-28.0796 11.6235,-41.8497 0,0 68.54078,-32.8339 68.54078,-32.8339 z"
       inkscape:connector-curvature="0" />
    <path
       style="fill:#ffffff;fill-opacity:1;stroke:#808080;stroke-width:2;stroke-linecap:square;stroke-miterlimit:4.5;stroke-opacity:1;stroke-dasharray:none;stroke-dashoffset:0.39999998"
       id="path3087"
       d="m 356.99189,1274.8412 c -0.92394,22.0968 -0.55953,44.2208 -0.42554,66.3294 0.47659,13.6669 -0.19563,27.3947 0.73636,41.0408 4.43464,38.5882 1.08067,26.2354 -68.28265,57.3786 -4.05637,1.8212 -8.44132,-2.8218 -12.54733,-4.5282 -6.17435,-2.5659 -12.18039,-5.5195 -18.27058,-8.2792 -56.26441,-27.5559 -103.95876,-68.574 -150.46172,-109.8583 -15.581633,-14.8298 -31.532692,-29.3135 -46.871358,-44.3991 -2.819541,-2.773 -5.665119,-5.5351 -8.230129,-8.5451 -1.4396,-1.6894 -5.486311,-4.1313 -3.744001,-5.5064 20.452437,-16.1411 43.500078,-28.6897 65.250118,-43.0345 36.4055,25.9286 71.97254,53.0137 106.76232,81.0646 34.47708,28.2429 69.32605,56.0219 105.81868,81.6257 3.02562,1.7258 5.8447,3.879 9.07687,5.1774 17.71793,7.1175 42.13913,-6.0104 57.90265,-12.8264 5.69153,-2.9522 22.572,-12.1562 17.07459,-8.8566 -14.22142,8.5359 -28.28597,17.4563 -43.26612,24.5771 -7.53589,3.5821 13.97054,-9.132 20.81462,-13.9049 20.64723,-14.3987 40.63019,-29.8142 60.65268,-45.0594 14.15038,-11.2328 29.05798,-21.5361 42.5948,-33.5348 0.33019,-0.2927 10.54524,-11.1547 11.94958,-12.0223 -0.29489,2.8604 -3.56791,9.6154 -0.88467,8.5813 18.36171,-7.0762 33.67435,-20.6834 51.85086,-28.2226 7.82301,-3.2448 -13.63443,10.0515 -20.38199,15.17 -27.81153,21.097 -54.94625,43.0615 -82.43338,64.5763 -21.79831,16.9304 -43.45244,34.0443 -65.0725,51.2011 0,0 -67.20425,26.8858 -67.20425,26.8858 l 0,0 c 22.48944,-17.3643 44.95964,-34.7535 67.42516,-52.1487 48.50455,-37.8129 7.95888,-5.9367 55.47675,-44.0393 8.27579,-6.636 16.60056,-13.2107 24.91601,-19.7969 6.18927,-4.9022 11.94346,-10.4193 18.59806,-14.6684 24.98561,-15.9538 49.54071,-32.8905 76.19746,-45.8606 3.13874,-1.5272 6.42457,2.7314 9.63685,4.0971 0.15624,1.6713 1.02776,3.4311 0.46873,5.0138 -1.23241,3.4892 -10.30567,11.9969 -11.96271,13.5021 -13.87772,12.606 -29.57847,22.9097 -44.20842,34.5796 -24.68598,18.7827 -14.48934,11.1279 -40.07423,30.1618 -6.94856,5.1693 -33.00682,24.7936 -40.71475,29.4445 -26.82812,16.1881 -54.0571,31.7086 -81.3591,47.084 -5.74906,3.2376 -11.84109,5.8244 -17.76164,8.7366 -16.45726,6.6737 -35.01706,15.718 -53.36892,11.5158 -8.44253,-1.9331 -11.57879,-4.961 -18.67623,-9.6641 -34.65522,-27.5073 -68.95184,-55.4467 -103.05894,-83.6312 -22.39003,-17.573 -44.9987,-34.7426 -68.447751,-50.8949 -4.750386,-3.2721 -24.716179,-16.7987 -31.75427,-19.9144 -2.117802,-0.9375 -4.566923,-0.7741 -6.850384,-1.1612 20.190186,-13.8304 39.485028,-29.0684 60.570555,-41.4911 1.44985,-0.8542 1.00065,3.2674 1.95124,4.6559 2.12336,3.1017 4.67481,5.8934 7.18567,8.6906 14.1486,15.7623 29.37905,30.5943 44.45776,45.445 45.6381,41.5756 93.12496,82.5354 150.71372,106.6687 6.28401,2.1643 12.39549,4.9161 18.85203,6.4928 3.72026,0.9085 14.38338,-1.5577 11.45285,0.9076 -17.81507,14.9868 -38.85387,25.6575 -58.2808,38.4862 0.25547,-1.3225 0.75014,-2.6207 0.76641,-3.9676 0.0445,-3.6809 -1.49661,-7.2711 -1.38934,-10.9558 -1.44969,-13.9522 0.0704,-28.0343 -0.23029,-42.0366 0.1323,-21.9638 0.50801,-43.9441 -0.42554,-65.8957 0,0 67.48615,-34.3859 67.48615,-34.3859 z"
       inkscape:connector-curvature="0" />
    <path
       style="fill:#ffffff;fill-opacity:1;stroke:#808080;stroke-width:2;stroke-linecap:square;stroke-miterlimit:4.5;stroke-opacity:1;stroke-dasharray:none;stroke-dashoffset:0.39999998"
       id="path3089"
       d="m 1998.6279,2352.1684 c 14.1111,1.7945 27.7262,6.2849 41.3243,10.3121 8.8208,3.0529 17.2871,6.975 25.6776,11.0353 0,0 -63.2082,41.8095 -63.2082,41.8095 l 0,0 c -8.1298,-3.704 -16.1559,-7.7161 -24.7291,-10.3253 -13.4278,-4.0777 -27.0417,-7.9781 -41.1141,-8.9183 0,0 62.0495,-43.9133 62.0495,-43.9133 z"
       inkscape:connector-curvature="0" />
    <path
       style="fill:#ffffff;fill-opacity:1;stroke:#808080;stroke-width:2;stroke-linecap:square;stroke-miterlimit:4.5;stroke-opacity:1;stroke-dasharray:none;stroke-dashoffset:0.39999998"
       id="path3091"
       d="m 2106.7013,2457.2262 c -0.4117,13.7433 -0.4834,27.4936 -0.5089,41.2421 0,0 -66.7187,33.9949 -66.7187,33.9949 l 0,0 c -0.025,-13.5757 -0.092,-27.1533 -0.5089,-40.7235 0,0 67.7365,-34.5135 67.7365,-34.5135 z"
       inkscape:connector-curvature="0" />
    <path
       style="fill:#ffffff;fill-opacity:1;stroke:#808080;stroke-width:2;stroke-linecap:square;stroke-miterlimit:4.5;stroke-opacity:1;stroke-dasharray:none;stroke-dashoffset:0.39999998"
       id="path3105"
       d="m 2131.4686,2589.7474 c 3.1291,13.0266 7.1678,25.6672 12.6696,37.8761 0,0 -65.5636,36.8873 -65.5636,36.8873 l 0,0 c -5.3746,-12.645 -9.5687,-25.6023 -13.9565,-38.612 0,0 66.8505,-36.1514 66.8505,-36.1514 z"
       inkscape:connector-curvature="0" />
    <path
       style="fill:#ffffff;fill-opacity:1;stroke:#808080;stroke-width:2;stroke-linecap:square;stroke-miterlimit:4.5;stroke-opacity:1;stroke-dasharray:none;stroke-dashoffset:0.39999998"
       id="path3107"
       d="m 2155.1469,2768.8578 c -1.3485,21.4229 -4.5411,42.6443 -8.3584,63.7477 -2.7973,13.0733 -6.5577,25.9053 -9.3781,38.9723 0,0 -68.0925,32.9011 -68.0925,32.9011 l 0,0 c 2.8307,-13.2678 6.9555,-26.1771 10.4236,-39.2851 4.0821,-20.4106 7.4135,-41.0063 7.7523,-61.8651 0,0 67.6531,-34.4709 67.6531,-34.4709 z"
       inkscape:connector-curvature="0" />
    <path
       style="fill:#ffffff;fill-opacity:1;stroke:#808080;stroke-width:2;stroke-linecap:square;stroke-miterlimit:4.5;stroke-opacity:1;stroke-dasharray:none;stroke-dashoffset:0.39999998"
       id="path3109"
       d="m 2006.1961,2984.2576 c -16.5257,5.4546 -31.854,13.8018 -46.8942,22.4324 109.9235,-61.439 60.3735,-36.6216 37.1784,-20.2606 0,0 -70.2826,27.9299 -70.2826,27.9299 l 0,0 c 28.0448,-22.0873 62.6449,-33.9923 91.5564,-54.8463 15.5997,-8.3946 31.4512,-16.3642 48.3662,-21.8103 0,0 -59.9242,46.5549 -59.9242,46.5549 z"
       inkscape:connector-curvature="0" />
    <path
       style="fill:#ffffff;fill-opacity:1;stroke:#808080;stroke-width:2;stroke-linecap:square;stroke-miterlimit:4.5;stroke-opacity:1;stroke-dasharray:none;stroke-dashoffset:0.39999998"
       id="path3111"
       d="m 1771.089,3054.5761 c -23.8678,-0.942 -47.5417,3.6273 -70.6957,8.9224 -21.7232,4.9119 -43.1026,11.8554 -63.3997,21.0521 -12.2777,5.0772 -6.182,2.5329 -18.2877,7.6317 0,0 58.7807,-46.3835 58.7807,-46.3835 l 0,0 c 12.0671,-5.0468 6.0057,-2.502 18.1837,-7.6351 20.589,-8.404 41.9153,-15.0609 63.7238,-19.4886 24.0925,-4.9484 48.4469,-8.8462 73.1225,-8.7288 0,0 -61.4276,44.6298 -61.4276,44.6298 z"
       inkscape:connector-curvature="0" />
    <path
       style="fill:#ffffff;fill-opacity:1;stroke:#808080;stroke-width:2;stroke-linecap:square;stroke-miterlimit:4.5;stroke-opacity:1;stroke-dasharray:none;stroke-dashoffset:0.39999998"
       id="path3113"
       d="m 1496.7729,3082.8879 c -19.8373,-2.0125 -39.6968,-3.8569 -59.5488,-5.8097 -16.8455,-0.5577 -31.4492,-7.0868 -45.0689,-16.5081 -2.1019,-1.3412 -4.2038,-2.6824 -6.3057,-4.0236 0,0 63.3699,-40.7001 63.3699,-40.7001 l 0,0 c 2.1088,1.3816 4.2176,2.7633 6.3264,4.1449 13.0183,8.3694 27.1658,12.8214 42.6863,13.7451 19.94,2.2973 39.9615,4.1891 60.0443,4.4666 0,0 -61.5035,44.6849 -61.5035,44.6849 z"
       inkscape:connector-curvature="0" />
    <path
       style="fill:#ffffff;fill-opacity:1;stroke:#808080;stroke-width:2;stroke-linecap:square;stroke-miterlimit:4.5;stroke-opacity:1;stroke-dasharray:none;stroke-dashoffset:0.39999998"
       id="path3115"
       d="m 1270.1902,2958.2872 c -6.6,-16.9717 -16.0141,-32.5578 -24.9735,-48.3354 -6.4593,-12.8305 -14.5486,-24.6981 -21.1252,-37.459 -7.213,-14.2167 -15.7448,-27.5273 -25.8938,-39.8017 -1.629,-1.6257 -3.1537,-3.363 -4.887,-4.877 -0.095,-0.083 -5.1229,-4.4224 -6.7535,-3.5458 -0.8308,0.4466 -1.7364,3.1185 -0.8999,2.6827 63.4056,-33.0365 73.684,-56.9381 60.2243,-29.2964 -7.8796,24.1126 -10.7686,49.499 -14.2537,74.5256 -2.4835,22.0743 -6.5571,43.9036 -10.2486,65.7909 -5.453,34.4571 1.5943,18.6043 -70.4411,41.6682 -2.4478,0.7837 0.5566,-5.1107 0.886,-7.6598 0.4694,-3.6332 1.0069,-7.2573 1.5103,-10.8859 5.4637,-37.4886 9.4571,-75.1608 15.0847,-112.6259 3.3167,-21.2563 6.1215,-43.7058 18.6051,-61.8108 23.32,-13.7647 45.9842,-28.7064 69.96,-41.2942 3.5479,-1.8627 20.2731,1.1859 22.1216,1.6058 19.2473,4.3717 37.6193,12.4694 55.8547,19.7813 34.9103,14.7086 68.8026,31.718 103.8071,46.2077 16.6631,6.6944 34.5864,9.3561 51.5652,14.9521 31.7286,13.4741 -41.7522,38.2052 -58.3319,48.6202 -1.7481,1.0981 -4.1063,-0.4723 -6.1696,-0.5409 -22.4863,-0.7477 4.914,1.3123 -22.2411,-1.1088 -26.6776,-1.3449 -52.5165,-7.5411 -78.0926,-14.7701 0,0 61.6234,-42.1751 61.6234,-42.1751 l 0,0 c 25.0547,7.4076 50.5968,12.8315 76.8277,13.575 7.6972,0.1239 14.9683,0.6877 22.5764,-0.6991 1.8122,-0.3303 6.6807,-2.9614 5.203,-1.8618 -59.8261,44.5163 -37.7118,52.0819 -64.0162,41.5564 -16.9242,-5.2497 -34.1446,-9.6844 -50.5288,-16.5358 -34.2214,-15.4419 -67.6708,-32.6167 -102.4597,-46.7859 -18.125,-6.8563 -36.6247,-14.7535 -56.0841,-16.9983 -4.0956,-0.4725 -8.2752,-0.5394 -12.3681,-0.044 -2.8295,0.3421 -10.558,4.0809 -8.1682,2.5278 19.1294,-12.4327 39.0838,-23.5475 58.6257,-35.3212 -1.475,1.2425 -3.1753,2.2586 -4.425,3.7275 -12.6814,14.9049 -14.084,37.2362 -18.3209,55.2793 -6.215,36.98 -9.9971,74.2644 -13.7465,111.5637 -0.2803,3.5398 -0.5077,7.084 -0.8408,10.6192 -0.2035,2.1594 1.0697,5.3106 -0.7688,6.4615 -22.0098,13.7785 -45.709,24.6538 -68.5792,36.9515 -0.418,0.2247 1.0058,-0.309 1.2209,-0.732 0.7689,-1.5111 2.4854,-9.8289 2.6051,-10.3628 4.2445,-21.9038 8.599,-43.7885 11.2601,-65.96 3.5937,-25.1594 6.5727,-50.4868 12.4024,-75.2522 0.5473,-2.3396 -0.3173,-5.6277 1.6418,-7.019 14.2354,-10.1098 45.8728,-54.2909 70.9166,-40.2314 5.0414,2.8303 8.7495,7.4674 12.5278,11.6969 10.3537,12.7844 19.4257,26.3811 27.0017,41.0117 6.446,12.7131 14.7275,24.4175 20.5048,37.4972 8.7774,15.9903 18.3112,31.5682 26.0486,48.1165 0,0 -65.9872,37.5721 -65.9872,37.5721 z"
       inkscape:connector-curvature="0" />
    <path
       style="fill:#ffffff;fill-opacity:1;stroke:#808080;stroke-width:2;stroke-linecap:square;stroke-miterlimit:4.5;stroke-opacity:1;stroke-dasharray:none;stroke-dashoffset:0.39999998"
       id="path3117"
       d="m 1095.4626,2781.7736 c -6.0936,9.9964 -10.7043,20.7888 -16.5325,30.9239 0,0 -69.3447,30.8469 -69.3447,30.8469 l 0,0 c 5.9093,-10.044 11.5965,-20.1892 16.4464,-30.8211 0,0 69.4308,-30.9497 69.4308,-30.9497 z"
       inkscape:connector-curvature="0" />
    <path
       style="fill:#ffffff;fill-opacity:1;stroke:#808080;stroke-width:2;stroke-linecap:square;stroke-miterlimit:4.5;stroke-opacity:1;stroke-dasharray:none;stroke-dashoffset:0.39999998"
       id="path3119"
       d="m 1038.894,2927.2356 c -5.3766,8.5969 -10.0282,17.5956 -14.4587,26.7052 0,0 -68.59923,31.1223 -68.59923,31.1223 l 0,0 c 4.40519,-9.0308 8.82591,-18.0483 13.62714,-26.8779 0,0 69.43079,-30.9496 69.43079,-30.9496 z"
       inkscape:connector-curvature="0" />
    <path
       style="fill:#ffffff;fill-opacity:1;stroke:#808080;stroke-width:2;stroke-linecap:square;stroke-miterlimit:4.5;stroke-opacity:1;stroke-dasharray:none;stroke-dashoffset:0.39999998"
       id="path3121"
       d="m 882.40562,3083.6806 c -12.08345,0.8869 -23.20338,6.4845 -34.91022,9.4064 0,0 60.14583,-46.1986 60.14583,-46.1986 l 0,0 c 11.73465,-3.499 23.3527,-7.7189 35.69029,-8.5115 0,0 -60.9259,45.3037 -60.9259,45.3037 z"
       inkscape:connector-curvature="0" />
    <path
       style="fill:#ffffff;fill-opacity:1;stroke:#808080;stroke-width:2;stroke-linecap:square;stroke-miterlimit:4.5;stroke-opacity:1;stroke-dasharray:none;stroke-dashoffset:0.39999998"
       id="path3123"
       d="m 708.4085,3099.0228 c -13.90954,-0.34 -27.82394,-0.1893 -41.73514,-0.073 0,0 61.2263,-44.4835 61.2263,-44.4835 l 0,0 c 13.97839,0.1195 27.95964,0.2606 41.93651,-0.073 0,0 -61.42767,44.6298 -61.42767,44.6298 z"
       inkscape:connector-curvature="0" />
    <path
       style="fill:#ffffff;fill-opacity:1;stroke:#808080;stroke-width:2;stroke-linecap:square;stroke-miterlimit:4.5;stroke-opacity:1;stroke-dasharray:none;stroke-dashoffset:0.39999998"
       id="path3125"
       d="m 578.79393,3052.022 c -18.89494,-8.9661 -36.21239,-20.7132 -53.01478,-33.074 -14.24336,-10.8532 -27.36421,-23.0626 -41.33788,-34.2471 0,0 63.37825,-39.7137 63.37825,-39.7137 l 0,0 c 13.60817,11.3707 26.90297,23.1283 40.88363,34.0443 16.56188,11.9733 33.72538,23.6706 53.11519,30.5689 0,0 -63.02441,42.4216 -63.02441,42.4216 z"
       inkscape:connector-curvature="0" />
    <path
       style="fill:#ffffff;fill-opacity:1;stroke:#808080;stroke-width:2;stroke-linecap:square;stroke-miterlimit:4.5;stroke-opacity:1;stroke-dasharray:none;stroke-dashoffset:0.39999998"
       id="path3127"
       d="m 398.21352,2912.7296 c -2.50597,-24.9768 -9.45103,-49.205 -16.0479,-73.3375 -4.75861,-14.7556 -2.4154,-7.7126 -6.9979,-21.1397 0,0 65.55203,-36.0054 65.55203,-36.0054 l 0,0 c 4.17016,13.863 2.00955,6.578 6.46407,21.86 6.29603,24.3761 13.41092,48.5631 18.32659,73.2722 0,0 -67.29689,35.3504 -67.29689,35.3504 z"
       inkscape:connector-curvature="0" />
    <path
       style="fill:#ffffff;fill-opacity:1;stroke:#808080;stroke-width:2;stroke-linecap:square;stroke-miterlimit:4.5;stroke-opacity:1;stroke-dasharray:none;stroke-dashoffset:0.39999998"
       id="path3129"
       d="m 325.74607,2669.8745 c 0.7223,-13.7101 0.49149,-27.4003 -1.76546,-40.9523 -1.08411,-6.315 -2.97175,-12.4384 -4.79309,-18.5662 0,0 66.10147,-36.253 66.10147,-36.253 l 0,0 c 2.10104,6.3665 4.30628,12.7267 5.33277,19.3818 2.58101,13.8644 2.78124,27.8074 2.86078,41.8763 0,0 -67.73647,34.5134 -67.73647,34.5134 z"
       inkscape:connector-curvature="0" />
    <path
       style="fill:#ffffff;fill-opacity:1;stroke:#808080;stroke-width:2;stroke-linecap:square;stroke-miterlimit:4.5;stroke-opacity:1;stroke-dasharray:none;stroke-dashoffset:0.39999998"
       id="path3131"
       d="m 309.62535,2507.7455 c 0.47727,-16.3533 0.38634,-32.718 0.37857,-49.0767 -0.70052,-15.1063 -2.56805,-30.105 -3.60142,-45.1907 -2.27,-26.4576 -6.11596,-52.7517 -12.66403,-78.4932 -1.07481,-3.1609 -2.34399,-9.5522 -5.73439,-11.9923 -3.474,-2.5002 -6.39656,4.2972 -5.97948,4.0906 58.10504,-28.7908 73.77811,-49.7213 50.33866,-22.0099 -19.43912,26.7539 -34.4567,56.304 -51.02027,84.8298 -14.14998,22.7426 -25.85852,46.8402 -37.10346,71.1107 -6.4483,15.6638 -14.04334,30.9097 -18.32172,47.353 -1.52472,6.2599 -2.85518,12.5635 -3.83761,18.9324 -0.27906,1.809 -0.56102,3.6195 -0.74393,5.4408 -0.0839,0.8355 0.38504,3.2336 -0.0554,2.5186 -1.33769,-2.1713 -1.85562,-4.7511 -2.78343,-7.1266 -80.13158,48.043 -67.37078,46.66 -47.27195,9.859 9.13402,-16.7244 18.3689,-33.3756 27.77425,-49.9492 17.59206,-31.4665 35.46176,-62.7723 55.23593,-92.926 28.51606,-41.8656 26.98483,-40.7698 92.19988,-71.3028 3.05581,-1.4306 6.37777,2.2053 9.56666,3.308 4.1032,2.0375 8.29819,3.8998 12.3096,6.1126 18.40591,10.1531 35.84742,22.0983 53.7173,33.1352 20.26757,12.5179 20.05521,12.152 40.47906,23.746 26.41775,15.7492 56.02701,25.3038 82.21937,41.3767 13.64838,7.9084 17.54325,18.4103 21.50469,32.8967 7.70204,36.4805 -26.69578,33.3274 -71.00929,49.9823 -2.75071,1.0338 -5.00635,-3.0789 -7.48641,-4.6551 -3.06551,-1.9483 -6.09976,-3.9454 -9.14964,-5.9182 -22.96207,-13.6452 -46.23784,-26.7692 -68.72911,-41.2009 -20.46661,-12.7818 -36.31695,-30.9334 -53.96234,-46.9848 -12.21728,-10.3057 -22.85516,-22.2326 -34.1426,-33.4961 -1.65596,-1.5575 -3.31193,-3.115 -4.9679,-4.6726 0,0 64.25921,-39.5252 64.25921,-39.5252 l 0,0 c 1.63237,1.6232 3.26474,3.2464 4.8971,4.8696 11.15748,11.2127 21.88415,22.8548 33.54211,33.5644 31.95551,30.6914 -17.01015,-16.6125 15.3347,15.5839 11.45583,11.4032 24.39947,21.2504 37.67658,30.4109 22.43754,14.4745 45.35805,28.1468 68.8121,40.9113 3.10135,1.757 6.12233,3.6641 9.30405,5.271 2.33134,1.1775 9.31422,1.5226 7.20938,3.069 -19.38131,14.2386 -41.67086,24.0604 -61.88098,37.0959 -0.98911,0.638 2.46538,1.158 3.48479,0.5696 2.33542,-1.3478 0.65425,-8.0674 0.55545,-8.8862 -3.54039,-13.297 -6.19292,-20.5777 -18.24825,-28.2499 -25.62109,-16.0129 -53.9856,-27.0144 -79.86375,-42.6148 -22.13013,-12.876 -18.25097,-10.4973 -40.5575,-23.9799 -17.83641,-10.7808 -35.56163,-22.7176 -54.72509,-31.1082 -3.89922,-1.7072 -8.0487,-2.7736 -12.07305,-4.1604 -29.70013,2.0333 -13.38441,2.0346 51.45815,-35.0328 1.95539,-1.1178 -3.3337,3.0404 -4.84096,4.7141 -7.1462,7.9352 -12.42408,17.3087 -19.15153,25.5715 -20.62518,29.8041 -38.84129,61.132 -56.41492,92.8169 -9.19248,16.3263 -18.37027,32.6372 -26.92723,49.3094 -2.21622,4.318 -4.32525,8.6903 -6.51871,13.0199 -1.76603,3.486 -2.22972,8.0867 -5.35959,10.4265 -21.75484,16.2634 -45.47544,29.7164 -68.21317,44.5746 -1.75084,-2.0078 -3.9898,-3.6777 -5.25253,-6.0233 -1.70298,-3.1635 4.08553,-23.9636 4.54275,-28.506 3.55631,-17.4389 12.10249,-32.9468 18.87336,-49.2865 11.13051,-24.6208 22.79851,-49.0827 37.16688,-72.013 17.18923,-28.185 32.06866,-57.7724 50.22638,-85.3928 21.81187,-32.1606 8.62063,-15.7785 77.62218,-53.9777 2.01812,-1.1173 4.73039,-0.1449 6.88746,0.6724 7.14568,2.7077 9.02246,12.2798 10.83457,18.4243 5.7377,26.1961 9.67811,52.6797 13.47307,79.2194 1.88302,15.2088 2.88515,30.5196 3.98189,45.803 -0.008,16.23 -0.1029,32.4663 0.37857,48.6909 0,0 -67.65303,34.4709 -67.65303,34.4709 z"
       inkscape:connector-curvature="0" />
    <text
       xml:space="preserve"
       style="font-size:64px;font-style:normal;font-variant:normal;font-weight:normal;font-stretch:normal;line-height:125%;letter-spacing:0px;word-spacing:0px;fill:#000000;fill-opacity:1;stroke:none;font-family:Lato;-inkscape-font-specification:Lato"
       x="-1054.5992"
       y="1727.144"
       id="text3133"
       sodipodi:linespacing="125%"><tspan
         sodipodi:role="line"
         id="tspan3135"
         x="-1054.5992"
         y="1727.144">shows up</tspan><tspan
         sodipodi:role="line"
         x="-1054.5992"
         y="1807.144"
         id="tspan3137">first time</tspan><tspan
         sodipodi:role="line"
         x="-1054.5992"
         y="1887.144"
         id="tspan3139">only, will </tspan><tspan
         sodipodi:role="line"
         x="-1054.5992"
         y="1967.144"
         id="tspan3141">remember</tspan><tspan
         sodipodi:role="line"
         x="-1054.5992"
         y="2047.144"
         id="tspan3143">in future</tspan></text>
    <text
       xml:space="preserve"
       style="font-size:64px;font-style:normal;font-variant:normal;font-weight:normal;font-stretch:normal;line-height:125%;letter-spacing:0px;word-spacing:0px;fill:#000000;fill-opacity:1;stroke:none;font-family:Lato;-inkscape-font-specification:Lato"
       x="-428.30469"
       y="2567.5911"
       id="text3145"
       sodipodi:linespacing="125%"><tspan
         sodipodi:role="line"
         id="tspan3147"
         x="-428.30469"
         y="2567.5911">linked to </tspan><tspan
         sodipodi:role="line"
         x="-428.30469"
         y="2647.5911"
         id="tspan3149">from login</tspan><tspan
         sodipodi:role="line"
         x="-428.30469"
         y="2727.5911"
         id="tspan3151">page. gives</tspan><tspan
         sodipodi:role="line"
         x="-428.30469"
         y="2807.5911"
         id="tspan3153">user the </tspan><tspan
         sodipodi:role="line"
         x="-428.30469"
         y="2887.5911"
         id="tspan3155">option to </tspan><tspan
         sodipodi:role="line"
         x="-428.30469"
         y="2967.5911"
         id="tspan3157">create</tspan><tspan
         sodipodi:role="line"
         x="-428.30469"
         y="3047.5911"
         id="tspan3159">account</tspan></text>
    <path
       style="fill:#ffffff;fill-opacity:1;stroke:#808080;stroke-width:2;stroke-linecap:square;stroke-miterlimit:4.5;stroke-opacity:1;stroke-dasharray:none;stroke-dashoffset:0.39999998"
       id="path3161"
       d="m -97.307831,2850.0955 c 7.713065,-14.2517 13.328433,-29.5386 19.193751,-44.6187 3.969706,-11.5494 7.933375,-23.0991 11.91655,-34.6444 0,0 67.9537144,-31.8527 67.9537144,-31.8527 l 0,0 c -3.9180743,11.5892 -8.4301564,22.969 -11.6762513,34.7825 -5.5145191,15.2049 -11.8282801,30.1808 -18.2050151,45.0328 0,0 -69.182749,31.3005 -69.182749,31.3005 z"
       inkscape:connector-curvature="0" />
    <path
       style="fill:#ffffff;fill-opacity:1;stroke:#808080;stroke-width:2;stroke-linecap:square;stroke-miterlimit:4.5;stroke-opacity:1;stroke-dasharray:none;stroke-dashoffset:0.39999998"
       id="path3163"
       d="m -25.448295,2693.2371 c 2.387605,-22.8402 7.095067,-45.2966 12.500746,-67.5844 4.3333883,-15.6597 2.180693,-8.1018 6.4365318,-22.68 0,0 67.4720472,-31.8941 67.4720472,-31.8941 l 0,0 c -4.645203,14.5424 -2.297336,7.0425 -7.027696,22.5049 -5.401607,21.637 -10.556111,43.5556 -11.355945,65.9357 0,0 -68.025684,33.7179 -68.025684,33.7179 z"
       inkscape:connector-curvature="0" />
    <path
       style="fill:#ffffff;fill-opacity:1;stroke:#808080;stroke-width:2;stroke-linecap:square;stroke-miterlimit:4.5;stroke-opacity:1;stroke-dasharray:none;stroke-dashoffset:0.39999998"
       id="path3165"
       d="m 32.465108,2505.984 c 9.7083,-17.7205 19.994823,-35.0399 31.543852,-51.6231 7.197801,-9.9637 3.728152,-5.2151 10.39622,-14.2551 0,0 69.07657,-29.7145 69.07657,-29.7145 l 0,0 c -7.0572,9.0164 -3.4194,4.2931 -10.89426,14.1846 -11.51675,16.0746 -22.48697,32.5 -30.91981,50.4602 0,0 -69.202572,30.9479 -69.202572,30.9479 z"
       inkscape:connector-curvature="0" />
    <path
       style="fill:#ffffff;fill-opacity:1;stroke:#808080;stroke-width:2;stroke-linecap:square;stroke-miterlimit:4.5;stroke-opacity:1;stroke-dasharray:none;stroke-dashoffset:0.39999998"
       id="path3167"
       d="m 104.23775,2377.2672 c 5.20624,-18.4191 12.52482,-36.1619 21.47653,-53.0579 2.4113,-7.7306 13.24373,-17.6219 13.65543,-25.69 -0.28832,0.1783 -0.53037,0.4805 -0.86495,0.5348 -5.65197,0.9176 -11.88077,0.478 -17.55174,0.8879 -7.55828,0.5464 -15.08471,1.4684 -22.626886,2.2044 -24.088656,2.8911 -47.505948,9.2906 -71.398591,13.3633 -15.178143,1.7003 -30.2824907,4.5649 -44.026298,11.3808 -8.171652,4.8815 -16.41519,8.6988 -25.724729,10.6922 4.109161,-4.4814 -7.149093,3.1585 -5.522944,2.0563 22.104163,-14.9813 43.3514361,-31.3185 66.342597,-44.8993 2.606248,-1.5396 6.048651,0.2564 9.074161,0.3508 13.717141,0.4277 15.466795,0.3786 30.029085,0.5691 39.904569,0.3335 79.812065,0.2263 119.716655,-0.048 13.74985,0.332 27.52424,-0.7127 41.27151,-0.4734 4.00368,0.07 11.57218,0.3877 15.65853,1.9254 1.91906,0.7221 3.52248,2.0998 5.28371,3.1497 1.35493,2.0644 3.04928,3.9423 4.06478,6.1932 4.11745,9.1262 3.82185,20.1632 4.32198,29.8885 0.64594,12.5606 0.71826,14.3067 1.33646,27.1872 1.21599,21.9611 4.27911,43.7552 6.06788,65.6648 0.13963,2.3813 0.21568,4.7673 0.41889,7.1441 0.41047,4.801 0.51053,11.9034 2.93416,16.2857 0.17281,0.3124 -0.15954,-0.6961 -0.23931,-1.0442 -82.64527,44.7333 -67.1256,56.1173 -65.51938,24.2355 0.39973,-7.9342 0.44789,-15.8877 0.58175,-23.8289 0.90612,-28.6067 -1.54608,-57.1399 -4.33208,-85.5772 0,0 65.74974,-34.2232 65.74974,-34.2232 l 0,0 c 2.17687,28.565 5.00197,57.122 5.35533,85.7863 0.80872,53.8139 8.85882,28.5618 -67.29,73.448 -4.72111,-7.9549 -3.42757,-18.7606 -4.53814,-27.5738 -1.21243,-22.1475 -3.06239,-44.2509 -4.96936,-66.3479 -1.74619,-28.5967 0.0588,0.069 -1.79422,-26.9209 -0.64012,-9.3238 0.19586,-20.7531 -5.48152,-28.7009 -16.49899,-6.3529 -40.75844,-1.2111 -58.11324,-3.1703 -39.993701,-0.1661 -79.987912,-0.064 -119.9811176,0.187 -3.2408117,0.013 -26.8835244,0.1261 -31.2962424,0.069 -3.345923,-0.043 -12.378065,2.0722 -10.033644,-0.3155 55.743035,-56.7702 32.718029,-39.8447 61.031325,-47.2379 8.733189,-3.0201 16.589337,-7.8953 25.09561,-11.4754 14.262274,-5.1135 29.275973,-7.289 44.234196,-9.337 23.836583,-4.1774 47.319033,-10.3886 71.457423,-12.7416 10.13695,-1.0373 35.9976,-5.7528 44.85607,0.489 1.39207,0.9808 2.2981,2.5136 3.44715,3.7705 0.44897,1.3016 1.17206,2.5392 1.34691,3.905 1.32914,10.3825 -10.11517,18.7735 -13.46532,27.6101 -9.42668,15.8791 -16.88629,32.7696 -21.81885,50.6046 0,0 -68.2193,33.0799 -68.2193,33.0799 z"
       inkscape:connector-curvature="0" />
    <text
       xml:space="preserve"
       style="font-size:64px;font-style:normal;font-variant:normal;font-weight:normal;font-stretch:normal;line-height:125%;letter-spacing:0px;word-spacing:0px;fill:#000000;fill-opacity:1;stroke:none;font-family:Lato;-inkscape-font-specification:Lato"
       x="137.38074"
       y="1674.6161"
       id="text3169"
       sodipodi:linespacing="125%"><tspan
         sodipodi:role="line"
         id="tspan3171"
         x="137.38074"
         y="1674.6161">allows user</tspan><tspan
         sodipodi:role="line"
         x="137.38074"
         y="1754.6161"
         id="tspan3173">to choose</tspan><tspan
         sodipodi:role="line"
         x="137.38074"
         y="1834.6161"
         id="tspan3175">between</tspan><tspan
         sodipodi:role="line"
         x="137.38074"
         y="1914.6161"
         id="tspan3177">answering </tspan><tspan
         sodipodi:role="line"
         x="137.38074"
         y="1994.6161"
         id="tspan3179">questions</tspan><tspan
         sodipodi:role="line"
         x="137.38074"
         y="2074.6162"
         id="tspan3181">or viewing</tspan><tspan
         sodipodi:role="line"
         x="137.38074"
         y="2154.6162"
         id="tspan3183">coupons, link</tspan><tspan
         sodipodi:role="line"
         x="137.38074"
         y="2234.6162"
         id="tspan3265">to website</tspan></text>
    <text
       xml:space="preserve"
       style="font-size:64px;font-style:normal;font-variant:normal;font-weight:normal;font-stretch:normal;line-height:125%;letter-spacing:0px;word-spacing:0px;fill:#000000;fill-opacity:1;stroke:none;font-family:Lato;-inkscape-font-specification:Lato"
       x="1030.3556"
       y="1359.4486"
       id="text3185"
       sodipodi:linespacing="125%"><tspan
         sodipodi:role="line"
         id="tspan3187"
         x="1030.3556"
         y="1359.4486">asks user</tspan><tspan
         sodipodi:role="line"
         x="1030.3556"
         y="1439.4486"
         id="tspan3189">question</tspan></text>
    <text
       xml:space="preserve"
       style="font-size:64px;font-style:normal;font-variant:normal;font-weight:normal;font-stretch:normal;line-height:125%;letter-spacing:0px;word-spacing:0px;fill:#000000;fill-opacity:1;stroke:none;font-family:Lato;-inkscape-font-specification:Lato"
       x="1583.9192"
       y="1355.408"
       id="text3191"
       sodipodi:linespacing="125%"><tspan
         sodipodi:role="line"
         id="tspan3193"
         x="1583.9192"
         y="1355.408">presents</tspan><tspan
         sodipodi:role="line"
         x="1583.9192"
         y="1435.408"
         id="tspan3195">answers,</tspan><tspan
         sodipodi:role="line"
         x="1583.9192"
         y="1515.408"
         id="tspan3197">allows user</tspan><tspan
         sodipodi:role="line"
         x="1583.9192"
         y="1595.408"
         id="tspan3199">to return</tspan><tspan
         sodipodi:role="line"
         x="1583.9192"
         y="1675.408"
         id="tspan3201">to menu, or</tspan><tspan
         sodipodi:role="line"
         x="1583.9192"
         y="1755.408"
         id="tspan3233">ask another</tspan><tspan
         sodipodi:role="line"
         x="1583.9192"
         y="1835.408"
         id="tspan3235">questions</tspan></text>
    <text
       xml:space="preserve"
       style="font-size:64px;font-style:normal;font-variant:normal;font-weight:normal;font-stretch:normal;line-height:125%;letter-spacing:0px;word-spacing:0px;fill:#000000;fill-opacity:1;stroke:none;font-family:Lato;-inkscape-font-specification:Lato"
       x="1575.838"
       y="2183.7329"
       id="text3203"
       sodipodi:linespacing="125%"><tspan
         sodipodi:role="line"
         id="tspan3205"
         x="1575.838"
         y="2183.7329">shows</tspan><tspan
         sodipodi:role="line"
         x="1575.838"
         y="2263.7329"
         id="tspan3207">individual</tspan><tspan
         sodipodi:role="line"
         x="1575.838"
         y="2343.7329"
         id="tspan3209">coupon,</tspan><tspan
         sodipodi:role="line"
         x="1575.838"
         y="2423.7329"
         id="tspan3211">allows user</tspan><tspan
         sodipodi:role="line"
         x="1575.838"
         y="2503.7329"
         id="tspan3213">to go back </tspan><tspan
         sodipodi:role="line"
         x="1575.838"
         y="2583.7329"
         id="tspan3215">to coupon</tspan><tspan
         sodipodi:role="line"
         x="1575.838"
         y="2663.7329"
         id="tspan3217">view mode</tspan></text>
    <text
       xml:space="preserve"
       style="font-size:64px;font-style:normal;font-variant:normal;font-weight:normal;font-stretch:normal;line-height:125%;letter-spacing:0px;word-spacing:0px;fill:#000000;fill-opacity:1;stroke:none;font-family:Lato;-inkscape-font-specification:Lato"
       x="1018.2338"
       y="2183.7329"
       id="text3219"
       sodipodi:linespacing="125%"><tspan
         sodipodi:role="line"
         id="tspan3221"
         x="1018.2338"
         y="2183.7329">coupon</tspan><tspan
         sodipodi:role="line"
         x="1018.2338"
         y="2263.7329"
         id="tspan3223">view mode,</tspan><tspan
         sodipodi:role="line"
         x="1018.2338"
         y="2343.7329"
         id="tspan3225">view all</tspan><tspan
         sodipodi:role="line"
         x="1018.2338"
         y="2423.7329"
         id="tspan3227">available</tspan><tspan
         sodipodi:role="line"
         x="1018.2338"
         y="2503.7329"
         id="tspan3229">coupons,</tspan><tspan
         sodipodi:role="line"
         x="1018.2338"
         y="2583.7329"
         id="tspan3231">sort options</tspan></text>
    <text
       xml:space="preserve"
       style="font-size:64px;font-style:normal;font-variant:normal;font-weight:normal;font-stretch:normal;line-height:125%;letter-spacing:0px;word-spacing:0px;fill:#000000;fill-opacity:1;stroke:none;font-family:Lato;-inkscape-font-specification:Lato"
       x="1963.7366"
       y="1274.5957"
       id="text3237"
       sodipodi:linespacing="125%"><tspan
         sodipodi:role="line"
         id="tspan3239"
         x="1963.7366"
         y="1274.5957">(results page</tspan><tspan
         sodipodi:role="line"
         x="1963.7366"
         y="1354.5957"
         id="tspan3241">will grey out</tspan><tspan
         sodipodi:role="line"
         x="1963.7366"
         y="1434.5957"
         id="tspan3243">&quot;ask another</tspan><tspan
         sodipodi:role="line"
         x="1963.7366"
         y="1514.5957"
         id="tspan3245">question&quot; when</tspan><tspan
         sodipodi:role="line"
         x="1963.7366"
         y="1594.5957"
         id="tspan3247">out of questions,</tspan><tspan
         sodipodi:role="line"
         x="1963.7366"
         y="1674.5957"
         id="tspan3249">as well as give</tspan><tspan
         sodipodi:role="line"
         x="1963.7366"
         y="1754.5957"
         id="tspan3251">links to related</tspan><tspan
         sodipodi:role="line"
         x="1963.7366"
         y="1834.5957"
         id="tspan3253">sites)</tspan></text>
    <text
       xml:space="preserve"
       style="font-size:64px;font-style:normal;font-variant:normal;font-weight:normal;font-stretch:normal;line-height:125%;letter-spacing:0px;word-spacing:0px;fill:#000000;fill-opacity:1;stroke:none;font-family:Lato;-inkscape-font-specification:Lato"
       x="1147.5333"
       y="2801.9463"
       id="text3255"
       sodipodi:linespacing="125%"><tspan
         sodipodi:role="line"
         id="tspan3257"
         x="1147.5333"
         y="2801.9463">(we should consider</tspan><tspan
         sodipodi:role="line"
         x="1147.5333"
         y="2881.9463"
         id="tspan3259">displaying ads on </tspan><tspan
         sodipodi:role="line"
         x="1147.5333"
         y="2961.9463"
         id="tspan3261">one or both of these</tspan><tspan
         sodipodi:role="line"
         x="1147.5333"
         y="3041.9463"
         id="tspan3263">pages)</tspan></text>
    <path
       sodipodi:type="arc"
       style="fill:#ffffff;fill-opacity:1;stroke:#808080;stroke-width:2;stroke-linecap:square;stroke-miterlimit:4.5;stroke-opacity:1;stroke-dasharray:none;stroke-dashoffset:0.39999998"
       id="path3267"
       sodipodi:cx="-321.22852"
       sodipodi:cy="1494.809"
       sodipodi:rx="325.2691"
       sodipodi:ry="325.2691"
       d="m 4.0405884,1494.809 c 0,179.6411 -145.6279384,325.2691 -325.2691084,325.2691 -179.64116,0 -325.2691,-145.628 -325.2691,-325.2691 0,-179.6412 145.62794,-325.2691 325.2691,-325.2691 179.64117,0 325.2691084,145.6279 325.2691084,325.2691 z"
       transform="matrix(0.91948639,0,0,0.91948639,-185.47251,-245.31762)" />
    <text
       xml:space="preserve"
       style="font-size:64px;font-style:normal;font-variant:normal;font-weight:normal;font-stretch:normal;line-height:125%;letter-spacing:0px;word-spacing:0px;fill:#000000;fill-opacity:1;stroke:none;font-family:Lato;-inkscape-font-specification:Lato"
       x="-751.55353"
       y="1048.3215"
       id="text3269"
       sodipodi:linespacing="125%"><tspan
         sodipodi:role="line"
         id="tspan3271"
         x="-751.55353"
         y="1048.3215">push notification</tspan><tspan
         sodipodi:role="line"
         x="-751.55353"
         y="1128.3215"
         id="tspan3273">that a new question</tspan><tspan
         sodipodi:role="line"
         x="-751.55353"
         y="1208.3215"
         id="tspan3275">is available to answer</tspan></text>
    <text
       sodipodi:linespacing="125%"
       id="text3277"
       y="923.06268"
       x="-773.7666"
       style="font-size:144px;font-style:normal;font-variant:normal;font-weight:normal;font-stretch:normal;line-height:125%;letter-spacing:0px;word-spacing:0px;fill:#000000;fill-opacity:1;stroke:none;font-family:Lato;-inkscape-font-specification:Lato"
       xml:space="preserve"><tspan
         y="923.06268"
         x="-773.7666"
         id="tspan3279"
         sodipodi:role="line">Push Not.</tspan></text>
    <path
       style="fill:none;stroke:#000000;stroke-width:5;stroke-linecap:butt;stroke-linejoin:miter;stroke-miterlimit:4;stroke-opacity:1;stroke-dasharray:none"
       d="m -125.25892,1141.2556 c 14.81558,0 29.631146,0 44.446716,0 10.774961,0 21.658215,-1.5238 32.324882,0 17.788885,2.5413 34.986351,8.2237 52.5279322,12.1218 18.8250298,4.1834 37.8600768,7.4448 56.5685428,12.1219 13.641888,3.4104 26.827867,8.4661 40.406097,12.1218 21.44937,5.7748 43.18665,10.4389 64.64977,16.1624 18.94856,5.053 37.63212,11.0642 56.56854,16.1625 69.24451,18.6427 29.39008,7.5921 105.05586,20.203 21.62714,3.6046 43.09985,8.0813 64.64977,12.1219 21.54992,4.0406 43.41984,6.6431 64.64976,12.1218 14.78524,3.8155 119.0386,40.5546 129.29953,44.4467 16.37116,6.2098 32.1819,13.8227 48.48732,20.2031 31.60289,12.3663 60.674,21.5715 92.93403,32.3248 12.12183,4.0406 24.3164,7.8692 36.36549,12.1219 10.85162,3.8299 21.40776,8.4828 32.32488,12.1218 9.30219,3.1007 18.98209,4.9805 28.28428,8.0812 13.76182,4.5873 26.82349,11.069 40.4061,16.1625 3.98799,1.4955 7.9206,3.3404 12.12183,4.0406 3.98563,0.6642 8.08122,0 12.12183,0 2.69374,0 5.67186,-1.2047 8.08122,0 10.77496,5.3874 -12.12183,4.0406 4.04061,4.0406 11.20508,0 -6.44997,-0.6024 12.12183,4.0406 2.61331,0.6533 5.43979,-0.5283 8.08122,0 4.17647,0.8353 7.98982,3.0076 12.12183,4.0406 1.30666,0.3267 4.04061,-1.3469 4.04061,0 0,1.3469 -2.69374,0 -4.04061,0 -2.69374,0 -5.38748,0 -8.08122,0 -6.73435,0 -13.50212,0.6701 -20.20305,0 -18.26244,-1.8262 -48.08188,-7.1515 -64.64976,-12.1218 -15.09986,-4.53 -29.56706,-10.9546 -44.44672,-16.1625 -12.06017,-4.221 -24.3164,-7.8692 -36.36549,-12.1218 -10.85161,-3.83 -21.28482,-8.8748 -32.32488,-12.1218 -11.91295,-3.5038 -24.51321,-4.3774 -36.36549,-8.0813 -9.79054,-3.0595 -18.85618,-8.0812 -28.28427,-12.1218 -18.85618,-8.0812 -37.94184,-15.6467 -56.56854,-24.2436 -8.20349,-3.7863 -16.16244,-8.0813 -24.24366,-12.1219 -28.81414,-14.407 -21.16609,-11.1762 -52.52794,-24.2436 -6.69518,-2.7897 -13.86268,-4.5588 -20.20305,-8.0813 -5.88688,-3.2704 -10.13905,-9.1101 -16.16244,-12.1218 -11.12426,-5.5621 -25.24123,-6.5597 -36.36549,-12.1218 -20.43413,-13.6228 -3.33262,-3.7574 -24.24366,-12.1218 -2.79629,-1.1186 -5.12801,-3.45 -8.08122,-4.0407 -3.96215,-0.7924 -8.15969,0.7925 -12.12183,0 -2.95321,-0.5906 -5.11051,-3.5455 -8.08122,-4.0406 -5.31418,-0.8857 -10.84827,0.8857 -16.16244,0 -2.97072,-0.4951 -5.28494,-2.9221 -8.08122,-4.0406 -3.95455,-1.5818 -7.94537,-3.2053 -12.12183,-4.0406 -5.28286,-1.0566 -10.93582,1.3067 -16.16244,0 -2.92178,-0.7304 -5.22408,-3.0882 -8.08122,-4.0406 -1.27776,-0.4259 -2.69375,0 -4.04062,0 -2.69374,-1.3469 -5.38748,-2.6937 -8.08122,-4.0406 -2.69374,-1.3469 -5.1105,-3.5455 -8.08122,-4.0406 -48.48732,-8.0812 4.04061,4.0406 -24.24366,0 -6.79869,-0.9713 -13.44611,-2.8121 -20.20305,-4.0406 -8.06054,-1.4656 -16.33965,-1.885 -24.24366,-4.0406 -6.99754,-1.9085 -13.16649,-6.3221 -20.20305,-8.0813 -9.23945,-2.3098 -18.87121,-2.5924 -28.28427,-4.0406 -8.09742,-1.2457 -16.16244,-2.6937 -24.24366,-4.0406 -8.08122,-1.3469 -16.33965,-1.885 -24.24366,-4.0406 -6.99755,-1.9084 -13.25583,-5.997 -20.20305,-8.0812 -6.57808,-1.9734 -13.49888,-2.5508 -20.20305,-4.0406 -5.42105,-1.2047 -10.65204,-3.3518 -16.16245,-4.0406 -5.345873,-0.6683 -10.829103,0.7619 -16.162436,0 -4.21637,-0.6024 -8.081221,-2.6938 -12.121831,-4.0406 -4.04061,-1.3469 -8.08122,-2.6938 -12.12183,-4.0407 -4.040611,-1.3468 -7.945364,-3.2053 -12.121831,-4.0406 -2.641429,-0.5282 -5.525714,0.8519 -8.08122,0 -1.807016,-0.6023 -2.455753,-2.984 -4.04061,-4.0406 -2.50588,-1.6706 -5.224078,-3.0882 -8.081221,-4.0406 -1.277753,-0.4259 -2.69374,0 -4.04061,0 -6.73435,0 -13.468701,0 -20.2030508,0 -4.0406102,0 -8.1218306,0.5714 -12.1218306,0 -5.4974746,-0.7853 -10.6520366,-3.3518 -16.1624406,-4.0406 -5.345878,-0.6682 -10.774961,0 -16.162441,0 -10.77496,0 -21.549921,0 -32.324881,0 -2.635742,0 -12.978829,0.7959 -16.162441,0 -4.132009,-1.033 -7.862653,-4.0406 -12.121826,-4.0406 -8.1927,0 -18.45056,9.8337 -24.24367,4.0406 -5.12872,-5.1287 13.22901,-6.0886 20.20306,-8.0812 2.59009,-0.74 5.387476,0 8.081216,0 5.38748,0 10.77496,0 16.16244,0 8.081221,0 16.162441,0 24.243662,0 8.08122,0 16.186244,-0.6198 24.243661,0 45.785657,3.522 11.137948,2.5703 52.527932,12.1218 9.279916,2.1415 18.945408,2.1729 28.284271,4.0406 66.408198,13.2817 4.349876,1.7091 52.527928,16.1625 6.57808,1.9734 13.57733,2.2336 20.20306,4.0406 8.2182,2.2413 16.02546,5.8399 24.24366,8.0812 6.62572,1.807 13.62497,2.0672 20.20305,4.0406 6.94722,2.0842 13.41174,5.5345 20.20305,8.0812 3.98799,1.4955 8.08122,2.6938 12.12183,4.0406 6.73435,2.6938 13.4687,5.3875 20.20305,8.0813 6.73435,2.6937 13.25582,5.997 20.20305,8.0812 6.57808,1.9734 13.68776,1.8688 20.20305,4.0406 5.71429,1.9048 10.77496,5.3875 16.16244,8.0812 8.36843,4.1842 27.76695,14.4427 36.36549,16.1625 6.60358,1.3207 13.62907,-1.4609 20.20305,0 5.87996,1.3066 10.37082,6.4264 16.16245,8.0812 26.44965,7.557 -2.32472,-9.2436 24.24366,4.0406 4.34352,2.1717 7.95766,5.5827 12.12183,8.0812 4.87642,2.9259 15.14382,7.3585 20.20305,8.0812 5.33333,0.7619 10.98225,-1.48 16.16244,0 4.66936,1.3341 7.51482,6.5456 12.12183,8.0812 3.83326,1.2778 8.15969,-0.7924 12.12183,0 2.95321,0.5907 5.28493,2.9221 8.08122,4.0407 7.90909,3.1636 16.16244,5.3874 24.24366,8.0812 4.04061,1.3468 7.92061,3.3404 12.12183,4.0406 3.98563,0.6643 8.37022,-1.5007 12.12183,0 3.53706,1.4148 4.67388,6.3775 8.08122,8.0812 2.40936,1.2047 5.58015,-1.0004 8.08122,0 4.50888,1.8036 7.77831,5.9095 12.12183,8.0812 7.61905,3.8095 16.84766,3.855 24.24366,8.0812 5.84706,3.3412 10.13906,9.1102 16.16244,12.1219 4.96702,2.4835 11.05817,1.853 16.16245,4.0406 26.15492,11.2092 -3.35297,6.8489 28.28427,12.1218 5.31417,0.8857 10.93581,-1.3066 16.16244,0 2.92177,0.7305 5.38748,2.6938 8.08122,4.0406 4.04061,1.3469 7.94536,3.2053 12.12183,4.0406 2.64143,0.5283 5.38748,0 8.08122,0 5.38748,0 10.77496,0 16.16244,0 2.69374,0 5.46791,-0.6533 8.08122,0 2.92177,0.7305 5.15945,3.3102 8.08122,4.0406 2.61331,0.6534 5.38748,0 8.08122,0 6.73435,0 13.59948,-1.3207 20.20305,0 2.95321,0.5907 5.38748,2.6938 8.08122,4.0407 4.04061,1.3468 7.92061,3.3404 12.12183,4.0406 3.98564,0.6642 8.37022,-1.5007 12.12183,0 3.53706,1.4148 4.54417,6.6664 8.08122,8.0812 3.75162,1.5006 8.08122,0 12.12183,0 2.69374,0 5.38748,0 8.08122,0 2.69374,0 5.38748,0 8.08122,0 1.34687,0 4.04061,-1.3469 4.04061,0 0,1.3469 -5.38748,0 -4.04061,0 2.69374,0 5.52572,-0.8518 8.08122,0 1.80702,0.6023 2.2336,3.4383 4.04062,4.0406 2.5555,0.8518 5.43979,-0.5283 8.08122,0 4.17646,0.8353 7.98982,3.0076 12.12183,4.0406 6.66266,1.6657 13.59957,2.1539 20.20305,4.0406 7.31326,-2.4354 7.51482,6.5456 12.12183,8.0812 4.2936,1.4312 11.86884,-1.4312 16.16244,0 2.85714,0.9524 5.22408,3.0883 8.08122,4.0406 1.27775,0.426 3.08823,-0.9523 4.04061,0 0.95238,0.9524 -0.95238,3.0883 0,4.0407 0.95238,0.9523 2.83593,-0.6024 4.04061,0 3.40734,1.7036 4.67388,6.3775 8.08122,8.0812 1.20468,0.6023 3.08823,-0.9524 4.04061,0 0.95238,0.9524 -1.20468,3.4382 0,4.0406 2.40935,1.2047 6.17646,-1.9048 8.08122,0 5.88846,5.8885 -6.34769,3.4628 -8.08122,4.0406 -2.85714,0.9524 -5.15945,3.3102 -8.08122,4.0406 -2.61331,0.6533 -5.38748,0 -8.08122,0 -6.41654,0 -8.71823,-0.4259 -16.16244,4.0406 -3.26664,1.96 -4.54417,6.6664 -8.08122,8.0812 -3.75161,1.5007 -8.1362,-0.6642 -12.12183,0 -4.20123,0.7002 -8.08122,2.6938 -12.12183,4.0406 -4.04061,1.3469 -8.20703,2.3629 -12.12183,4.0407 -5.53637,2.3727 -10.3189,6.6203 -16.16244,8.0812 -54.31799,13.5795 18.33582,-15.2288 -28.28428,8.0812 -34.33924,11.4464 7.52924,-4.5175 -20.20305,12.1218 -0.13306,0.08 -23.72002,7.8718 -24.24366,8.0813 -11.60737,4.6429 -4.03133,4.0406 -12.12183,4.0406 -1.34687,0 -5.24529,0.6023 -4.04061,0 33.44067,-16.7204 -13.75586,13.1022 28.28427,-12.1219 8.32833,-4.997 15.69216,-11.5578 24.24366,-16.1624 0.0489,-0.026 56.36229,-24.1499 56.56855,-24.2437 14.64824,-6.6583 28.82835,-15.9435 44.44671,-20.203 5.19764,-1.4176 10.98225,1.48 16.16244,0 4.66936,-1.3341 7.57482,-6.3761 12.12183,-8.0812 12.8881,-4.8331 19.97019,-4.0407 32.32488,-4.0407 2.41479,0 8.08122,0.9524 8.08122,-4.0406 0,-2.6937 -5.67186,1.2047 -8.08122,0 -3.40734,-1.7036 -4.67388,-6.3775 -8.08122,-8.0812 -1.20468,-0.6023 -3.08823,0.9524 -4.04061,0 -2.12959,-2.1296 -2.37002,-5.5753 -4.04061,-8.0812 -3.16972,-4.7546 -8.55214,-7.6597 -12.12183,-12.1218 -3.03365,-3.7921 -4.97235,-8.3912 -8.08122,-12.1219 -5.89256,-7.071 -23.57023,-21.9988 -28.28427,-28.2842 -3.61403,-4.8187 -4.46719,-11.3438 -8.08122,-16.1625 -4.57143,-6.0952 -11.28485,-10.3093 -16.16244,-16.1624 -1.92804,-2.3137 -1.91102,-5.9516 -4.04061,-8.0812 -0.95238,-0.9524 -3.43827,1.2046 -4.04061,0 -1.20468,-2.4094 1.49421,-5.8399 0,-8.0813 -0.29253,-0.4387 -14.55278,-7.0081 -16.16244,-8.0812 -3.16972,-2.1131 -4.67388,-6.3775 -8.08122,-8.0812 -1.20468,-0.6023 -2.69374,0 -4.04061,0 -1.34687,0 -4.993,-0.9524 -4.04061,0 2.12958,2.1296 5.95163,1.911 8.08122,4.0406 2.12958,2.1296 2.4911,5.4987 4.04061,8.0812 2.49849,4.1642 5.16749,8.2369 8.08122,12.1219 1.14285,1.5238 3.18877,2.3369 4.04061,4.0406 1.90476,3.8095 2.45879,8.1673 4.04061,12.1218 1.11851,2.7963 3.31016,5.1595 4.04061,8.0812 0.65332,2.6133 -1.20468,5.6719 0,8.0812 1.70367,3.4074 5.70143,5.1065 8.08122,8.0813 22.50187,28.1273 -8.59158,-4.551 20.20305,24.2436 2.69374,2.6938 5.38748,5.3875 8.08122,8.0812 2.69374,2.6938 5.7955,5.0336 8.08122,8.0813 1.80701,2.4093 2.37002,5.5753 4.04061,8.0812 1.05657,1.5848 3.43827,2.2336 4.04061,4.0406 0.85183,2.5555 0,5.3875 0,8.0812 0,1.3469 0.42592,2.7629 0,4.0406 -0.95238,2.8572 -3.08823,5.2241 -4.04061,8.0812 -0.42592,1.2778 0.95238,3.0883 0,4.0407 -2.12959,2.1295 -5.38748,2.6937 -8.08122,4.0406 -2.69374,1.3468 -5.38748,2.6937 -8.08122,4.0406 -10.50633,5.2531 -24.98803,14.2662 -36.36549,16.1624 -3.98564,0.6643 -8.1362,-0.6643 -12.12183,0 -11.48659,1.9144 -10.7818,4.3127 -20.20306,8.0812 -3.95454,1.5819 -8.02652,2.8706 -12.12183,4.0406 -5.33961,1.5257 -10.68471,3.1277 -16.16244,4.0407 -3.36717,0.5612 -18.51946,-0.8418 -20.20305,0 -1.70367,0.8518 2.33694,3.1887 4.04061,4.0406 1.20468,0.6023 2.69374,0 4.04061,0 1.34687,0 2.69374,0 4.04061,0 4.04061,0 8.15969,0.7924 12.12183,0 4.17647,-0.8353 7.90546,-3.4383 12.12183,-4.0406 9.33334,-1.3334 18.98446,1.5499 28.28428,0 4.20122,-0.7002 8.02653,-2.8706 12.12183,-4.0407 10.67923,-3.0512 21.64564,-5.03 32.32488,-8.0812 4.0953,-1.1701 8.02653,-2.8705 12.12183,-4.0406 5.33962,-1.5256 10.82282,-2.515 16.16244,-4.0406 4.0953,-1.1701 7.94536,-3.2053 12.12183,-4.0406 6.42441,-1.2849 8.69487,2.8133 12.12183,-4.0406 0.56691,-1.1338 0.56691,-15.0286 0,-16.1625 -0.85184,-1.7036 -2.98404,-2.4557 -4.04061,-4.0406 -6.37693,-9.5654 -2.10468,-10.1859 -12.12183,-20.203 -33.66292,-33.6629 15.16234,28.8577 -28.28427,-24.2437 -7.33683,-8.9672 -13.38837,-18.9141 -20.20305,-28.2842 -20.04741,-27.5652 -4.77219,-5.138 -20.20305,-28.2843 -3.07371,-4.6106 -10.05104,-13.9907 -12.12183,-20.2031 -0.42592,-1.2777 0.95238,-3.0882 0,-4.0406 -0.95239,-0.9524 -4.04061,1.3469 -4.04061,0 0,-1.3468 2.69374,0 4.04061,0"
       id="path3281"
       inkscape:connector-curvature="0" />
  </g>
</svg>
