<?xml version="1.0" encoding="UTF-8" standalone="no"?>
<!-- Created with Inkscape (http://www.inkscape.org/) -->

<svg
   xmlns:dc="http://purl.org/dc/elements/1.1/"
   xmlns:cc="http://creativecommons.org/ns#"
   xmlns:rdf="http://www.w3.org/1999/02/22-rdf-syntax-ns#"
   xmlns:svg="http://www.w3.org/2000/svg"
   xmlns="http://www.w3.org/2000/svg"
   xmlns:sodipodi="http://sodipodi.sourceforge.net/DTD/sodipodi-0.dtd"
   xmlns:inkscape="http://www.inkscape.org/namespaces/inkscape"
   width="850"
   height="152"
   id="svg4355"
   version="1.1"
   inkscape:version="0.48.2 r9819"
   sodipodi:docname="logo_full.svg"
   inkscape:export-filename="/Users/stephenchen/Google Drive/*Google Drive Sync*/Coupinion/website/images/logo_full.png"
   inkscape:export-xdpi="90"
   inkscape:export-ydpi="90">
  <defs
     id="defs4357">
    <clipPath
       clipPathUnits="userSpaceOnUse"
       id="clipPath4299">
      <path
         style="fill:#000000;fill-opacity:1;stroke:#ffcc00;stroke-width:0;stroke-linecap:square;stroke-linejoin:round;stroke-miterlimit:4.5;stroke-opacity:1;stroke-dashoffset:13.95"
         inkscape:transform-center-x="5"
         inkscape:transform-center-y="24.285714"
         d="m -475.29919,375.63149 166.27688,-96 200,346.41016 -166.27688,96 z"
         id="rect4274"
         inkscape:connector-curvature="0" />
    </clipPath>
    <clipPath
       clipPathUnits="userSpaceOnUse"
       id="clipPath3955">
      <path
         style="fill:#000000;fill-opacity:1;stroke:none"
         d="m -480.07713,365.07923 139.993,-139.993 282.842716,282.84271 -139.993006,139.993 z"
         id="path3957"
         inkscape:connector-curvature="0" />
    </clipPath>
    <clipPath
       clipPathUnits="userSpaceOnUse"
       id="clipPath4211">
      <rect
         style="fill:#000000;fill-opacity:1;stroke:none"
         id="rect4213"
         width="150"
         height="150"
         x="199.9718"
         y="384.53732"
         transform="matrix(0.48575224,0.87409654,-0.87409654,0.48575224,0,0)" />
    </clipPath>
  </defs>
  <sodipodi:namedview
     id="base"
     pagecolor="#ffffff"
     bordercolor="#666666"
     borderopacity="1.0"
     inkscape:pageopacity="0.0"
     inkscape:pageshadow="2"
     inkscape:zoom="1"
     inkscape:cx="388.29287"
     inkscape:cy="28.377752"
     inkscape:document-units="px"
     inkscape:current-layer="layer1"
     showgrid="false"
     inkscape:window-width="1680"
     inkscape:window-height="934"
     inkscape:window-x="0"
     inkscape:window-y="0"
     inkscape:window-maximized="1"
     fit-margin-top="0"
     fit-margin-left="0"
     fit-margin-right="0"
     fit-margin-bottom="0"
     inkscape:snap-global="false" />
  <metadata
     id="metadata4360">
    <rdf:RDF>
      <cc:Work
         rdf:about="">
        <dc:format>image/svg+xml</dc:format>
        <dc:type
           rdf:resource="http://purl.org/dc/dcmitype/StillImage" />
        <dc:title></dc:title>
      </cc:Work>
    </rdf:RDF>
  </metadata>
  <g
     inkscape:label="Layer 1"
     inkscape:groupmode="layer"
     id="layer1"
     transform="translate(-199.9718,-384.23489)">
    <g
       style="fill:#4d4d4d;fill-opacity:1"
       id="g4321"
       transform="matrix(0.50838322,0,0,0.50838322,487.84465,311.52402)">
      <rect
         style="fill:#4d4d4d;fill-opacity:1;stroke:#ffcc00;stroke-width:0;stroke-linecap:square;stroke-linejoin:round;stroke-miterlimit:4;stroke-opacity:1;stroke-dasharray:none;stroke-dashoffset:13.95"
         id="rect4323"
         width="295.05301"
         height="295.05301"
         x="-558.38361"
         y="147.55269" />
    </g>
    <g
       transform="matrix(0.50838322,0,0,0.50838322,485.84465,309.52402)"
       id="g4254"
       style="fill:#b3b3b3;fill-opacity:1">
      <rect
         y="147.55269"
         x="-558.38361"
         height="295.05301"
         width="295.05301"
         id="rect4258"
         style="fill:#b3b3b3;fill-opacity:1;stroke:#ffcc00;stroke-width:0;stroke-linecap:square;stroke-linejoin:round;stroke-miterlimit:4;stroke-opacity:1;stroke-dasharray:none;stroke-dashoffset:13.95" />
    </g>
    <rect
       style="fill:#000000;fill-opacity:0.05882353;stroke:none"
       id="rect4199"
       width="93.300003"
       height="200"
       x="-316.44559"
       y="463.091"
       transform="matrix(0.48575224,-0.87409654,0.87409654,0.48575224,2,0)"
       clip-path="url(#clipPath4211)" />
    <rect
       y="512.90961"
       x="-31.593481"
       height="48"
       width="80"
       id="rect4195"
       style="fill:#f2f2f2;fill-opacity:1;stroke:none"
       transform="matrix(0.8660254,-0.5,0.5,0.8660254,0,0)" />
    <rect
       style="fill:#f2f2f2;fill-opacity:1;stroke:#3fc380;stroke-width:4.15000009999999975;stroke-linecap:square;stroke-miterlimit:4.50000000000000000;stroke-opacity:1;stroke-dasharray:8.29999946000000044, 8.29999946000000044;stroke-dashoffset:0.82999999999999985"
       id="rect4197"
       width="67.841736"
       height="35.841743"
       x="-25.514349"
       y="518.98871"
       transform="matrix(0.8660254,-0.5,0.5,0.8660254,0,0)" />
    <g
       style="font-size:36.81155014px;font-style:normal;font-variant:normal;font-weight:normal;font-stretch:normal;line-height:125%;letter-spacing:0px;word-spacing:0px;fill:#000000;fill-opacity:1;stroke:none;font-family:Lato;-inkscape-font-specification:Lato"
       id="text4215">
      <path
         d="m 955.18227,412.94415 0,-28.66 9.14,0 c 1.75999,3e-5 3.27332,0.17336 4.54,0.52 1.27998,0.3467 2.32665,0.84003 3.14,1.48 0.82665,0.64003 1.43331,1.42669 1.82,2.36 0.39998,0.92003 0.59998,1.96003 0.6,3.12 -2e-5,0.70669 -0.11336,1.38669 -0.34,2.04 -0.21335,0.65335 -0.54669,1.26002 -1,1.82 -0.44002,0.56002 -1.00002,1.06002 -1.68,1.5 -0.66669,0.44002 -1.45335,0.80002 -2.36,1.08 2.09331,0.41335 3.67331,1.16668 4.74,2.26 1.06664,1.09335 1.59998,2.53335 1.6,4.32 -2e-5,1.21334 -0.22669,2.32001 -0.68,3.32 -0.44002,1.00001 -1.09335,1.86001 -1.96,2.58 -0.85335,0.72 -1.90669,1.28 -3.16,1.68 -1.24002,0.38667 -2.66001,0.58 -4.26,0.58 l -10.14,0 m 3.88,-13.06 0,9.98 6.2,0 c 1.10665,1e-5 2.05332,-0.12666 2.84,-0.38 0.79998,-0.25333 1.45332,-0.60666 1.96,-1.06 0.51998,-0.46666 0.89998,-1.01332 1.14,-1.64 0.23998,-0.63999 0.35998,-1.33999 0.36,-2.1 -2e-5,-1.47999 -0.52669,-2.64665 -1.58,-3.5 -1.04002,-0.86665 -2.62002,-1.29998 -4.74,-1.3 l -6.18,0 m 0,-2.76 5.12,0 c 1.09332,2e-5 2.03999,-0.11998 2.84,-0.36 0.79998,-0.23998 1.45998,-0.57331 1.98,-1 0.53332,-0.42665 0.92665,-0.93998 1.18,-1.54 0.25332,-0.61331 0.37998,-1.27998 0.38,-2 -2e-5,-1.67997 -0.50668,-2.91331 -1.52,-3.7 -1.01335,-0.78664 -2.58668,-1.17997 -4.72,-1.18 l -5.26,0 0,9.78"
         style="font-size:40px;-inkscape-font-specification:Lato;fill:#3fc380;fill-opacity:1"
         id="path4347" />
      <path
         d="m 998.70165,384.28415 0,3.16 -13.76,0 0,9.52 11.14,0 0,3.04 -11.14,0 0,9.78 13.76,0 0,3.16 -17.66,0 0,-28.66 17.66,0"
         style="font-size:40px;-inkscape-font-specification:Lato;fill:#3fc380;fill-opacity:1"
         id="path4349" />
      <path
         d="m 1023.7648,384.28415 0,3.26 -9.26,0 0,25.4 -3.88,0 0,-25.4 -9.3,0 0,-3.26 22.44,0"
         style="font-size:40px;-inkscape-font-specification:Lato;fill:#3fc380;fill-opacity:1"
         id="path4351" />
      <path
         d="m 1048.7623,412.94415 -3,0 c -0.3467,0 -0.6267,-0.0867 -0.84,-0.26 -0.2134,-0.17333 -0.3734,-0.39333 -0.48,-0.66 l -2.68,-6.92 -12.86,0 -2.68,6.92 c -0.093,0.24 -0.2534,0.45334 -0.48,0.64 -0.2267,0.18667 -0.5067,0.28 -0.84,0.28 l -3,0 11.46,-28.66 3.94,0 11.46,28.66 m -18.78,-10.64 10.7,0 -4.5,-11.66 c -0.2934,-0.71997 -0.58,-1.61997 -0.86,-2.7 -0.1467,0.54669 -0.2934,1.05336 -0.44,1.52 -0.1334,0.45336 -0.2667,0.85336 -0.4,1.2 l -4.5,11.64"
         style="font-size:40px;-inkscape-font-specification:Lato;fill:#3fc380;fill-opacity:1"
         id="path4353" />
    </g>
    <g
       style="font-size:130px;font-style:normal;font-variant:normal;font-weight:normal;font-stretch:normal;line-height:125%;letter-spacing:0px;word-spacing:0px;fill:#000000;fill-opacity:1;stroke:none;font-family:Lato;-inkscape-font-specification:Lato"
       id="text4277">
      <path
         d="m 445.42764,492.2949 c 0.95325,2e-5 1.77659,0.36836 2.47,1.105 l 6.89,7.475 c -3.81342,4.72334 -8.51508,8.34167 -14.105,10.855 -5.54673,2.51333 -12.22006,3.77 -20.02,3.77 -6.97671,0 -13.26004,-1.19167 -18.85,-3.575 -5.54669,-2.38333 -10.29169,-5.69833 -14.235,-9.945 -3.94335,-4.24665 -6.97668,-9.31664 -9.1,-15.21 -2.08001,-5.8933 -3.12001,-12.32829 -3.12,-19.305 -1e-5,-7.06328 1.16999,-13.51994 3.51,-19.37 2.33999,-5.89326 5.63332,-10.96326 9.88,-15.21 4.24664,-4.24658 9.31664,-7.53991 15.21,-9.88 5.93662,-2.38324 12.47995,-3.57491 19.63,-3.575 6.9766,9e-5 13.06493,1.12676 18.265,3.38 5.24325,2.21009 9.72825,5.15675 13.455,8.84 l -5.85,8.125 c -0.34675,0.52007 -0.80175,0.97507 -1.365,1.365 -0.52008,0.39007 -1.25675,0.58507 -2.21,0.585 -0.99674,7e-5 -2.01508,-0.38993 -3.055,-1.17 -1.04007,-0.77993 -2.36174,-1.62492 -3.965,-2.535 -1.6034,-0.90992 -3.64007,-1.75492 -6.11,-2.535 -2.42673,-0.77992 -5.52506,-1.16992 -9.295,-1.17 -4.42005,8e-5 -8.49338,0.78008 -12.22,2.34 -3.68337,1.51674 -6.86837,3.70507 -9.555,6.565 -2.64336,2.86007 -4.72336,6.3484 -6.24,10.465 -1.47336,4.07339 -2.21003,8.66672 -2.21,13.78 -3e-5,5.28671 0.73664,9.98837 2.21,14.105 1.51664,4.1167 3.5533,7.58336 6.11,10.4 2.55663,2.81669 5.56829,4.98335 9.035,6.5 3.46662,1.47335 7.19328,2.21001 11.18,2.21 2.38328,1e-5 4.52828,-0.12999 6.435,-0.39 1.94994,-0.25999 3.7266,-0.67165 5.33,-1.235 1.6466,-0.56332 3.18493,-1.27832 4.615,-2.145 1.47326,-0.90998 2.92493,-2.01498 4.355,-3.315 0.43326,-0.38998 0.88826,-0.69331 1.365,-0.91 0.47659,-0.25998 0.99659,-0.38998 1.56,-0.39"
         style="fill:#3fc380;fill-opacity:1"
         id="path4326" />
      <path
         d="m 495.46748,446.7299 c 4.98329,7e-5 9.48995,0.80173 13.52,2.405 4.07328,1.6034 7.53994,3.87839 10.4,6.825 2.85994,2.94672 5.06993,6.54339 6.63,10.79 1.55993,4.24671 2.33993,8.99171 2.34,14.235 -7e-5,5.28669 -0.78007,10.05336 -2.34,14.3 -1.56007,4.24668 -3.77006,7.86501 -6.63,10.855 -2.86006,2.99001 -6.32672,5.28667 -10.4,6.89 -4.03005,1.60333 -8.53671,2.405 -13.52,2.405 -4.98336,0 -9.51169,-0.80167 -13.585,-2.405 -4.07335,-1.60333 -7.56168,-3.89999 -10.465,-6.89 -2.86001,-2.98999 -5.09167,-6.60832 -6.695,-10.855 -1.56,-4.24664 -2.34,-9.01331 -2.34,-14.3 0,-5.24329 0.78,-9.98829 2.34,-14.235 1.60333,-4.24661 3.83499,-7.84328 6.695,-10.79 2.90332,-2.94661 6.39165,-5.2216 10.465,-6.825 4.07331,-1.60327 8.60164,-2.40493 13.585,-2.405 m 0,56.355 c 5.54662,10e-6 9.64162,-1.86332 12.285,-5.59 2.68662,-3.72665 4.02995,-9.18664 4.03,-16.38 -5e-5,-7.19329 -1.34338,-12.67495 -4.03,-16.445 -2.64338,-3.76995 -6.73838,-5.65494 -12.285,-5.655 -5.63336,6e-5 -9.79336,1.90672 -12.48,5.72 -2.68669,3.77005 -4.03002,9.23004 -4.03,16.38 -2e-5,7.15003 1.34331,12.61002 4.03,16.38 2.68664,3.72668 6.84664,5.59001 12.48,5.59"
         style="fill:#3fc380;fill-opacity:1"
         id="path4328" />
      <path
         d="m 555.5742,447.7699 0,42.38 c -2e-5,4.07335 0.93164,7.23668 2.795,9.49 1.90664,2.21001 4.74497,3.31501 8.515,3.315 2.7733,10e-6 5.37329,-0.60665 7.8,-1.82 2.42662,-1.25665 4.72329,-2.96832 6.89,-5.135 l 0,-48.23 16.055,0 0,66.69 -9.815,0 c -2.08005,0 -3.44505,-0.975 -4.095,-2.925 l -1.105,-5.33 c -1.38672,1.38667 -2.81671,2.66501 -4.29,3.835 -1.47338,1.12667 -3.05504,2.10167 -4.745,2.925 -1.64671,0.78 -3.44504,1.38667 -5.395,1.82 -1.9067,0.47667 -3.96503,0.715 -6.175,0.715 -3.64003,0 -6.86836,-0.60667 -9.685,-1.82 -2.77335,-1.25666 -5.11335,-3.01166 -7.02,-5.265 -1.90668,-2.25333 -3.35834,-4.91832 -4.355,-7.995 -0.95334,-3.11998 -1.43001,-6.54331 -1.43,-10.27 l 0,-42.38 16.055,0"
         style="fill:#3fc380;fill-opacity:1"
         id="path4330" />
      <path
         d="m 614.77092,536.2349 0,-88.465 9.815,0 c 1.03998,7e-5 1.92831,0.2384 2.665,0.715 0.73664,0.47673 1.21331,1.2134 1.43,2.21 l 1.3,6.175 c 2.68664,-3.07661 5.7633,-5.56827 9.23,-7.475 3.50996,-1.9066 7.60496,-2.85993 12.285,-2.86 3.63995,7e-5 6.95495,0.7584 9.945,2.275 3.03327,1.51673 5.63327,3.72673 7.8,6.63 2.20993,2.86006 3.89993,6.41339 5.07,10.66 1.21326,4.20338 1.81993,9.03504 1.82,14.495 -7e-5,4.98336 -0.67174,9.59836 -2.015,13.845 -1.3434,4.24668 -3.27173,7.93001 -5.785,11.05 -2.47006,3.12001 -5.48173,5.56834 -9.035,7.345 -3.51005,1.73333 -7.45338,2.6 -11.83,2.6 -3.77004,0 -6.9767,-0.56333 -9.62,-1.69 -2.60003,-1.17 -4.94003,-2.77333 -7.02,-4.81 l 0,27.3 -16.055,0 m 31.2,-77.025 c -3.33671,6e-5 -6.1967,0.71505 -8.58,2.145 -2.34003,1.38672 -4.52836,3.35838 -6.565,5.915 l 0,29.9 c 1.81997,2.25335 3.79164,3.83501 5.915,4.745 2.16663,0.86668 4.48496,1.30001 6.955,1.3 2.42662,10e-6 4.61496,-0.45499 6.565,-1.365 1.99329,-0.90999 3.66162,-2.29665 5.005,-4.16 1.38661,-1.86331 2.44828,-4.20331 3.185,-7.02 0.73661,-2.85997 1.10494,-6.2183 1.105,-10.075 -6e-5,-3.89996 -0.32506,-7.19329 -0.975,-9.88 -0.60672,-2.72995 -1.49505,-4.93995 -2.665,-6.63 -1.17005,-1.68995 -2.60005,-2.92495 -4.29,-3.705 -1.64671,-0.77995 -3.53171,-1.16994 -5.655,-1.17"
         style="fill:#3fc380;fill-opacity:1"
         id="path4332" />
      <path
         d="m 702.18373,448.6149 0,65.845 -11.57,0 0,-65.845 11.57,0 m 2.6,-20.67 c -2e-5,1.12675 -0.23836,2.18842 -0.715,3.185 -0.43336,0.95342 -1.04002,1.82008 -1.82,2.6 -0.73669,0.73675 -1.60335,1.32175 -2.6,1.755 -0.99669,0.43341 -2.05835,0.65008 -3.185,0.65 -1.12668,8e-5 -2.18835,-0.21659 -3.185,-0.65 -0.95335,-0.43325 -1.82001,-1.01825 -2.6,-1.755 -0.73668,-0.77992 -1.32168,-1.64658 -1.755,-2.6 -0.43334,-0.99658 -0.65001,-2.05825 -0.65,-3.185 -10e-6,-1.12658 0.21666,-2.18824 0.65,-3.185 0.43332,-1.03991 1.01832,-1.92824 1.755,-2.665 0.77999,-0.77991 1.64665,-1.38657 2.6,-1.82 0.99665,-0.43324 2.05832,-0.64991 3.185,-0.65 1.12665,9e-5 2.18831,0.21676 3.185,0.65 0.99665,0.43343 1.86331,1.04009 2.6,1.82 0.77998,0.73676 1.38664,1.62509 1.82,2.665 0.47664,0.99676 0.71498,2.05842 0.715,3.185"
         style="font-weight:normal;fill:#999999;-inkscape-font-specification:Lato"
         id="path4334" />
      <path
         d="m 722.57545,514.4599 0,-65.845 6.89,0 c 1.64665,7e-5 2.68665,0.80173 3.12,2.405 l 0.91,7.15 c 2.85998,-3.16327 6.04497,-5.71994 9.555,-7.67 3.5533,-1.94993 7.64829,-2.92493 12.285,-2.925 3.59662,7e-5 6.75995,0.60673 9.49,1.82 2.77328,1.17006 5.06994,2.86006 6.89,5.07 1.86327,2.16672 3.2716,4.78839 4.225,7.865 0.95327,3.07672 1.42993,6.47838 1.43,10.205 l 0,41.925 -11.57,0 0,-41.925 c -5e-5,-4.98329 -1.14839,-8.83995 -3.445,-11.57 -2.25338,-2.77328 -5.72004,-4.15994 -10.4,-4.16 -3.42337,6e-5 -6.63003,0.82339 -9.62,2.47 -2.94669,1.64672 -5.67669,3.87838 -8.19,6.695 l 0,48.49 -11.57,0"
         style="font-weight:normal;fill:#999999;-inkscape-font-specification:Lato"
         id="path4336" />
      <path
         d="m 807.80873,448.6149 0,65.845 -11.57,0 0,-65.845 11.57,0 m 2.6,-20.67 c -2e-5,1.12675 -0.23836,2.18842 -0.715,3.185 -0.43336,0.95342 -1.04002,1.82008 -1.82,2.6 -0.73669,0.73675 -1.60335,1.32175 -2.6,1.755 -0.99669,0.43341 -2.05835,0.65008 -3.185,0.65 -1.12668,8e-5 -2.18835,-0.21659 -3.185,-0.65 -0.95335,-0.43325 -1.82001,-1.01825 -2.6,-1.755 -0.73668,-0.77992 -1.32168,-1.64658 -1.755,-2.6 -0.43334,-0.99658 -0.65001,-2.05825 -0.65,-3.185 -10e-6,-1.12658 0.21666,-2.18824 0.65,-3.185 0.43332,-1.03991 1.01832,-1.92824 1.755,-2.665 0.77999,-0.77991 1.64665,-1.38657 2.6,-1.82 0.99665,-0.43324 2.05832,-0.64991 3.185,-0.65 1.12665,9e-5 2.18831,0.21676 3.185,0.65 0.99665,0.43343 1.86331,1.04009 2.6,1.82 0.77998,0.73676 1.38664,1.62509 1.82,2.665 0.47664,0.99676 0.71498,2.05842 0.715,3.185"
         style="font-weight:normal;fill:#999999;-inkscape-font-specification:Lato"
         id="path4338" />
      <path
         d="m 854.85045,447.5749 c 4.80996,7e-5 9.14329,0.80173 13,2.405 3.89995,1.6034 7.19328,3.87839 9.88,6.825 2.72994,2.94672 4.80994,6.52172 6.24,10.725 1.47327,4.16004 2.20993,8.81837 2.21,13.975 -7e-5,5.20003 -0.73673,9.88002 -2.21,14.04 -1.43006,4.16001 -3.51006,7.71334 -6.24,10.66 -2.68672,2.94667 -5.98005,5.22167 -9.88,6.825 -3.85671,1.56 -8.19004,2.34 -13,2.34 -4.81003,0 -9.16503,-0.78 -13.065,-2.34 -3.85669,-1.60333 -7.15002,-3.87833 -9.88,-6.825 -2.73001,-2.94666 -4.83168,-6.49999 -6.305,-10.66 -1.47334,-4.15998 -2.21001,-8.83997 -2.21,-14.04 -10e-6,-5.15663 0.73666,-9.81496 2.21,-13.975 1.47332,-4.20328 3.57499,-7.77828 6.305,-10.725 2.72998,-2.94661 6.02331,-5.2216 9.88,-6.825 3.89997,-1.60327 8.25497,-2.40493 13.065,-2.405 m 0,58.76 c 6.49996,10e-6 11.35329,-2.16666 14.56,-6.5 3.20661,-4.37665 4.80994,-10.46498 4.81,-18.265 -6e-5,-7.84329 -1.60339,-13.95329 -4.81,-18.33 -3.20671,-4.37661 -8.06004,-6.56494 -14.56,-6.565 -3.29337,6e-5 -6.15336,0.56339 -8.58,1.69 -2.42669,1.12672 -4.46336,2.75172 -6.11,4.875 -1.60335,2.12338 -2.81669,4.74505 -3.64,7.865 -0.78002,3.07671 -1.17002,6.56504 -1.17,10.465 -2e-5,3.90003 0.38998,7.38836 1.17,10.465 0.82331,3.07669 2.03665,5.67668 3.64,7.8 1.64664,2.08001 3.68331,3.68334 6.11,4.81 2.42664,1.12668 5.28663,1.69001 8.58,1.69"
         style="font-weight:normal;fill:#999999;-inkscape-font-specification:Lato"
         id="path4340" />
      <path
         d="m 900.56373,514.4599 0,-65.845 6.89,0 c 1.64665,7e-5 2.68665,0.80173 3.12,2.405 l 0.91,7.15 c 2.85998,-3.16327 6.04497,-5.71994 9.555,-7.67 3.5533,-1.94993 7.6483,-2.92493 12.285,-2.925 3.59662,7e-5 6.75995,0.60673 9.49,1.82 2.77328,1.17006 5.06994,2.86006 6.89,5.07 1.86327,2.16672 3.27161,4.78839 4.225,7.865 0.95327,3.07672 1.42994,6.47838 1.43,10.205 l 0,41.925 -11.57,0 0,-41.925 c -5e-5,-4.98329 -1.14838,-8.83995 -3.445,-11.57 -2.25338,-2.77328 -5.72004,-4.15994 -10.4,-4.16 -3.42337,6e-5 -6.63003,0.82339 -9.62,2.47 -2.94669,1.64672 -5.67669,3.87838 -8.19,6.695 l 0,48.49 -11.57,0"
         style="font-weight:normal;fill:#999999;-inkscape-font-specification:Lato"
         id="path4342" />
      <path
         d="m 1010.627,459.4699 c -0.52,0.95339 -1.3217,1.43005 -2.405,1.43 -0.65,5e-5 -1.3867,-0.23828 -2.21,-0.715 -0.8234,-0.47661 -1.8417,-0.99661 -3.055,-1.56 -1.17,-0.60661 -2.5784,-1.14828 -4.22499,-1.625 -1.6467,-0.51994 -3.5967,-0.77994 -5.85,-0.78 -1.95003,6e-5 -3.70502,0.26006 -5.265,0.78 -1.56002,0.47672 -2.90335,1.14839 -4.03,2.015 -1.08335,0.86672 -1.92835,1.88505 -2.535,3.055 -0.56335,1.12672 -0.84502,2.36172 -0.845,3.705 -2e-5,1.69005 0.47665,3.09838 1.43,4.225 0.99665,1.12671 2.29665,2.10171 3.9,2.925 1.60331,0.82337 3.42331,1.56004 5.46,2.21 2.03664,0.60671 4.11664,1.27837 6.24,2.015 2.16663,0.69337 4.26829,1.47337 6.30499,2.34 2.0366,0.8667 3.8566,1.95003 5.46,3.25 1.6033,1.30003 2.8816,2.90336 3.835,4.81 0.9966,1.86336 1.495,4.11669 1.495,6.76 0,3.03335 -0.5417,5.85001 -1.625,8.45 -1.0834,2.55668 -2.6867,4.78834 -4.81,6.695 -2.1234,1.86334 -4.7234,3.33667 -7.8,4.42 -3.07669,1.08333 -6.63002,1.625 -10.65999,1.625 -4.59335,0 -8.75335,-0.73667 -12.48,-2.21 -3.72667,-1.51666 -6.89,-3.445 -9.49,-5.785 l 2.73,-4.42 c 0.34666,-0.56332 0.75833,-0.99665 1.235,-1.3 0.47666,-0.30332 1.10499,-0.45499 1.885,-0.455 0.77999,10e-6 1.60332,0.30335 2.47,0.91 0.86666,0.60668 1.90665,1.27834 3.12,2.015 1.25665,0.73668 2.75165,1.40834 4.485,2.015 1.77665,0.60667 3.98664,0.91001 6.63,0.91 2.25331,1e-5 4.22497,-0.28166 5.915,-0.845 1.68997,-0.60666 3.0983,-1.40832 4.22499,-2.405 1.1266,-0.99666 1.95,-2.14499 2.47,-3.445 0.5633,-1.29998 0.845,-2.68665 0.845,-4.16 0,-1.81998 -0.4984,-3.31498 -1.495,-4.485 -0.9534,-1.21331 -2.23169,-2.23164 -3.83499,-3.055 -1.60336,-0.86664 -3.44503,-1.60331 -5.525,-2.21 -2.03669,-0.64997 -4.13836,-1.32164 -6.305,-2.015 -2.12335,-0.6933 -4.22502,-1.4733 -6.305,-2.34 -2.03668,-0.90997 -3.85668,-2.03663 -5.46,-3.38 -1.60334,-1.3433 -2.90334,-2.98996 -3.9,-4.94 -0.95334,-1.99329 -1.43,-4.39829 -1.43,-7.215 0,-2.51328 0.52,-4.91828 1.56,-7.215 1.03999,-2.33994 2.55666,-4.37661 4.55,-6.11 1.99332,-1.7766 4.44165,-3.18494 7.345,-4.225 2.90331,-1.03993 6.21831,-1.55993 9.945,-1.56 4.3333,7e-5 8.21159,0.6934 11.63499,2.08 3.4666,1.3434 6.4566,3.20673 8.97,5.59 l -2.6,4.225"
         style="font-weight:normal;fill:#999999;-inkscape-font-specification:Lato"
         id="path4344" />
    </g>
  </g>
</svg>
